<mxfile host="app.diagrams.net" modified="2020-06-14T13:10:54.973Z" agent="5.0 (X11; Linux x86_64) AppleWebKit/537.36 (KHTML, like Gecko) Chrome/80.0.3987.122 Safari/537.36 OPR/67.0.3575.53" etag="vSLEkwgVvSw7Ot6r1z44" version="13.2.4" type="github" pages="9">
  <diagram id="QuyX2whkP-qja3CpLCFp" name="Tec - Page-1">
    <mxGraphModel dx="828" dy="492" grid="1" gridSize="10" guides="1" tooltips="1" connect="1" arrows="1" fold="1" page="1" pageScale="1" pageWidth="827" pageHeight="1169" math="0" shadow="0">
      <root>
        <mxCell id="0" />
        <mxCell id="1" parent="0" />
        <mxCell id="Z5RQobhobNwmoO2SX2og-1" value="" style="strokeWidth=1;shadow=0;dashed=0;align=center;html=1;shape=mxgraph.mockup.containers.browserWindow;rSize=0;strokeColor=#666666;strokeColor2=#008cff;strokeColor3=#c4c4c4;mainText=,;recursiveResize=0;" parent="1" vertex="1">
          <mxGeometry x="40" y="20" width="750" height="480" as="geometry" />
        </mxCell>
        <mxCell id="Z5RQobhobNwmoO2SX2og-2" value="Siembra" style="strokeWidth=1;shadow=0;dashed=0;align=center;html=1;shape=mxgraph.mockup.containers.anchor;fontSize=17;fontColor=#666666;align=left;" parent="Z5RQobhobNwmoO2SX2og-1" vertex="1">
          <mxGeometry x="60" y="12" width="110" height="26" as="geometry" />
        </mxCell>
        <mxCell id="Z5RQobhobNwmoO2SX2og-3" value="https://siembra.asoportuguesa.org" style="strokeWidth=1;shadow=0;dashed=0;align=center;html=1;shape=mxgraph.mockup.containers.anchor;rSize=0;fontSize=17;fontColor=#666666;align=left;" parent="Z5RQobhobNwmoO2SX2og-1" vertex="1">
          <mxGeometry x="130" y="60" width="250" height="26" as="geometry" />
        </mxCell>
        <mxCell id="Z5RQobhobNwmoO2SX2og-4" value="" style="strokeWidth=1;shadow=0;dashed=0;align=center;html=1;shape=mxgraph.mockup.containers.rrect;rSize=0;strokeColor=#666666;" parent="Z5RQobhobNwmoO2SX2og-1" vertex="1">
          <mxGeometry y="110" width="130" height="370" as="geometry" />
        </mxCell>
        <UserObject label="Solicitud de &lt;br&gt;insumos" link="data:page/id,7zwMk-7BACqUsPq9tSAO" id="Z5RQobhobNwmoO2SX2og-5">
          <mxCell style="strokeColor=inherit;fillColor=inherit;gradientColor=inherit;strokeWidth=1;shadow=0;dashed=0;align=center;html=1;shape=mxgraph.mockup.containers.rrect;rSize=0;fontSize=17;fontColor=#666666;fontStyle=1;resizeWidth=1;" parent="Z5RQobhobNwmoO2SX2og-4" vertex="1">
            <mxGeometry width="130" height="50" relative="1" as="geometry">
              <mxPoint y="105" as="offset" />
            </mxGeometry>
          </mxCell>
        </UserObject>
        <mxCell id="Z5RQobhobNwmoO2SX2og-8" value="Otros..." style="strokeColor=inherit;fillColor=inherit;gradientColor=inherit;strokeWidth=1;shadow=0;dashed=0;align=center;html=1;shape=mxgraph.mockup.containers.rrect;rSize=0;fontSize=17;fontColor=#666666;fontStyle=1;resizeWidth=1;" parent="Z5RQobhobNwmoO2SX2og-4" vertex="1">
          <mxGeometry y="1" width="130" height="26" relative="1" as="geometry">
            <mxPoint y="-215" as="offset" />
          </mxGeometry>
        </mxCell>
        <mxCell id="Z5RQobhobNwmoO2SX2og-16" value="" style="verticalLabelPosition=bottom;shadow=0;dashed=0;align=center;html=1;verticalAlign=top;strokeWidth=1;shape=mxgraph.mockup.graphics.simpleIcon;strokeColor=#999999;" parent="Z5RQobhobNwmoO2SX2og-1" vertex="1">
          <mxGeometry y="110" width="130" height="110" as="geometry" />
        </mxCell>
        <mxCell id="Z5RQobhobNwmoO2SX2og-17" value="&lt;h1&gt;Bienvenido&lt;/h1&gt;&lt;h1&gt;USUARIO&lt;/h1&gt;&lt;p&gt;Rol1, Rol2, Rol3, Rol4...&lt;/p&gt;" style="text;html=1;strokeColor=none;fillColor=none;spacing=5;spacingTop=-20;whiteSpace=wrap;overflow=hidden;rounded=0;align=center;" parent="Z5RQobhobNwmoO2SX2og-1" vertex="1">
          <mxGeometry x="310" y="200" width="190" height="120" as="geometry" />
        </mxCell>
      </root>
    </mxGraphModel>
  </diagram>
  <diagram id="7zwMk-7BACqUsPq9tSAO" name="Tec - Page-2">
    <mxGraphModel dx="828" dy="492" grid="1" gridSize="10" guides="1" tooltips="1" connect="1" arrows="1" fold="1" page="1" pageScale="1" pageWidth="827" pageHeight="1169" math="0" shadow="0">
      <root>
        <mxCell id="gKisJ0sx-vYq03M-hG_t-0" />
        <mxCell id="gKisJ0sx-vYq03M-hG_t-1" parent="gKisJ0sx-vYq03M-hG_t-0" />
        <mxCell id="gKisJ0sx-vYq03M-hG_t-2" value="" style="strokeWidth=1;shadow=0;dashed=0;align=center;html=1;shape=mxgraph.mockup.containers.browserWindow;rSize=0;strokeColor=#666666;strokeColor2=#008cff;strokeColor3=#c4c4c4;mainText=,;recursiveResize=0;" parent="gKisJ0sx-vYq03M-hG_t-1" vertex="1">
          <mxGeometry x="40" y="20" width="750" height="480" as="geometry" />
        </mxCell>
        <mxCell id="gKisJ0sx-vYq03M-hG_t-3" value="Siembra" style="strokeWidth=1;shadow=0;dashed=0;align=center;html=1;shape=mxgraph.mockup.containers.anchor;fontSize=17;fontColor=#666666;align=left;" parent="gKisJ0sx-vYq03M-hG_t-2" vertex="1">
          <mxGeometry x="60" y="12" width="110" height="26" as="geometry" />
        </mxCell>
        <mxCell id="gKisJ0sx-vYq03M-hG_t-4" value="https://siembra.asoportuguesa.org" style="strokeWidth=1;shadow=0;dashed=0;align=center;html=1;shape=mxgraph.mockup.containers.anchor;rSize=0;fontSize=17;fontColor=#666666;align=left;" parent="gKisJ0sx-vYq03M-hG_t-2" vertex="1">
          <mxGeometry x="130" y="60" width="250" height="26" as="geometry" />
        </mxCell>
        <mxCell id="BYekHz_JngwF6bZnMJrw-88" value="" style="swimlane;fontStyle=0;childLayout=stackLayout;horizontal=1;startSize=26;fillColor=none;horizontalStack=0;resizeParent=1;resizeParentMax=0;resizeLast=0;collapsible=1;marginBottom=0;align=center;" parent="gKisJ0sx-vYq03M-hG_t-2" vertex="1">
          <mxGeometry x="580.33" y="220" width="53.33" height="50" as="geometry" />
        </mxCell>
        <mxCell id="BYekHz_JngwF6bZnMJrw-91" value="" style="shape=image;html=1;verticalAlign=top;verticalLabelPosition=bottom;labelBackgroundColor=#ffffff;imageAspect=0;aspect=fixed;image=https://cdn4.iconfinder.com/data/icons/icocentre-free-icons/114/f-cross_256-128.png;align=center;" parent="BYekHz_JngwF6bZnMJrw-88" vertex="1">
          <mxGeometry y="26" width="53.33" height="24" as="geometry" />
        </mxCell>
        <mxCell id="4_A7WSBY_ZJpwCcbjX7z-0" value="" style="swimlane;fontStyle=0;childLayout=stackLayout;horizontal=1;startSize=26;fillColor=none;horizontalStack=0;resizeParent=1;resizeParentMax=0;resizeLast=0;collapsible=1;marginBottom=0;align=center;" parent="gKisJ0sx-vYq03M-hG_t-2" vertex="1">
          <mxGeometry x="530" y="220" width="50" height="50" as="geometry" />
        </mxCell>
        <UserObject label="" link="data:page/id,U-QEXP-KFMDt4UEnIORS" id="4_A7WSBY_ZJpwCcbjX7z-5">
          <mxCell style="shape=image;html=1;verticalAlign=top;verticalLabelPosition=bottom;labelBackgroundColor=#ffffff;imageAspect=0;aspect=fixed;image=https://cdn3.iconfinder.com/data/icons/social-media-2125/80/view-128.png;align=center;" parent="4_A7WSBY_ZJpwCcbjX7z-0" vertex="1">
            <mxGeometry y="26" width="50" height="24" as="geometry" />
          </mxCell>
        </UserObject>
        <mxCell id="BYekHz_JngwF6bZnMJrw-81" value="Lote" style="swimlane;fontStyle=0;childLayout=stackLayout;horizontal=1;startSize=26;fillColor=none;horizontalStack=0;resizeParent=1;resizeParentMax=0;resizeLast=0;collapsible=1;marginBottom=0;align=center;" parent="gKisJ0sx-vYq03M-hG_t-2" vertex="1">
          <mxGeometry x="470" y="220" width="60" height="52" as="geometry" />
        </mxCell>
        <mxCell id="BYekHz_JngwF6bZnMJrw-82" value="1" style="text;strokeColor=none;fillColor=none;align=left;verticalAlign=top;spacingLeft=4;spacingRight=4;overflow=hidden;rotatable=0;points=[[0,0.5],[1,0.5]];portConstraint=eastwest;" parent="BYekHz_JngwF6bZnMJrw-81" vertex="1">
          <mxGeometry y="26" width="60" height="26" as="geometry" />
        </mxCell>
        <mxCell id="BYekHz_JngwF6bZnMJrw-69" value="CrÃ©dito" style="swimlane;fontStyle=0;childLayout=stackLayout;horizontal=1;startSize=26;fillColor=none;horizontalStack=0;resizeParent=1;resizeParentMax=0;resizeLast=0;collapsible=1;marginBottom=0;align=center;" parent="gKisJ0sx-vYq03M-hG_t-2" vertex="1">
          <mxGeometry x="290" y="220" width="120" height="52" as="geometry" />
        </mxCell>
        <mxCell id="BYekHz_JngwF6bZnMJrw-70" value="00001265" style="text;strokeColor=none;fillColor=none;align=left;verticalAlign=top;spacingLeft=4;spacingRight=4;overflow=hidden;rotatable=0;points=[[0,0.5],[1,0.5]];portConstraint=eastwest;" parent="BYekHz_JngwF6bZnMJrw-69" vertex="1">
          <mxGeometry y="26" width="120" height="26" as="geometry" />
        </mxCell>
        <mxCell id="BYekHz_JngwF6bZnMJrw-65" value="Solicitud" style="swimlane;fontStyle=0;childLayout=stackLayout;horizontal=1;startSize=26;fillColor=none;horizontalStack=0;resizeParent=1;resizeParentMax=0;resizeLast=0;collapsible=1;marginBottom=0;align=center;" parent="gKisJ0sx-vYq03M-hG_t-2" vertex="1">
          <mxGeometry x="220" y="220" width="70" height="52" as="geometry" />
        </mxCell>
        <mxCell id="BYekHz_JngwF6bZnMJrw-66" value="SOEI0001" style="text;strokeColor=none;fillColor=none;align=left;verticalAlign=top;spacingLeft=4;spacingRight=4;overflow=hidden;rotatable=0;points=[[0,0.5],[1,0.5]];portConstraint=eastwest;" parent="BYekHz_JngwF6bZnMJrw-65" vertex="1">
          <mxGeometry y="26" width="70" height="26" as="geometry" />
        </mxCell>
        <mxCell id="gKisJ0sx-vYq03M-hG_t-5" value="" style="strokeWidth=1;shadow=0;dashed=0;align=center;html=1;shape=mxgraph.mockup.containers.rrect;rSize=0;strokeColor=#666666;" parent="gKisJ0sx-vYq03M-hG_t-2" vertex="1">
          <mxGeometry y="110" width="130" height="370" as="geometry" />
        </mxCell>
        <mxCell id="gKisJ0sx-vYq03M-hG_t-6" value="Solicitud de &lt;br&gt;insumos" style="strokeColor=inherit;fillColor=inherit;gradientColor=inherit;strokeWidth=1;shadow=0;dashed=0;align=center;html=1;shape=mxgraph.mockup.containers.rrect;rSize=0;fontSize=17;fontColor=#666666;fontStyle=1;resizeWidth=1;" parent="gKisJ0sx-vYq03M-hG_t-5" vertex="1">
          <mxGeometry width="130" height="50" relative="1" as="geometry">
            <mxPoint y="105" as="offset" />
          </mxGeometry>
        </mxCell>
        <mxCell id="gKisJ0sx-vYq03M-hG_t-7" value="Otros..." style="strokeColor=inherit;fillColor=inherit;gradientColor=inherit;strokeWidth=1;shadow=0;dashed=0;align=center;html=1;shape=mxgraph.mockup.containers.rrect;rSize=0;fontSize=17;fontColor=#666666;fontStyle=1;resizeWidth=1;" parent="gKisJ0sx-vYq03M-hG_t-5" vertex="1">
          <mxGeometry y="1" width="130" height="26" relative="1" as="geometry">
            <mxPoint y="-215" as="offset" />
          </mxGeometry>
        </mxCell>
        <mxCell id="gKisJ0sx-vYq03M-hG_t-8" value="" style="verticalLabelPosition=bottom;shadow=0;dashed=0;align=center;html=1;verticalAlign=top;strokeWidth=1;shape=mxgraph.mockup.graphics.simpleIcon;strokeColor=#999999;" parent="gKisJ0sx-vYq03M-hG_t-2" vertex="1">
          <mxGeometry y="110" width="130" height="110" as="geometry" />
        </mxCell>
        <UserObject label="Nueva solicitud" link="data:page/id,H_ms2dcrYM0Be4c1I_b2" id="BYekHz_JngwF6bZnMJrw-92">
          <mxCell style="rounded=1;fillColor=#0057D8;align=center;strokeColor=none;html=1;fontColor=#ffffff;fontSize=12" parent="gKisJ0sx-vYq03M-hG_t-2" vertex="1">
            <mxGeometry x="220" y="180" width="86" height="33" as="geometry" />
          </mxCell>
        </UserObject>
        <mxCell id="iQv78sXD4_fwiwOSkg_N-0" value="&lt;h1&gt;Solicitudes de insumos&lt;/h1&gt;" style="text;html=1;strokeColor=none;fillColor=none;spacing=5;spacingTop=-20;whiteSpace=wrap;overflow=hidden;rounded=0;align=center;" parent="gKisJ0sx-vYq03M-hG_t-1" vertex="1">
          <mxGeometry x="330" y="150" width="290" height="40" as="geometry" />
        </mxCell>
        <mxCell id="BYekHz_JngwF6bZnMJrw-77" value="Finca" style="swimlane;fontStyle=0;childLayout=stackLayout;horizontal=1;startSize=26;fillColor=none;horizontalStack=0;resizeParent=1;resizeParentMax=0;resizeLast=0;collapsible=1;marginBottom=0;align=center;" parent="gKisJ0sx-vYq03M-hG_t-1" vertex="1">
          <mxGeometry x="450" y="240" width="60" height="52" as="geometry" />
        </mxCell>
        <mxCell id="BYekHz_JngwF6bZnMJrw-78" value="014" style="text;strokeColor=none;fillColor=none;align=left;verticalAlign=top;spacingLeft=4;spacingRight=4;overflow=hidden;rotatable=0;points=[[0,0.5],[1,0.5]];portConstraint=eastwest;" parent="BYekHz_JngwF6bZnMJrw-77" vertex="1">
          <mxGeometry y="26" width="60" height="26" as="geometry" />
        </mxCell>
      </root>
    </mxGraphModel>
  </diagram>
  <diagram id="H_ms2dcrYM0Be4c1I_b2" name="Tec - Page-3">
    <mxGraphModel dx="828" dy="492" grid="1" gridSize="10" guides="1" tooltips="1" connect="1" arrows="1" fold="1" page="1" pageScale="1" pageWidth="827" pageHeight="1169" math="0" shadow="0">
      <root>
        <mxCell id="hDAZ8aq15jbLdWbwDaX0-0" />
        <mxCell id="hDAZ8aq15jbLdWbwDaX0-1" parent="hDAZ8aq15jbLdWbwDaX0-0" />
        <mxCell id="hDAZ8aq15jbLdWbwDaX0-2" value="" style="strokeWidth=1;shadow=0;dashed=0;align=center;html=1;shape=mxgraph.mockup.containers.browserWindow;rSize=0;strokeColor=#666666;strokeColor2=#008cff;strokeColor3=#c4c4c4;mainText=,;recursiveResize=0;" parent="hDAZ8aq15jbLdWbwDaX0-1" vertex="1">
          <mxGeometry x="40" y="20" width="844" height="480" as="geometry" />
        </mxCell>
        <mxCell id="hDAZ8aq15jbLdWbwDaX0-3" value="Siembra" style="strokeWidth=1;shadow=0;dashed=0;align=center;html=1;shape=mxgraph.mockup.containers.anchor;fontSize=17;fontColor=#666666;align=left;" parent="hDAZ8aq15jbLdWbwDaX0-2" vertex="1">
          <mxGeometry x="60" y="12" width="110" height="26" as="geometry" />
        </mxCell>
        <mxCell id="hDAZ8aq15jbLdWbwDaX0-4" value="https://siembra.asoportuguesa.org" style="strokeWidth=1;shadow=0;dashed=0;align=center;html=1;shape=mxgraph.mockup.containers.anchor;rSize=0;fontSize=17;fontColor=#666666;align=left;" parent="hDAZ8aq15jbLdWbwDaX0-2" vertex="1">
          <mxGeometry x="130" y="60" width="250" height="26" as="geometry" />
        </mxCell>
        <mxCell id="hDAZ8aq15jbLdWbwDaX0-5" value="" style="strokeWidth=1;shadow=0;dashed=0;align=center;html=1;shape=mxgraph.mockup.containers.rrect;rSize=0;strokeColor=#666666;" parent="hDAZ8aq15jbLdWbwDaX0-2" vertex="1">
          <mxGeometry y="110" width="130" height="370" as="geometry" />
        </mxCell>
        <mxCell id="hDAZ8aq15jbLdWbwDaX0-6" value="Solicitud de &lt;br&gt;insumos" style="strokeColor=inherit;fillColor=inherit;gradientColor=inherit;strokeWidth=1;shadow=0;dashed=0;align=center;html=1;shape=mxgraph.mockup.containers.rrect;rSize=0;fontSize=17;fontColor=#666666;fontStyle=1;resizeWidth=1;" parent="hDAZ8aq15jbLdWbwDaX0-5" vertex="1">
          <mxGeometry width="130" height="50" relative="1" as="geometry">
            <mxPoint y="105" as="offset" />
          </mxGeometry>
        </mxCell>
        <mxCell id="hDAZ8aq15jbLdWbwDaX0-7" value="Otros..." style="strokeColor=inherit;fillColor=inherit;gradientColor=inherit;strokeWidth=1;shadow=0;dashed=0;align=center;html=1;shape=mxgraph.mockup.containers.rrect;rSize=0;fontSize=17;fontColor=#666666;fontStyle=1;resizeWidth=1;" parent="hDAZ8aq15jbLdWbwDaX0-5" vertex="1">
          <mxGeometry y="1" width="130" height="26" relative="1" as="geometry">
            <mxPoint y="-215" as="offset" />
          </mxGeometry>
        </mxCell>
        <mxCell id="hDAZ8aq15jbLdWbwDaX0-8" value="" style="verticalLabelPosition=bottom;shadow=0;dashed=0;align=center;html=1;verticalAlign=top;strokeWidth=1;shape=mxgraph.mockup.graphics.simpleIcon;strokeColor=#999999;" parent="hDAZ8aq15jbLdWbwDaX0-2" vertex="1">
          <mxGeometry y="110" width="130" height="110" as="geometry" />
        </mxCell>
        <UserObject label="Option 1" link="data:page/id,SeyLVEOmgzdLoLSbZBI_" id="hDAZ8aq15jbLdWbwDaX0-9">
          <mxCell style="strokeWidth=1;shadow=0;dashed=0;align=center;html=1;shape=mxgraph.mockup.forms.comboBox;strokeColor=#999999;fillColor=#ddeeff;align=left;fillColor2=#aaddff;mainText=;fontColor=#666666;fontSize=17;spacingLeft=3;" parent="hDAZ8aq15jbLdWbwDaX0-2" vertex="1">
            <mxGeometry x="190" y="210" width="150" height="30" as="geometry" />
          </mxCell>
        </UserObject>
        <mxCell id="hDAZ8aq15jbLdWbwDaX0-10" value="Option 1" style="strokeWidth=1;shadow=0;dashed=0;align=center;html=1;shape=mxgraph.mockup.forms.comboBox;strokeColor=#999999;fillColor=#ddeeff;align=left;fillColor2=#aaddff;mainText=;fontColor=#666666;fontSize=17;spacingLeft=3;" parent="hDAZ8aq15jbLdWbwDaX0-2" vertex="1">
          <mxGeometry x="190" y="260" width="470" height="30" as="geometry" />
        </mxCell>
        <mxCell id="hDAZ8aq15jbLdWbwDaX0-11" value="&lt;table cellpadding=&quot;0&quot; cellspacing=&quot;0&quot; style=&quot;width:100%;height:100%;&quot;&gt;&lt;tr&gt;&lt;td style=&quot;width:85%&quot;&gt;100&lt;/td&gt;&lt;td style=&quot;width:15%&quot;&gt;&lt;/td&gt;&lt;/tr&gt;&lt;/table&gt;" style="strokeWidth=1;shadow=0;dashed=0;align=center;html=1;shape=mxgraph.mockup.forms.spinner;strokeColor=#999999;spinLayout=right;spinStyle=normal;adjStyle=triangle;fillColor=#aaddff;fontSize=17;fontColor=#666666;mainText=;html=1;overflow=fill;" parent="hDAZ8aq15jbLdWbwDaX0-2" vertex="1">
          <mxGeometry x="190" y="310" width="120" height="30" as="geometry" />
        </mxCell>
        <UserObject label="CrÃ©dito" placeholders="1" name="Variable" id="hDAZ8aq15jbLdWbwDaX0-12">
          <mxCell style="text;html=1;strokeColor=none;fillColor=none;align=left;verticalAlign=middle;whiteSpace=wrap;overflow=hidden;" parent="hDAZ8aq15jbLdWbwDaX0-2" vertex="1">
            <mxGeometry x="190" y="190" width="80" height="20" as="geometry" />
          </mxCell>
        </UserObject>
        <mxCell id="hDAZ8aq15jbLdWbwDaX0-13" value="Option 1" style="strokeWidth=1;shadow=0;dashed=0;align=center;html=1;shape=mxgraph.mockup.forms.comboBox;strokeColor=#999999;fillColor=#ddeeff;align=left;fillColor2=#aaddff;mainText=;fontColor=#666666;fontSize=17;spacingLeft=3;" parent="hDAZ8aq15jbLdWbwDaX0-2" vertex="1">
          <mxGeometry x="350" y="210" width="150" height="30" as="geometry" />
        </mxCell>
        <UserObject label="Finca" placeholders="1" name="Variable" id="hDAZ8aq15jbLdWbwDaX0-14">
          <mxCell style="text;html=1;strokeColor=none;fillColor=none;align=left;verticalAlign=middle;whiteSpace=wrap;overflow=hidden;" parent="hDAZ8aq15jbLdWbwDaX0-2" vertex="1">
            <mxGeometry x="350" y="190" width="80" height="20" as="geometry" />
          </mxCell>
        </UserObject>
        <mxCell id="hDAZ8aq15jbLdWbwDaX0-15" value="Option 1" style="strokeWidth=1;shadow=0;dashed=0;align=center;html=1;shape=mxgraph.mockup.forms.comboBox;strokeColor=#999999;fillColor=#ddeeff;align=left;fillColor2=#aaddff;mainText=;fontColor=#666666;fontSize=17;spacingLeft=3;" parent="hDAZ8aq15jbLdWbwDaX0-2" vertex="1">
          <mxGeometry x="510" y="210" width="150" height="30" as="geometry" />
        </mxCell>
        <UserObject label="Lote" placeholders="1" name="Variable" id="hDAZ8aq15jbLdWbwDaX0-16">
          <mxCell style="text;html=1;strokeColor=none;fillColor=none;align=left;verticalAlign=middle;whiteSpace=wrap;overflow=hidden;" parent="hDAZ8aq15jbLdWbwDaX0-2" vertex="1">
            <mxGeometry x="510" y="190" width="80" height="20" as="geometry" />
          </mxCell>
        </UserObject>
        <UserObject label="Producto" placeholders="1" name="Variable" id="hDAZ8aq15jbLdWbwDaX0-17">
          <mxCell style="text;html=1;strokeColor=none;fillColor=none;align=left;verticalAlign=middle;whiteSpace=wrap;overflow=hidden;" parent="hDAZ8aq15jbLdWbwDaX0-2" vertex="1">
            <mxGeometry x="190" y="240" width="80" height="20" as="geometry" />
          </mxCell>
        </UserObject>
        <UserObject label="Cantidad" placeholders="1" name="Variable" id="hDAZ8aq15jbLdWbwDaX0-18">
          <mxCell style="text;html=1;strokeColor=none;fillColor=none;align=left;verticalAlign=middle;whiteSpace=wrap;overflow=hidden;" parent="hDAZ8aq15jbLdWbwDaX0-2" vertex="1">
            <mxGeometry x="190" y="290" width="80" height="20" as="geometry" />
          </mxCell>
        </UserObject>
        <mxCell id="hDAZ8aq15jbLdWbwDaX0-19" value="" style="swimlane;fontStyle=0;childLayout=stackLayout;horizontal=1;startSize=26;fillColor=none;horizontalStack=0;resizeParent=1;resizeParentMax=0;resizeLast=0;collapsible=1;marginBottom=0;align=center;" parent="hDAZ8aq15jbLdWbwDaX0-2" vertex="1">
          <mxGeometry x="680" y="360" width="53.33" height="50" as="geometry" />
        </mxCell>
        <mxCell id="hDAZ8aq15jbLdWbwDaX0-20" value="" style="shape=image;html=1;verticalAlign=top;verticalLabelPosition=bottom;labelBackgroundColor=#ffffff;imageAspect=0;aspect=fixed;image=https://cdn4.iconfinder.com/data/icons/icocentre-free-icons/114/f-cross_256-128.png;align=center;" parent="hDAZ8aq15jbLdWbwDaX0-19" vertex="1">
          <mxGeometry y="26" width="53.33" height="24" as="geometry" />
        </mxCell>
        <mxCell id="hDAZ8aq15jbLdWbwDaX0-21" value="Cantidad" style="swimlane;fontStyle=0;childLayout=stackLayout;horizontal=1;startSize=26;fillColor=none;horizontalStack=0;resizeParent=1;resizeParentMax=0;resizeLast=0;collapsible=1;marginBottom=0;align=center;" parent="hDAZ8aq15jbLdWbwDaX0-2" vertex="1">
          <mxGeometry x="480" y="360" width="80" height="52" as="geometry" />
        </mxCell>
        <mxCell id="hDAZ8aq15jbLdWbwDaX0-22" value="10000" style="text;strokeColor=none;fillColor=none;align=left;verticalAlign=top;spacingLeft=4;spacingRight=4;overflow=hidden;rotatable=0;points=[[0,0.5],[1,0.5]];portConstraint=eastwest;" parent="hDAZ8aq15jbLdWbwDaX0-21" vertex="1">
          <mxGeometry y="26" width="80" height="26" as="geometry" />
        </mxCell>
        <mxCell id="hDAZ8aq15jbLdWbwDaX0-23" value="Producto" style="swimlane;fontStyle=0;childLayout=stackLayout;horizontal=1;startSize=26;fillColor=none;horizontalStack=0;resizeParent=1;resizeParentMax=0;resizeLast=0;collapsible=1;marginBottom=0;align=center;" parent="hDAZ8aq15jbLdWbwDaX0-2" vertex="1">
          <mxGeometry x="240" y="360" width="240" height="52" as="geometry" />
        </mxCell>
        <mxCell id="hDAZ8aq15jbLdWbwDaX0-24" value="Glyfosan LTS" style="text;strokeColor=none;fillColor=none;align=left;verticalAlign=top;spacingLeft=4;spacingRight=4;overflow=hidden;rotatable=0;points=[[0,0.5],[1,0.5]];portConstraint=eastwest;" parent="hDAZ8aq15jbLdWbwDaX0-23" vertex="1">
          <mxGeometry y="26" width="240" height="26" as="geometry" />
        </mxCell>
        <mxCell id="hDAZ8aq15jbLdWbwDaX0-25" value="CrÃ©dito" style="swimlane;fontStyle=0;childLayout=stackLayout;horizontal=1;startSize=26;fillColor=none;horizontalStack=0;resizeParent=1;resizeParentMax=0;resizeLast=0;collapsible=1;marginBottom=0;align=center;" parent="hDAZ8aq15jbLdWbwDaX0-2" vertex="1">
          <mxGeometry x="170" y="360" width="70" height="52" as="geometry" />
        </mxCell>
        <mxCell id="hDAZ8aq15jbLdWbwDaX0-26" value="00001265" style="text;strokeColor=none;fillColor=none;align=left;verticalAlign=top;spacingLeft=4;spacingRight=4;overflow=hidden;rotatable=0;points=[[0,0.5],[1,0.5]];portConstraint=eastwest;" parent="hDAZ8aq15jbLdWbwDaX0-25" vertex="1">
          <mxGeometry y="26" width="70" height="26" as="geometry" />
        </mxCell>
        <mxCell id="hDAZ8aq15jbLdWbwDaX0-27" value="Agregar" style="rounded=1;fillColor=#0057D8;align=center;strokeColor=none;html=1;fontColor=#ffffff;fontSize=12" parent="hDAZ8aq15jbLdWbwDaX0-2" vertex="1">
          <mxGeometry x="574" y="308.5" width="86" height="33" as="geometry" />
        </mxCell>
        <UserObject label="Enviar pedido" link="data:page/id,7zwMk-7BACqUsPq9tSAO" id="hDAZ8aq15jbLdWbwDaX0-28">
          <mxCell style="rounded=1;fillColor=#0057D8;align=center;strokeColor=none;html=1;fontColor=#ffffff;fontSize=12" parent="hDAZ8aq15jbLdWbwDaX0-2" vertex="1">
            <mxGeometry x="394" y="430" width="86" height="33" as="geometry" />
          </mxCell>
        </UserObject>
        <mxCell id="hDAZ8aq15jbLdWbwDaX0-29" value="&lt;h1&gt;Solicitud de insumos&lt;/h1&gt;" style="text;html=1;strokeColor=none;fillColor=none;spacing=5;spacingTop=-20;whiteSpace=wrap;overflow=hidden;rounded=0;align=center;" parent="hDAZ8aq15jbLdWbwDaX0-1" vertex="1">
          <mxGeometry x="330" y="150" width="290" height="40" as="geometry" />
        </mxCell>
        <mxCell id="hDAZ8aq15jbLdWbwDaX0-30" value="Finca" style="swimlane;fontStyle=0;childLayout=stackLayout;horizontal=1;startSize=26;fillColor=none;horizontalStack=0;resizeParent=1;resizeParentMax=0;resizeLast=0;collapsible=1;marginBottom=0;align=center;" parent="hDAZ8aq15jbLdWbwDaX0-1" vertex="1">
          <mxGeometry x="600" y="380" width="60" height="52" as="geometry" />
        </mxCell>
        <mxCell id="hDAZ8aq15jbLdWbwDaX0-31" value="014" style="text;strokeColor=none;fillColor=none;align=left;verticalAlign=top;spacingLeft=4;spacingRight=4;overflow=hidden;rotatable=0;points=[[0,0.5],[1,0.5]];portConstraint=eastwest;" parent="hDAZ8aq15jbLdWbwDaX0-30" vertex="1">
          <mxGeometry y="26" width="60" height="26" as="geometry" />
        </mxCell>
        <mxCell id="hDAZ8aq15jbLdWbwDaX0-32" value="Lote" style="swimlane;fontStyle=0;childLayout=stackLayout;horizontal=1;startSize=26;fillColor=none;horizontalStack=0;resizeParent=1;resizeParentMax=0;resizeLast=0;collapsible=1;marginBottom=0;align=center;" parent="hDAZ8aq15jbLdWbwDaX0-1" vertex="1">
          <mxGeometry x="660" y="380" width="60" height="52" as="geometry" />
        </mxCell>
        <mxCell id="hDAZ8aq15jbLdWbwDaX0-33" value="1" style="text;strokeColor=none;fillColor=none;align=left;verticalAlign=top;spacingLeft=4;spacingRight=4;overflow=hidden;rotatable=0;points=[[0,0.5],[1,0.5]];portConstraint=eastwest;" parent="hDAZ8aq15jbLdWbwDaX0-32" vertex="1">
          <mxGeometry y="26" width="60" height="26" as="geometry" />
        </mxCell>
        <mxCell id="oGVqZQyiUNJdI1MS6VPS-2" value="Notas" parent="hDAZ8aq15jbLdWbwDaX0-0" />
        <mxCell id="oGVqZQyiUNJdI1MS6VPS-3" value="El apartado de producto no corresponderÃ¡ a una presentaciÃ³n comercial, sino a una generalizaciÃ³n (sea por nombre, ingrediente activo o formula)." style="shape=note;strokeWidth=2;fontSize=14;size=20;whiteSpace=wrap;html=1;fillColor=#fff2cc;strokeColor=#d6b656;fontColor=#666600;align=center;" parent="oGVqZQyiUNJdI1MS6VPS-2" vertex="1">
          <mxGeometry x="614" y="70" width="270" height="100" as="geometry" />
        </mxCell>
        <mxCell id="oGVqZQyiUNJdI1MS6VPS-4" value="" style="endArrow=classic;html=1;fontColor=#000000;exitX=0.5;exitY=1;exitDx=0;exitDy=0;exitPerimeter=0;" parent="oGVqZQyiUNJdI1MS6VPS-2" source="oGVqZQyiUNJdI1MS6VPS-3" edge="1">
          <mxGeometry width="50" height="50" relative="1" as="geometry">
            <mxPoint x="750" y="140" as="sourcePoint" />
            <mxPoint x="703" y="291" as="targetPoint" />
          </mxGeometry>
        </mxCell>
      </root>
    </mxGraphModel>
  </diagram>
  <diagram id="U-QEXP-KFMDt4UEnIORS" name="Tec - Page-4">
    <mxGraphModel dx="828" dy="492" grid="1" gridSize="10" guides="1" tooltips="1" connect="1" arrows="1" fold="1" page="1" pageScale="1" pageWidth="827" pageHeight="1169" math="0" shadow="0">
      <root>
        <mxCell id="vylFYC_0QnrU-7aGmqL_-0" />
        <mxCell id="vylFYC_0QnrU-7aGmqL_-1" parent="vylFYC_0QnrU-7aGmqL_-0" />
        <mxCell id="vLKh6WIY8xhP1FfqxqWf-0" value="" style="strokeWidth=1;shadow=0;dashed=0;align=center;html=1;shape=mxgraph.mockup.containers.browserWindow;rSize=0;strokeColor=#666666;strokeColor2=#008cff;strokeColor3=#c4c4c4;mainText=,;recursiveResize=0;" parent="vylFYC_0QnrU-7aGmqL_-1" vertex="1">
          <mxGeometry x="40" y="20" width="750" height="480" as="geometry" />
        </mxCell>
        <mxCell id="vLKh6WIY8xhP1FfqxqWf-1" value="Siembra" style="strokeWidth=1;shadow=0;dashed=0;align=center;html=1;shape=mxgraph.mockup.containers.anchor;fontSize=17;fontColor=#666666;align=left;" parent="vLKh6WIY8xhP1FfqxqWf-0" vertex="1">
          <mxGeometry x="60" y="12" width="110" height="26" as="geometry" />
        </mxCell>
        <mxCell id="vLKh6WIY8xhP1FfqxqWf-2" value="https://siembra.asoportuguesa.org" style="strokeWidth=1;shadow=0;dashed=0;align=center;html=1;shape=mxgraph.mockup.containers.anchor;rSize=0;fontSize=17;fontColor=#666666;align=left;" parent="vLKh6WIY8xhP1FfqxqWf-0" vertex="1">
          <mxGeometry x="130" y="60" width="250" height="26" as="geometry" />
        </mxCell>
        <mxCell id="vLKh6WIY8xhP1FfqxqWf-19" value="Cantidad" style="swimlane;fontStyle=0;childLayout=stackLayout;horizontal=1;startSize=26;fillColor=none;horizontalStack=0;resizeParent=1;resizeParentMax=0;resizeLast=0;collapsible=1;marginBottom=0;align=center;" parent="vLKh6WIY8xhP1FfqxqWf-0" vertex="1">
          <mxGeometry x="470" y="170" width="80" height="52" as="geometry" />
        </mxCell>
        <mxCell id="vLKh6WIY8xhP1FfqxqWf-20" value="10000" style="text;strokeColor=none;fillColor=none;align=left;verticalAlign=top;spacingLeft=4;spacingRight=4;overflow=hidden;rotatable=0;points=[[0,0.5],[1,0.5]];portConstraint=eastwest;" parent="vLKh6WIY8xhP1FfqxqWf-19" vertex="1">
          <mxGeometry y="26" width="80" height="26" as="geometry" />
        </mxCell>
        <mxCell id="vLKh6WIY8xhP1FfqxqWf-21" value="Producto" style="swimlane;fontStyle=0;childLayout=stackLayout;horizontal=1;startSize=26;fillColor=none;horizontalStack=0;resizeParent=1;resizeParentMax=0;resizeLast=0;collapsible=1;marginBottom=0;align=center;" parent="vLKh6WIY8xhP1FfqxqWf-0" vertex="1">
          <mxGeometry x="230" y="170" width="240" height="52" as="geometry" />
        </mxCell>
        <mxCell id="vLKh6WIY8xhP1FfqxqWf-22" value="Glyfosan LTS" style="text;strokeColor=none;fillColor=none;align=left;verticalAlign=top;spacingLeft=4;spacingRight=4;overflow=hidden;rotatable=0;points=[[0,0.5],[1,0.5]];portConstraint=eastwest;" parent="vLKh6WIY8xhP1FfqxqWf-21" vertex="1">
          <mxGeometry y="26" width="240" height="26" as="geometry" />
        </mxCell>
        <mxCell id="vLKh6WIY8xhP1FfqxqWf-23" value="CrÃ©dito" style="swimlane;fontStyle=0;childLayout=stackLayout;horizontal=1;startSize=26;fillColor=none;horizontalStack=0;resizeParent=1;resizeParentMax=0;resizeLast=0;collapsible=1;marginBottom=0;align=center;" parent="vLKh6WIY8xhP1FfqxqWf-0" vertex="1">
          <mxGeometry x="160" y="170" width="70" height="52" as="geometry" />
        </mxCell>
        <mxCell id="vLKh6WIY8xhP1FfqxqWf-24" value="00001265" style="text;strokeColor=none;fillColor=none;align=left;verticalAlign=top;spacingLeft=4;spacingRight=4;overflow=hidden;rotatable=0;points=[[0,0.5],[1,0.5]];portConstraint=eastwest;" parent="vLKh6WIY8xhP1FfqxqWf-23" vertex="1">
          <mxGeometry y="26" width="70" height="26" as="geometry" />
        </mxCell>
        <mxCell id="vLKh6WIY8xhP1FfqxqWf-3" value="" style="strokeWidth=1;shadow=0;dashed=0;align=center;html=1;shape=mxgraph.mockup.containers.rrect;rSize=0;strokeColor=#666666;" parent="vLKh6WIY8xhP1FfqxqWf-0" vertex="1">
          <mxGeometry y="110" width="130" height="370" as="geometry" />
        </mxCell>
        <mxCell id="vLKh6WIY8xhP1FfqxqWf-4" value="Solicitud de &lt;br&gt;insumos" style="strokeColor=inherit;fillColor=inherit;gradientColor=inherit;strokeWidth=1;shadow=0;dashed=0;align=center;html=1;shape=mxgraph.mockup.containers.rrect;rSize=0;fontSize=17;fontColor=#666666;fontStyle=1;resizeWidth=1;" parent="vLKh6WIY8xhP1FfqxqWf-3" vertex="1">
          <mxGeometry width="130" height="50" relative="1" as="geometry">
            <mxPoint y="105" as="offset" />
          </mxGeometry>
        </mxCell>
        <mxCell id="vLKh6WIY8xhP1FfqxqWf-5" value="Otros..." style="strokeColor=inherit;fillColor=inherit;gradientColor=inherit;strokeWidth=1;shadow=0;dashed=0;align=center;html=1;shape=mxgraph.mockup.containers.rrect;rSize=0;fontSize=17;fontColor=#666666;fontStyle=1;resizeWidth=1;" parent="vLKh6WIY8xhP1FfqxqWf-3" vertex="1">
          <mxGeometry y="1" width="130" height="26" relative="1" as="geometry">
            <mxPoint y="-215" as="offset" />
          </mxGeometry>
        </mxCell>
        <mxCell id="vLKh6WIY8xhP1FfqxqWf-6" value="" style="verticalLabelPosition=bottom;shadow=0;dashed=0;align=center;html=1;verticalAlign=top;strokeWidth=1;shape=mxgraph.mockup.graphics.simpleIcon;strokeColor=#999999;" parent="vLKh6WIY8xhP1FfqxqWf-0" vertex="1">
          <mxGeometry y="110" width="130" height="110" as="geometry" />
        </mxCell>
        <UserObject label="volver" link="data:page/id,7zwMk-7BACqUsPq9tSAO" id="vLKh6WIY8xhP1FfqxqWf-26">
          <mxCell style="rounded=1;fillColor=#0057D8;align=center;strokeColor=none;html=1;fontColor=#ffffff;fontSize=12" parent="vLKh6WIY8xhP1FfqxqWf-0" vertex="1">
            <mxGeometry x="394" y="430" width="86" height="33" as="geometry" />
          </mxCell>
        </UserObject>
        <mxCell id="vLKh6WIY8xhP1FfqxqWf-27" value="&lt;h1&gt;Solicitud de insumos SOEI0001&lt;/h1&gt;" style="text;html=1;strokeColor=none;fillColor=none;spacing=5;spacingTop=-20;whiteSpace=wrap;overflow=hidden;rounded=0;align=center;" parent="vLKh6WIY8xhP1FfqxqWf-0" vertex="1">
          <mxGeometry x="252" y="130" width="370" height="40" as="geometry" />
        </mxCell>
        <mxCell id="vLKh6WIY8xhP1FfqxqWf-28" value="Finca" style="swimlane;fontStyle=0;childLayout=stackLayout;horizontal=1;startSize=26;fillColor=none;horizontalStack=0;resizeParent=1;resizeParentMax=0;resizeLast=0;collapsible=1;marginBottom=0;align=center;" parent="vylFYC_0QnrU-7aGmqL_-1" vertex="1">
          <mxGeometry x="590" y="190" width="60" height="52" as="geometry" />
        </mxCell>
        <mxCell id="vLKh6WIY8xhP1FfqxqWf-29" value="014" style="text;strokeColor=none;fillColor=none;align=left;verticalAlign=top;spacingLeft=4;spacingRight=4;overflow=hidden;rotatable=0;points=[[0,0.5],[1,0.5]];portConstraint=eastwest;" parent="vLKh6WIY8xhP1FfqxqWf-28" vertex="1">
          <mxGeometry y="26" width="60" height="26" as="geometry" />
        </mxCell>
        <mxCell id="vLKh6WIY8xhP1FfqxqWf-30" value="Lote" style="swimlane;fontStyle=0;childLayout=stackLayout;horizontal=1;startSize=26;fillColor=none;horizontalStack=0;resizeParent=1;resizeParentMax=0;resizeLast=0;collapsible=1;marginBottom=0;align=center;" parent="vylFYC_0QnrU-7aGmqL_-1" vertex="1">
          <mxGeometry x="650" y="190" width="60" height="52" as="geometry" />
        </mxCell>
        <mxCell id="vLKh6WIY8xhP1FfqxqWf-31" value="1" style="text;strokeColor=none;fillColor=none;align=left;verticalAlign=top;spacingLeft=4;spacingRight=4;overflow=hidden;rotatable=0;points=[[0,0.5],[1,0.5]];portConstraint=eastwest;" parent="vLKh6WIY8xhP1FfqxqWf-30" vertex="1">
          <mxGeometry y="26" width="60" height="26" as="geometry" />
        </mxCell>
      </root>
    </mxGraphModel>
  </diagram>
  <diagram id="SeyLVEOmgzdLoLSbZBI_" name="Tec - Page-5">
    <mxGraphModel dx="828" dy="492" grid="1" gridSize="10" guides="1" tooltips="1" connect="1" arrows="1" fold="1" page="1" pageScale="1" pageWidth="827" pageHeight="1169" math="0" shadow="0">
      <root>
        <mxCell id="zMgso4sbhJCzVIcZ0P-h-0" />
        <mxCell id="zMgso4sbhJCzVIcZ0P-h-1" parent="zMgso4sbhJCzVIcZ0P-h-0" />
        <mxCell id="c3grG89nCMN4CoNFCygQ-0" value="Criterio abierto de bÃºsqueda solo entre los productores asociados al tÃ©cnico en cuestiÃ³n, ordenado por fecha de solicitud (descendente)." style="shape=note;strokeWidth=2;fontSize=14;size=20;whiteSpace=wrap;html=1;fillColor=#fff2cc;strokeColor=#d6b656;fontColor=#666600;align=center;" parent="zMgso4sbhJCzVIcZ0P-h-1" vertex="1">
          <mxGeometry x="737" y="120" width="270" height="100" as="geometry" />
        </mxCell>
        <mxCell id="2dOocxHEbkE4mMgfvIn6-0" value="" style="strokeWidth=1;shadow=0;dashed=0;align=center;html=1;shape=mxgraph.mockup.containers.browserWindow;rSize=0;strokeColor=#666666;strokeColor2=#008cff;strokeColor3=#c4c4c4;mainText=,;recursiveResize=0;" vertex="1" parent="zMgso4sbhJCzVIcZ0P-h-1">
          <mxGeometry x="40" y="20" width="844" height="480" as="geometry" />
        </mxCell>
        <mxCell id="2dOocxHEbkE4mMgfvIn6-1" value="Siembra" style="strokeWidth=1;shadow=0;dashed=0;align=center;html=1;shape=mxgraph.mockup.containers.anchor;fontSize=17;fontColor=#666666;align=left;" vertex="1" parent="2dOocxHEbkE4mMgfvIn6-0">
          <mxGeometry x="60" y="12" width="110" height="26" as="geometry" />
        </mxCell>
        <mxCell id="2dOocxHEbkE4mMgfvIn6-2" value="https://siembra.asoportuguesa.org" style="strokeWidth=1;shadow=0;dashed=0;align=center;html=1;shape=mxgraph.mockup.containers.anchor;rSize=0;fontSize=17;fontColor=#666666;align=left;" vertex="1" parent="2dOocxHEbkE4mMgfvIn6-0">
          <mxGeometry x="130" y="60" width="250" height="26" as="geometry" />
        </mxCell>
        <mxCell id="2dOocxHEbkE4mMgfvIn6-3" value="" style="strokeWidth=1;shadow=0;dashed=0;align=center;html=1;shape=mxgraph.mockup.containers.rrect;rSize=0;strokeColor=#666666;" vertex="1" parent="2dOocxHEbkE4mMgfvIn6-0">
          <mxGeometry y="110" width="130" height="370" as="geometry" />
        </mxCell>
        <mxCell id="2dOocxHEbkE4mMgfvIn6-4" value="Solicitud de &lt;br&gt;insumos" style="strokeColor=inherit;fillColor=inherit;gradientColor=inherit;strokeWidth=1;shadow=0;dashed=0;align=center;html=1;shape=mxgraph.mockup.containers.rrect;rSize=0;fontSize=17;fontColor=#666666;fontStyle=1;resizeWidth=1;" vertex="1" parent="2dOocxHEbkE4mMgfvIn6-3">
          <mxGeometry width="130" height="50" relative="1" as="geometry">
            <mxPoint y="105" as="offset" />
          </mxGeometry>
        </mxCell>
        <mxCell id="2dOocxHEbkE4mMgfvIn6-5" value="Otros..." style="strokeColor=inherit;fillColor=inherit;gradientColor=inherit;strokeWidth=1;shadow=0;dashed=0;align=center;html=1;shape=mxgraph.mockup.containers.rrect;rSize=0;fontSize=17;fontColor=#666666;fontStyle=1;resizeWidth=1;" vertex="1" parent="2dOocxHEbkE4mMgfvIn6-3">
          <mxGeometry y="1" width="130" height="26" relative="1" as="geometry">
            <mxPoint y="-215" as="offset" />
          </mxGeometry>
        </mxCell>
        <mxCell id="2dOocxHEbkE4mMgfvIn6-6" value="" style="verticalLabelPosition=bottom;shadow=0;dashed=0;align=center;html=1;verticalAlign=top;strokeWidth=1;shape=mxgraph.mockup.graphics.simpleIcon;strokeColor=#999999;" vertex="1" parent="2dOocxHEbkE4mMgfvIn6-0">
          <mxGeometry y="110" width="130" height="110" as="geometry" />
        </mxCell>
        <UserObject label="Jua" id="2dOocxHEbkE4mMgfvIn6-7">
          <mxCell style="strokeWidth=1;shadow=0;dashed=0;align=center;html=1;shape=mxgraph.mockup.forms.comboBox;strokeColor=#999999;fillColor=#ddeeff;align=left;fillColor2=#aaddff;mainText=;fontColor=#666666;fontSize=17;spacingLeft=3;" vertex="1" parent="2dOocxHEbkE4mMgfvIn6-0">
            <mxGeometry x="190" y="210" width="150" height="30" as="geometry" />
          </mxCell>
        </UserObject>
        <mxCell id="2dOocxHEbkE4mMgfvIn6-8" value="Option 1" style="strokeWidth=1;shadow=0;dashed=0;align=center;html=1;shape=mxgraph.mockup.forms.comboBox;strokeColor=#999999;fillColor=#ddeeff;align=left;fillColor2=#aaddff;mainText=;fontColor=#666666;fontSize=17;spacingLeft=3;" vertex="1" parent="2dOocxHEbkE4mMgfvIn6-0">
          <mxGeometry x="190" y="260" width="470" height="30" as="geometry" />
        </mxCell>
        <mxCell id="2dOocxHEbkE4mMgfvIn6-9" value="&lt;table cellpadding=&quot;0&quot; cellspacing=&quot;0&quot; style=&quot;width:100%;height:100%;&quot;&gt;&lt;tr&gt;&lt;td style=&quot;width:85%&quot;&gt;100&lt;/td&gt;&lt;td style=&quot;width:15%&quot;&gt;&lt;/td&gt;&lt;/tr&gt;&lt;/table&gt;" style="strokeWidth=1;shadow=0;dashed=0;align=center;html=1;shape=mxgraph.mockup.forms.spinner;strokeColor=#999999;spinLayout=right;spinStyle=normal;adjStyle=triangle;fillColor=#aaddff;fontSize=17;fontColor=#666666;mainText=;html=1;overflow=fill;" vertex="1" parent="2dOocxHEbkE4mMgfvIn6-0">
          <mxGeometry x="190" y="310" width="120" height="30" as="geometry" />
        </mxCell>
        <UserObject label="CrÃ©dito" placeholders="1" name="Variable" id="2dOocxHEbkE4mMgfvIn6-10">
          <mxCell style="text;html=1;strokeColor=none;fillColor=none;align=left;verticalAlign=middle;whiteSpace=wrap;overflow=hidden;" vertex="1" parent="2dOocxHEbkE4mMgfvIn6-0">
            <mxGeometry x="190" y="190" width="80" height="20" as="geometry" />
          </mxCell>
        </UserObject>
        <mxCell id="2dOocxHEbkE4mMgfvIn6-11" value="Option 1" style="strokeWidth=1;shadow=0;dashed=0;align=center;html=1;shape=mxgraph.mockup.forms.comboBox;strokeColor=#999999;fillColor=#ddeeff;align=left;fillColor2=#aaddff;mainText=;fontColor=#666666;fontSize=17;spacingLeft=3;" vertex="1" parent="2dOocxHEbkE4mMgfvIn6-0">
          <mxGeometry x="350" y="210" width="150" height="30" as="geometry" />
        </mxCell>
        <UserObject label="Finca" placeholders="1" name="Variable" id="2dOocxHEbkE4mMgfvIn6-12">
          <mxCell style="text;html=1;strokeColor=none;fillColor=none;align=left;verticalAlign=middle;whiteSpace=wrap;overflow=hidden;" vertex="1" parent="2dOocxHEbkE4mMgfvIn6-0">
            <mxGeometry x="350" y="190" width="80" height="20" as="geometry" />
          </mxCell>
        </UserObject>
        <mxCell id="2dOocxHEbkE4mMgfvIn6-13" value="Option 1" style="strokeWidth=1;shadow=0;dashed=0;align=center;html=1;shape=mxgraph.mockup.forms.comboBox;strokeColor=#999999;fillColor=#ddeeff;align=left;fillColor2=#aaddff;mainText=;fontColor=#666666;fontSize=17;spacingLeft=3;" vertex="1" parent="2dOocxHEbkE4mMgfvIn6-0">
          <mxGeometry x="510" y="210" width="150" height="30" as="geometry" />
        </mxCell>
        <UserObject label="Lote" placeholders="1" name="Variable" id="2dOocxHEbkE4mMgfvIn6-14">
          <mxCell style="text;html=1;strokeColor=none;fillColor=none;align=left;verticalAlign=middle;whiteSpace=wrap;overflow=hidden;" vertex="1" parent="2dOocxHEbkE4mMgfvIn6-0">
            <mxGeometry x="510" y="190" width="80" height="20" as="geometry" />
          </mxCell>
        </UserObject>
        <UserObject label="Producto" placeholders="1" name="Variable" id="2dOocxHEbkE4mMgfvIn6-15">
          <mxCell style="text;html=1;strokeColor=none;fillColor=none;align=left;verticalAlign=middle;whiteSpace=wrap;overflow=hidden;" vertex="1" parent="2dOocxHEbkE4mMgfvIn6-0">
            <mxGeometry x="190" y="240" width="80" height="20" as="geometry" />
          </mxCell>
        </UserObject>
        <UserObject label="Cantidad" placeholders="1" name="Variable" id="2dOocxHEbkE4mMgfvIn6-16">
          <mxCell style="text;html=1;strokeColor=none;fillColor=none;align=left;verticalAlign=middle;whiteSpace=wrap;overflow=hidden;" vertex="1" parent="2dOocxHEbkE4mMgfvIn6-0">
            <mxGeometry x="190" y="290" width="80" height="20" as="geometry" />
          </mxCell>
        </UserObject>
        <mxCell id="2dOocxHEbkE4mMgfvIn6-17" value="" style="swimlane;fontStyle=0;childLayout=stackLayout;horizontal=1;startSize=26;fillColor=none;horizontalStack=0;resizeParent=1;resizeParentMax=0;resizeLast=0;collapsible=1;marginBottom=0;align=center;" vertex="1" parent="2dOocxHEbkE4mMgfvIn6-0">
          <mxGeometry x="680" y="360" width="53.33" height="50" as="geometry" />
        </mxCell>
        <mxCell id="2dOocxHEbkE4mMgfvIn6-18" value="" style="shape=image;html=1;verticalAlign=top;verticalLabelPosition=bottom;labelBackgroundColor=#ffffff;imageAspect=0;aspect=fixed;image=https://cdn4.iconfinder.com/data/icons/icocentre-free-icons/114/f-cross_256-128.png;align=center;" vertex="1" parent="2dOocxHEbkE4mMgfvIn6-17">
          <mxGeometry y="26" width="53.33" height="24" as="geometry" />
        </mxCell>
        <mxCell id="2dOocxHEbkE4mMgfvIn6-19" value="Cantidad" style="swimlane;fontStyle=0;childLayout=stackLayout;horizontal=1;startSize=26;fillColor=none;horizontalStack=0;resizeParent=1;resizeParentMax=0;resizeLast=0;collapsible=1;marginBottom=0;align=center;" vertex="1" parent="2dOocxHEbkE4mMgfvIn6-0">
          <mxGeometry x="480" y="360" width="80" height="52" as="geometry" />
        </mxCell>
        <mxCell id="2dOocxHEbkE4mMgfvIn6-20" value="10000" style="text;strokeColor=none;fillColor=none;align=left;verticalAlign=top;spacingLeft=4;spacingRight=4;overflow=hidden;rotatable=0;points=[[0,0.5],[1,0.5]];portConstraint=eastwest;" vertex="1" parent="2dOocxHEbkE4mMgfvIn6-19">
          <mxGeometry y="26" width="80" height="26" as="geometry" />
        </mxCell>
        <mxCell id="2dOocxHEbkE4mMgfvIn6-21" value="Producto" style="swimlane;fontStyle=0;childLayout=stackLayout;horizontal=1;startSize=26;fillColor=none;horizontalStack=0;resizeParent=1;resizeParentMax=0;resizeLast=0;collapsible=1;marginBottom=0;align=center;" vertex="1" parent="2dOocxHEbkE4mMgfvIn6-0">
          <mxGeometry x="240" y="360" width="240" height="52" as="geometry" />
        </mxCell>
        <mxCell id="2dOocxHEbkE4mMgfvIn6-22" value="Glyfosan LTS" style="text;strokeColor=none;fillColor=none;align=left;verticalAlign=top;spacingLeft=4;spacingRight=4;overflow=hidden;rotatable=0;points=[[0,0.5],[1,0.5]];portConstraint=eastwest;" vertex="1" parent="2dOocxHEbkE4mMgfvIn6-21">
          <mxGeometry y="26" width="240" height="26" as="geometry" />
        </mxCell>
        <mxCell id="2dOocxHEbkE4mMgfvIn6-23" value="CrÃ©dito" style="swimlane;fontStyle=0;childLayout=stackLayout;horizontal=1;startSize=26;fillColor=none;horizontalStack=0;resizeParent=1;resizeParentMax=0;resizeLast=0;collapsible=1;marginBottom=0;align=center;" vertex="1" parent="2dOocxHEbkE4mMgfvIn6-0">
          <mxGeometry x="170" y="360" width="70" height="52" as="geometry" />
        </mxCell>
        <mxCell id="2dOocxHEbkE4mMgfvIn6-24" value="00001265" style="text;strokeColor=none;fillColor=none;align=left;verticalAlign=top;spacingLeft=4;spacingRight=4;overflow=hidden;rotatable=0;points=[[0,0.5],[1,0.5]];portConstraint=eastwest;" vertex="1" parent="2dOocxHEbkE4mMgfvIn6-23">
          <mxGeometry y="26" width="70" height="26" as="geometry" />
        </mxCell>
        <mxCell id="2dOocxHEbkE4mMgfvIn6-25" value="Agregar" style="rounded=1;fillColor=#0057D8;align=center;strokeColor=none;html=1;fontColor=#ffffff;fontSize=12" vertex="1" parent="2dOocxHEbkE4mMgfvIn6-0">
          <mxGeometry x="574" y="308.5" width="86" height="33" as="geometry" />
        </mxCell>
        <UserObject label="Enviar pedido" id="2dOocxHEbkE4mMgfvIn6-26">
          <mxCell style="rounded=1;fillColor=#0057D8;align=center;strokeColor=none;html=1;fontColor=#ffffff;fontSize=12" vertex="1" parent="2dOocxHEbkE4mMgfvIn6-0">
            <mxGeometry x="394" y="430" width="86" height="33" as="geometry" />
          </mxCell>
        </UserObject>
        <mxCell id="2dOocxHEbkE4mMgfvIn6-34" value="" style="rounded=0;whiteSpace=wrap;html=1;" vertex="1" parent="2dOocxHEbkE4mMgfvIn6-0">
          <mxGeometry x="195" y="240" width="225" height="200" as="geometry" />
        </mxCell>
        <mxCell id="2dOocxHEbkE4mMgfvIn6-35" value="Juan Honorio&amp;nbsp; &amp;nbsp; &amp;nbsp; Maiz Inv 2020 02893&lt;span style=&quot;color: rgba(0 , 0 , 0 , 0) ; font-family: monospace ; font-size: 0px&quot;&gt;%3CmxGraphModel%3E%3Croot%3E%3CmxCell%20id%3D%220%22%2F%3E%3CmxCell%20id%3D%221%22%20parent%3D%220%22%2F%3E%3CmxCell%20id%3D%222%22%20value%3D%22%22%20style%3D%22strokeWidth%3D1%3Bshadow%3D0%3Bdashed%3D0%3Balign%3Dcenter%3Bhtml%3D1%3Bshape%3Dmxgraph.mockup.containers.browserWindow%3BrSize%3D0%3BstrokeColor%3D%23666666%3BstrokeColor2%3D%23008cff%3BstrokeColor3%3D%23c4c4c4%3BmainText%3D%2C%3BrecursiveResize%3D0%3B%22%20vertex%3D%221%22%20parent%3D%221%22%3E%3CmxGeometry%20x%3D%2240%22%20y%3D%2220%22%20width%3D%22844%22%20height%3D%22480%22%20as%3D%22geometry%22%2F%3E%3C%2FmxCell%3E%3CmxCell%20id%3D%223%22%20value%3D%22Siembra%22%20style%3D%22strokeWidth%3D1%3Bshadow%3D0%3Bdashed%3D0%3Balign%3Dcenter%3Bhtml%3D1%3Bshape%3Dmxgraph.mockup.containers.anchor%3BfontSize%3D17%3BfontColor%3D%23666666%3Balign%3Dleft%3B%22%20vertex%3D%221%22%20parent%3D%222%22%3E%3CmxGeometry%20x%3D%2260%22%20y%3D%2212%22%20width%3D%22110%22%20height%3D%2226%22%20as%3D%22geometry%22%2F%3E%3C%2FmxCell%3E%3CmxCell%20id%3D%224%22%20value%3D%22https%3A%2F%2Fsiembra.asoportuguesa.org%22%20style%3D%22strokeWidth%3D1%3Bshadow%3D0%3Bdashed%3D0%3Balign%3Dcenter%3Bhtml%3D1%3Bshape%3Dmxgraph.mockup.containers.anchor%3BrSize%3D0%3BfontSize%3D17%3BfontColor%3D%23666666%3Balign%3Dleft%3B%22%20vertex%3D%221%22%20parent%3D%222%22%3E%3CmxGeometry%20x%3D%22130%22%20y%3D%2260%22%20width%3D%22250%22%20height%3D%2226%22%20as%3D%22geometry%22%2F%3E%3C%2FmxCell%3E%3CmxCell%20id%3D%225%22%20value%3D%22%22%20style%3D%22strokeWidth%3D1%3Bshadow%3D0%3Bdashed%3D0%3Balign%3Dcenter%3Bhtml%3D1%3Bshape%3Dmxgraph.mockup.containers.rrect%3BrSize%3D0%3BstrokeColor%3D%23666666%3B%22%20vertex%3D%221%22%20parent%3D%222%22%3E%3CmxGeometry%20y%3D%22110%22%20width%3D%22130%22%20height%3D%22370%22%20as%3D%22geometry%22%2F%3E%3C%2FmxCell%3E%3CmxCell%20id%3D%226%22%20value%3D%22Solicitud%20de%20%26lt%3Bbr%26gt%3Binsumos%22%20style%3D%22strokeColor%3Dinherit%3BfillColor%3Dinherit%3BgradientColor%3Dinherit%3BstrokeWidth%3D1%3Bshadow%3D0%3Bdashed%3D0%3Balign%3Dcenter%3Bhtml%3D1%3Bshape%3Dmxgraph.mockup.containers.rrect%3BrSize%3D0%3BfontSize%3D17%3BfontColor%3D%23666666%3BfontStyle%3D1%3BresizeWidth%3D1%3B%22%20vertex%3D%221%22%20parent%3D%225%22%3E%3CmxGeometry%20width%3D%22130%22%20height%3D%2250%22%20relative%3D%221%22%20as%3D%22geometry%22%3E%3CmxPoint%20y%3D%22105%22%20as%3D%22offset%22%2F%3E%3C%2FmxGeometry%3E%3C%2FmxCell%3E%3CmxCell%20id%3D%227%22%20value%3D%22Otros...%22%20style%3D%22strokeColor%3Dinherit%3BfillColor%3Dinherit%3BgradientColor%3Dinherit%3BstrokeWidth%3D1%3Bshadow%3D0%3Bdashed%3D0%3Balign%3Dcenter%3Bhtml%3D1%3Bshape%3Dmxgraph.mockup.containers.rrect%3BrSize%3D0%3BfontSize%3D17%3BfontColor%3D%23666666%3BfontStyle%3D1%3BresizeWidth%3D1%3B%22%20vertex%3D%221%22%20parent%3D%225%22%3E%3CmxGeometry%20y%3D%221%22%20width%3D%22130%22%20height%3D%2226%22%20relative%3D%221%22%20as%3D%22geometry%22%3E%3CmxPoint%20y%3D%22-215%22%20as%3D%22offset%22%2F%3E%3C%2FmxGeometry%3E%3C%2FmxCell%3E%3CmxCell%20id%3D%228%22%20value%3D%22%22%20style%3D%22verticalLabelPosition%3Dbottom%3Bshadow%3D0%3Bdashed%3D0%3Balign%3Dcenter%3Bhtml%3D1%3BverticalAlign%3Dtop%3BstrokeWidth%3D1%3Bshape%3Dmxgraph.mockup.graphics.simpleIcon%3BstrokeColor%3D%23999999%3B%22%20vertex%3D%221%22%20parent%3D%222%22%3E%3CmxGeometry%20y%3D%22110%22%20width%3D%22130%22%20height%3D%22110%22%20as%3D%22geometry%22%2F%3E%3C%2FmxCell%3E%3CUserObject%20label%3D%22Option%201%22%20link%3D%22data%3Apage%2Fid%2CSeyLVEOmgzdLoLSbZBI_%22%20id%3D%229%22%3E%3CmxCell%20style%3D%22strokeWidth%3D1%3Bshadow%3D0%3Bdashed%3D0%3Balign%3Dcenter%3Bhtml%3D1%3Bshape%3Dmxgraph.mockup.forms.comboBox%3BstrokeColor%3D%23999999%3BfillColor%3D%23ddeeff%3Balign%3Dleft%3BfillColor2%3D%23aaddff%3BmainText%3D%3BfontColor%3D%23666666%3BfontSize%3D17%3BspacingLeft%3D3%3B%22%20vertex%3D%221%22%20parent%3D%222%22%3E%3CmxGeometry%20x%3D%22190%22%20y%3D%22210%22%20width%3D%22150%22%20height%3D%2230%22%20as%3D%22geometry%22%2F%3E%3C%2FmxCell%3E%3C%2FUserObject%3E%3CmxCell%20id%3D%2210%22%20value%3D%22Option%201%22%20style%3D%22strokeWidth%3D1%3Bshadow%3D0%3Bdashed%3D0%3Balign%3Dcenter%3Bhtml%3D1%3Bshape%3Dmxgraph.mockup.forms.comboBox%3BstrokeColor%3D%23999999%3BfillColor%3D%23ddeeff%3Balign%3Dleft%3BfillColor2%3D%23aaddff%3BmainText%3D%3BfontColor%3D%23666666%3BfontSize%3D17%3BspacingLeft%3D3%3B%22%20vertex%3D%221%22%20parent%3D%222%22%3E%3CmxGeometry%20x%3D%22190%22%20y%3D%22260%22%20width%3D%22470%22%20height%3D%2230%22%20as%3D%22geometry%22%2F%3E%3C%2FmxCell%3E%3CmxCell%20id%3D%2211%22%20value%3D%22%26lt%3Btable%20cellpadding%3D%26quot%3B0%26quot%3B%20cellspacing%3D%26quot%3B0%26quot%3B%20style%3D%26quot%3Bwidth%3A100%25%3Bheight%3A100%25%3B%26quot%3B%26gt%3B%26lt%3Btr%26gt%3B%26lt%3Btd%20style%3D%26quot%3Bwidth%3A85%25%26quot%3B%26gt%3B100%26lt%3B%2Ftd%26gt%3B%26lt%3Btd%20style%3D%26quot%3Bwidth%3A15%25%26quot%3B%26gt%3B%26lt%3B%2Ftd%26gt%3B%26lt%3B%2Ftr%26gt%3B%26lt%3B%2Ftable%26gt%3B%22%20style%3D%22strokeWidth%3D1%3Bshadow%3D0%3Bdashed%3D0%3Balign%3Dcenter%3Bhtml%3D1%3Bshape%3Dmxgraph.mockup.forms.spinner%3BstrokeColor%3D%23999999%3BspinLayout%3Dright%3BspinStyle%3Dnormal%3BadjStyle%3Dtriangle%3BfillColor%3D%23aaddff%3BfontSize%3D17%3BfontColor%3D%23666666%3BmainText%3D%3Bhtml%3D1%3Boverflow%3Dfill%3B%22%20vertex%3D%221%22%20parent%3D%222%22%3E%3CmxGeometry%20x%3D%22190%22%20y%3D%22310%22%20width%3D%22120%22%20height%3D%2230%22%20as%3D%22geometry%22%2F%3E%3C%2FmxCell%3E%3CUserObject%20label%3D%22Cr%C3%A9dito%22%20placeholders%3D%221%22%20name%3D%22Variable%22%20id%3D%2212%22%3E%3CmxCell%20style%3D%22text%3Bhtml%3D1%3BstrokeColor%3Dnone%3BfillColor%3Dnone%3Balign%3Dleft%3BverticalAlign%3Dmiddle%3BwhiteSpace%3Dwrap%3Boverflow%3Dhidden%3B%22%20vertex%3D%221%22%20parent%3D%222%22%3E%3CmxGeometry%20x%3D%22190%22%20y%3D%22190%22%20width%3D%2280%22%20height%3D%2220%22%20as%3D%22geometry%22%2F%3E%3C%2FmxCell%3E%3C%2FUserObject%3E%3CmxCell%20id%3D%2213%22%20value%3D%22Option%201%22%20style%3D%22strokeWidth%3D1%3Bshadow%3D0%3Bdashed%3D0%3Balign%3Dcenter%3Bhtml%3D1%3Bshape%3Dmxgraph.mockup.forms.comboBox%3BstrokeColor%3D%23999999%3BfillColor%3D%23ddeeff%3Balign%3Dleft%3BfillColor2%3D%23aaddff%3BmainText%3D%3BfontColor%3D%23666666%3BfontSize%3D17%3BspacingLeft%3D3%3B%22%20vertex%3D%221%22%20parent%3D%222%22%3E%3CmxGeometry%20x%3D%22350%22%20y%3D%22210%22%20width%3D%22150%22%20height%3D%2230%22%20as%3D%22geometry%22%2F%3E%3C%2FmxCell%3E%3CUserObject%20label%3D%22Finca%22%20placeholders%3D%221%22%20name%3D%22Variable%22%20id%3D%2214%22%3E%3CmxCell%20style%3D%22text%3Bhtml%3D1%3BstrokeColor%3Dnone%3BfillColor%3Dnone%3Balign%3Dleft%3BverticalAlign%3Dmiddle%3BwhiteSpace%3Dwrap%3Boverflow%3Dhidden%3B%22%20vertex%3D%221%22%20parent%3D%222%22%3E%3CmxGeometry%20x%3D%22350%22%20y%3D%22190%22%20width%3D%2280%22%20height%3D%2220%22%20as%3D%22geometry%22%2F%3E%3C%2FmxCell%3E%3C%2FUserObject%3E%3CmxCell%20id%3D%2215%22%20value%3D%22Option%201%22%20style%3D%22strokeWidth%3D1%3Bshadow%3D0%3Bdashed%3D0%3Balign%3Dcenter%3Bhtml%3D1%3Bshape%3Dmxgraph.mockup.forms.comboBox%3BstrokeColor%3D%23999999%3BfillColor%3D%23ddeeff%3Balign%3Dleft%3BfillColor2%3D%23aaddff%3BmainText%3D%3BfontColor%3D%23666666%3BfontSize%3D17%3BspacingLeft%3D3%3B%22%20vertex%3D%221%22%20parent%3D%222%22%3E%3CmxGeometry%20x%3D%22510%22%20y%3D%22210%22%20width%3D%22150%22%20height%3D%2230%22%20as%3D%22geometry%22%2F%3E%3C%2FmxCell%3E%3CUserObject%20label%3D%22Lote%22%20placeholders%3D%221%22%20name%3D%22Variable%22%20id%3D%2216%22%3E%3CmxCell%20style%3D%22text%3Bhtml%3D1%3BstrokeColor%3Dnone%3BfillColor%3Dnone%3Balign%3Dleft%3BverticalAlign%3Dmiddle%3BwhiteSpace%3Dwrap%3Boverflow%3Dhidden%3B%22%20vertex%3D%221%22%20parent%3D%222%22%3E%3CmxGeometry%20x%3D%22510%22%20y%3D%22190%22%20width%3D%2280%22%20height%3D%2220%22%20as%3D%22geometry%22%2F%3E%3C%2FmxCell%3E%3C%2FUserObject%3E%3CUserObject%20label%3D%22Producto%22%20placeholders%3D%221%22%20name%3D%22Variable%22%20id%3D%2217%22%3E%3CmxCell%20style%3D%22text%3Bhtml%3D1%3BstrokeColor%3Dnone%3BfillColor%3Dnone%3Balign%3Dleft%3BverticalAlign%3Dmiddle%3BwhiteSpace%3Dwrap%3Boverflow%3Dhidden%3B%22%20vertex%3D%221%22%20parent%3D%222%22%3E%3CmxGeometry%20x%3D%22190%22%20y%3D%22240%22%20width%3D%2280%22%20height%3D%2220%22%20as%3D%22geometry%22%2F%3E%3C%2FmxCell%3E%3C%2FUserObject%3E%3CUserObject%20label%3D%22Cantidad%22%20placeholders%3D%221%22%20name%3D%22Variable%22%20id%3D%2218%22%3E%3CmxCell%20style%3D%22text%3Bhtml%3D1%3BstrokeColor%3Dnone%3BfillColor%3Dnone%3Balign%3Dleft%3BverticalAlign%3Dmiddle%3BwhiteSpace%3Dwrap%3Boverflow%3Dhidden%3B%22%20vertex%3D%221%22%20parent%3D%222%22%3E%3CmxGeometry%20x%3D%22190%22%20y%3D%22290%22%20width%3D%2280%22%20height%3D%2220%22%20as%3D%22geometry%22%2F%3E%3C%2FmxCell%3E%3C%2FUserObject%3E%3CmxCell%20id%3D%2219%22%20value%3D%22%22%20style%3D%22swimlane%3BfontStyle%3D0%3BchildLayout%3DstackLayout%3Bhorizontal%3D1%3BstartSize%3D26%3BfillColor%3Dnone%3BhorizontalStack%3D0%3BresizeParent%3D1%3BresizeParentMax%3D0%3BresizeLast%3D0%3Bcollapsible%3D1%3BmarginBottom%3D0%3Balign%3Dcenter%3B%22%20vertex%3D%221%22%20parent%3D%222%22%3E%3CmxGeometry%20x%3D%22680%22%20y%3D%22360%22%20width%3D%2253.33%22%20height%3D%2250%22%20as%3D%22geometry%22%2F%3E%3C%2FmxCell%3E%3CmxCell%20id%3D%2220%22%20value%3D%22%22%20style%3D%22shape%3Dimage%3Bhtml%3D1%3BverticalAlign%3Dtop%3BverticalLabelPosition%3Dbottom%3BlabelBackgroundColor%3D%23ffffff%3BimageAspect%3D0%3Baspect%3Dfixed%3Bimage%3Dhttps%3A%2F%2Fcdn4.iconfinder.com%2Fdata%2Ficons%2Ficocentre-free-icons%2F114%2Ff-cross_256-128.png%3Balign%3Dcenter%3B%22%20vertex%3D%221%22%20parent%3D%2219%22%3E%3CmxGeometry%20y%3D%2226%22%20width%3D%2253.33%22%20height%3D%2224%22%20as%3D%22geometry%22%2F%3E%3C%2FmxCell%3E%3CmxCell%20id%3D%2221%22%20value%3D%22Cantidad%22%20style%3D%22swimlane%3BfontStyle%3D0%3BchildLayout%3DstackLayout%3Bhorizontal%3D1%3BstartSize%3D26%3BfillColor%3Dnone%3BhorizontalStack%3D0%3BresizeParent%3D1%3BresizeParentMax%3D0%3BresizeLast%3D0%3Bcollapsible%3D1%3BmarginBottom%3D0%3Balign%3Dcenter%3B%22%20vertex%3D%221%22%20parent%3D%222%22%3E%3CmxGeometry%20x%3D%22480%22%20y%3D%22360%22%20width%3D%2280%22%20height%3D%2252%22%20as%3D%22geometry%22%2F%3E%3C%2FmxCell%3E%3CmxCell%20id%3D%2222%22%20value%3D%2210000%22%20style%3D%22text%3BstrokeColor%3Dnone%3BfillColor%3Dnone%3Balign%3Dleft%3BverticalAlign%3Dtop%3BspacingLeft%3D4%3BspacingRight%3D4%3Boverflow%3Dhidden%3Brotatable%3D0%3Bpoints%3D%5B%5B0%2C0.5%5D%2C%5B1%2C0.5%5D%5D%3BportConstraint%3Deastwest%3B%22%20vertex%3D%221%22%20parent%3D%2221%22%3E%3CmxGeometry%20y%3D%2226%22%20width%3D%2280%22%20height%3D%2226%22%20as%3D%22geometry%22%2F%3E%3C%2FmxCell%3E%3CmxCell%20id%3D%2223%22%20value%3D%22Producto%22%20style%3D%22swimlane%3BfontStyle%3D0%3BchildLayout%3DstackLayout%3Bhorizontal%3D1%3BstartSize%3D26%3BfillColor%3Dnone%3BhorizontalStack%3D0%3BresizeParent%3D1%3BresizeParentMax%3D0%3BresizeLast%3D0%3Bcollapsible%3D1%3BmarginBottom%3D0%3Balign%3Dcenter%3B%22%20vertex%3D%221%22%20parent%3D%222%22%3E%3CmxGeometry%20x%3D%22240%22%20y%3D%22360%22%20width%3D%22240%22%20height%3D%2252%22%20as%3D%22geometry%22%2F%3E%3C%2FmxCell%3E%3CmxCell%20id%3D%2224%22%20value%3D%22Glyfosan%20LTS%22%20style%3D%22text%3BstrokeColor%3Dnone%3BfillColor%3Dnone%3Balign%3Dleft%3BverticalAlign%3Dtop%3BspacingLeft%3D4%3BspacingRight%3D4%3Boverflow%3Dhidden%3Brotatable%3D0%3Bpoints%3D%5B%5B0%2C0.5%5D%2C%5B1%2C0.5%5D%5D%3BportConstraint%3Deastwest%3B%22%20vertex%3D%221%22%20parent%3D%2223%22%3E%3CmxGeometry%20y%3D%2226%22%20width%3D%22240%22%20height%3D%2226%22%20as%3D%22geometry%22%2F%3E%3C%2FmxCell%3E%3CmxCell%20id%3D%2225%22%20value%3D%22Cr%C3%A9dito%22%20style%3D%22swimlane%3BfontStyle%3D0%3BchildLayout%3DstackLayout%3Bhorizontal%3D1%3BstartSize%3D26%3BfillColor%3Dnone%3BhorizontalStack%3D0%3BresizeParent%3D1%3BresizeParentMax%3D0%3BresizeLast%3D0%3Bcollapsible%3D1%3BmarginBottom%3D0%3Balign%3Dcenter%3B%22%20vertex%3D%221%22%20parent%3D%222%22%3E%3CmxGeometry%20x%3D%22170%22%20y%3D%22360%22%20width%3D%2270%22%20height%3D%2252%22%20as%3D%22geometry%22%2F%3E%3C%2FmxCell%3E%3CmxCell%20id%3D%2226%22%20value%3D%2200001265%22%20style%3D%22text%3BstrokeColor%3Dnone%3BfillColor%3Dnone%3Balign%3Dleft%3BverticalAlign%3Dtop%3BspacingLeft%3D4%3BspacingRight%3D4%3Boverflow%3Dhidden%3Brotatable%3D0%3Bpoints%3D%5B%5B0%2C0.5%5D%2C%5B1%2C0.5%5D%5D%3BportConstraint%3Deastwest%3B%22%20vertex%3D%221%22%20parent%3D%2225%22%3E%3CmxGeometry%20y%3D%2226%22%20width%3D%2270%22%20height%3D%2226%22%20as%3D%22geometry%22%2F%3E%3C%2FmxCell%3E%3CmxCell%20id%3D%2227%22%20value%3D%22Agregar%22%20style%3D%22rounded%3D1%3BfillColor%3D%230057D8%3Balign%3Dcenter%3BstrokeColor%3Dnone%3Bhtml%3D1%3BfontColor%3D%23ffffff%3BfontSize%3D12%22%20vertex%3D%221%22%20parent%3D%222%22%3E%3CmxGeometry%20x%3D%22574%22%20y%3D%22308.5%22%20width%3D%2286%22%20height%3D%2233%22%20as%3D%22geometry%22%2F%3E%3C%2FmxCell%3E%3CUserObject%20label%3D%22Enviar%20pedido%22%20link%3D%22data%3Apage%2Fid%2C7zwMk-7BACqUsPq9tSAO%22%20id%3D%2228%22%3E%3CmxCell%20style%3D%22rounded%3D1%3BfillColor%3D%230057D8%3Balign%3Dcenter%3BstrokeColor%3Dnone%3Bhtml%3D1%3BfontColor%3D%23ffffff%3BfontSize%3D12%22%20vertex%3D%221%22%20parent%3D%222%22%3E%3CmxGeometry%20x%3D%22394%22%20y%3D%22430%22%20width%3D%2286%22%20height%3D%2233%22%20as%3D%22geometry%22%2F%3E%3C%2FmxCell%3E%3C%2FUserObject%3E%3CmxCell%20id%3D%2229%22%20value%3D%22%26lt%3Bh1%26gt%3BSolicitud%20de%20insumos%26lt%3B%2Fh1%26gt%3B%22%20style%3D%22text%3Bhtml%3D1%3BstrokeColor%3Dnone%3BfillColor%3Dnone%3Bspacing%3D5%3BspacingTop%3D-20%3BwhiteSpace%3Dwrap%3Boverflow%3Dhidden%3Brounded%3D0%3Balign%3Dcenter%3B%22%20vertex%3D%221%22%20parent%3D%221%22%3E%3CmxGeometry%20x%3D%22330%22%20y%3D%22150%22%20width%3D%22290%22%20height%3D%2240%22%20as%3D%22geometry%22%2F%3E%3C%2FmxCell%3E%3CmxCell%20id%3D%2230%22%20value%3D%22Finca%22%20style%3D%22swimlane%3BfontStyle%3D0%3BchildLayout%3DstackLayout%3Bhorizontal%3D1%3BstartSize%3D26%3BfillColor%3Dnone%3BhorizontalStack%3D0%3BresizeParent%3D1%3BresizeParentMax%3D0%3BresizeLast%3D0%3Bcollapsible%3D1%3BmarginBottom%3D0%3Balign%3Dcenter%3B%22%20vertex%3D%221%22%20parent%3D%221%22%3E%3CmxGeometry%20x%3D%22600%22%20y%3D%22380%22%20width%3D%2260%22%20height%3D%2252%22%20as%3D%22geometry%22%2F%3E%3C%2FmxCell%3E%3CmxCell%20id%3D%2231%22%20value%3D%22014%22%20style%3D%22text%3BstrokeColor%3Dnone%3BfillColor%3Dnone%3Balign%3Dleft%3BverticalAlign%3Dtop%3BspacingLeft%3D4%3BspacingRight%3D4%3Boverflow%3Dhidden%3Brotatable%3D0%3Bpoints%3D%5B%5B0%2C0.5%5D%2C%5B1%2C0.5%5D%5D%3BportConstraint%3Deastwest%3B%22%20vertex%3D%221%22%20parent%3D%2230%22%3E%3CmxGeometry%20y%3D%2226%22%20width%3D%2260%22%20height%3D%2226%22%20as%3D%22geometry%22%2F%3E%3C%2FmxCell%3E%3CmxCell%20id%3D%2232%22%20value%3D%22Lote%22%20style%3D%22swimlane%3BfontStyle%3D0%3BchildLayout%3DstackLayout%3Bhorizontal%3D1%3BstartSize%3D26%3BfillColor%3Dnone%3BhorizontalStack%3D0%3BresizeParent%3D1%3BresizeParentMax%3D0%3BresizeLast%3D0%3Bcollapsible%3D1%3BmarginBottom%3D0%3Balign%3Dcenter%3B%22%20vertex%3D%221%22%20parent%3D%221%22%3E%3CmxGeometry%20x%3D%22660%22%20y%3D%22380%22%20width%3D%2260%22%20height%3D%2252%22%20as%3D%22geometry%22%2F%3E%3C%2FmxCell%3E%3CmxCell%20id%3D%2233%22%20value%3D%221%22%20style%3D%22text%3BstrokeColor%3Dnone%3BfillColor%3Dnone%3Balign%3Dleft%3BverticalAlign%3Dtop%3BspacingLeft%3D4%3BspacingRight%3D4%3Boverflow%3Dhidden%3Brotatable%3D0%3Bpoints%3D%5B%5B0%2C0.5%5D%2C%5B1%2C0.5%5D%5D%3BportConstraint%3Deastwest%3B%22%20vertex%3D%221%22%20parent%3D%2232%22%3E%3CmxGeometry%20y%3D%2226%22%20width%3D%2260%22%20height%3D%2226%22%20as%3D%22geometry%22%2F%3E%3C%2FmxCell%3E%3CmxCell%20id%3D%2234%22%20value%3D%22El%20apartado%20de%20producto%20no%20corresponder%C3%A1%20a%20una%20presentaci%C3%B3n%20comercial%2C%20sino%20a%20una%20generalizaci%C3%B3n%20(sea%20por%20nombre%2C%20ingrediente%20activo%20o%20formula).%22%20style%3D%22shape%3Dnote%3BstrokeWidth%3D2%3BfontSize%3D14%3Bsize%3D20%3BwhiteSpace%3Dwrap%3Bhtml%3D1%3BfillColor%3D%23fff2cc%3BstrokeColor%3D%23d6b656%3BfontColor%3D%23666600%3Balign%3Dcenter%3B%22%20vertex%3D%221%22%20parent%3D%221%22%3E%3CmxGeometry%20x%3D%22614%22%20y%3D%2270%22%20width%3D%22270%22%20height%3D%22100%22%20as%3D%22geometry%22%2F%3E%3C%2FmxCell%3E%3CmxCell%20id%3D%2235%22%20value%3D%22%22%20style%3D%22endArrow%3Dclassic%3Bhtml%3D1%3BfontColor%3D%23000000%3BexitX%3D0.5%3BexitY%3D1%3BexitDx%3D0%3BexitDy%3D0%3BexitPerimeter%3D0%3B%22%20edge%3D%221%22%20source%3D%2234%22%20parent%3D%221%22%3E%3CmxGeometry%20width%3D%2250%22%20height%3D%2250%22%20relative%3D%221%22%20as%3D%22geometry%22%3E%3CmxPoint%20x%3D%22750%22%20y%3D%22140%22%20as%3D%22sourcePoint%22%2F%3E%3CmxPoint%20x%3D%22703%22%20y%3D%22291%22%20as%3D%22targetPoint%22%2F%3E%3C%2FmxGeometry%3E%3C%2FmxCell%3E%3C%2Froot%3E%3C%2FmxGraphModel%3E&lt;/span&gt;" style="text;html=1;strokeColor=none;fillColor=none;align=center;verticalAlign=middle;whiteSpace=wrap;rounded=0;" vertex="1" parent="2dOocxHEbkE4mMgfvIn6-0">
          <mxGeometry x="200" y="250" width="210" height="20" as="geometry" />
        </mxCell>
        <mxCell id="2dOocxHEbkE4mMgfvIn6-36" value="Juana Coromoto Maiz Inv 2020 02894&lt;span style=&quot;color: rgba(0 , 0 , 0 , 0) ; font-family: monospace ; font-size: 0px&quot;&gt;%3CmxGraphModel%3E%3Croot%3E%3CmxCell%20id%3D%220%22%2F%3E%3CmxCell%20id%3D%221%22%20parent%3D%220%22%2F%3E%3CmxCell%20id%3D%222%22%20value%3D%22%22%20style%3D%22strokeWidth%3D1%3Bshadow%3D0%3Bdashed%3D0%3Balign%3Dcenter%3Bhtml%3D1%3Bshape%3Dmxgraph.mockup.containers.browserWindow%3BrSize%3D0%3BstrokeColor%3D%23666666%3BstrokeColor2%3D%23008cff%3BstrokeColor3%3D%23c4c4c4%3BmainText%3D%2C%3BrecursiveResize%3D0%3B%22%20vertex%3D%221%22%20parent%3D%221%22%3E%3CmxGeometry%20x%3D%2240%22%20y%3D%2220%22%20width%3D%22844%22%20height%3D%22480%22%20as%3D%22geometry%22%2F%3E%3C%2FmxCell%3E%3CmxCell%20id%3D%223%22%20value%3D%22Siembra%22%20style%3D%22strokeWidth%3D1%3Bshadow%3D0%3Bdashed%3D0%3Balign%3Dcenter%3Bhtml%3D1%3Bshape%3Dmxgraph.mockup.containers.anchor%3BfontSize%3D17%3BfontColor%3D%23666666%3Balign%3Dleft%3B%22%20vertex%3D%221%22%20parent%3D%222%22%3E%3CmxGeometry%20x%3D%2260%22%20y%3D%2212%22%20width%3D%22110%22%20height%3D%2226%22%20as%3D%22geometry%22%2F%3E%3C%2FmxCell%3E%3CmxCell%20id%3D%224%22%20value%3D%22https%3A%2F%2Fsiembra.asoportuguesa.org%22%20style%3D%22strokeWidth%3D1%3Bshadow%3D0%3Bdashed%3D0%3Balign%3Dcenter%3Bhtml%3D1%3Bshape%3Dmxgraph.mockup.containers.anchor%3BrSize%3D0%3BfontSize%3D17%3BfontColor%3D%23666666%3Balign%3Dleft%3B%22%20vertex%3D%221%22%20parent%3D%222%22%3E%3CmxGeometry%20x%3D%22130%22%20y%3D%2260%22%20width%3D%22250%22%20height%3D%2226%22%20as%3D%22geometry%22%2F%3E%3C%2FmxCell%3E%3CmxCell%20id%3D%225%22%20value%3D%22%22%20style%3D%22strokeWidth%3D1%3Bshadow%3D0%3Bdashed%3D0%3Balign%3Dcenter%3Bhtml%3D1%3Bshape%3Dmxgraph.mockup.containers.rrect%3BrSize%3D0%3BstrokeColor%3D%23666666%3B%22%20vertex%3D%221%22%20parent%3D%222%22%3E%3CmxGeometry%20y%3D%22110%22%20width%3D%22130%22%20height%3D%22370%22%20as%3D%22geometry%22%2F%3E%3C%2FmxCell%3E%3CmxCell%20id%3D%226%22%20value%3D%22Solicitud%20de%20%26lt%3Bbr%26gt%3Binsumos%22%20style%3D%22strokeColor%3Dinherit%3BfillColor%3Dinherit%3BgradientColor%3Dinherit%3BstrokeWidth%3D1%3Bshadow%3D0%3Bdashed%3D0%3Balign%3Dcenter%3Bhtml%3D1%3Bshape%3Dmxgraph.mockup.containers.rrect%3BrSize%3D0%3BfontSize%3D17%3BfontColor%3D%23666666%3BfontStyle%3D1%3BresizeWidth%3D1%3B%22%20vertex%3D%221%22%20parent%3D%225%22%3E%3CmxGeometry%20width%3D%22130%22%20height%3D%2250%22%20relative%3D%221%22%20as%3D%22geometry%22%3E%3CmxPoint%20y%3D%22105%22%20as%3D%22offset%22%2F%3E%3C%2FmxGeometry%3E%3C%2FmxCell%3E%3CmxCell%20id%3D%227%22%20value%3D%22Otros...%22%20style%3D%22strokeColor%3Dinherit%3BfillColor%3Dinherit%3BgradientColor%3Dinherit%3BstrokeWidth%3D1%3Bshadow%3D0%3Bdashed%3D0%3Balign%3Dcenter%3Bhtml%3D1%3Bshape%3Dmxgraph.mockup.containers.rrect%3BrSize%3D0%3BfontSize%3D17%3BfontColor%3D%23666666%3BfontStyle%3D1%3BresizeWidth%3D1%3B%22%20vertex%3D%221%22%20parent%3D%225%22%3E%3CmxGeometry%20y%3D%221%22%20width%3D%22130%22%20height%3D%2226%22%20relative%3D%221%22%20as%3D%22geometry%22%3E%3CmxPoint%20y%3D%22-215%22%20as%3D%22offset%22%2F%3E%3C%2FmxGeometry%3E%3C%2FmxCell%3E%3CmxCell%20id%3D%228%22%20value%3D%22%22%20style%3D%22verticalLabelPosition%3Dbottom%3Bshadow%3D0%3Bdashed%3D0%3Balign%3Dcenter%3Bhtml%3D1%3BverticalAlign%3Dtop%3BstrokeWidth%3D1%3Bshape%3Dmxgraph.mockup.graphics.simpleIcon%3BstrokeColor%3D%23999999%3B%22%20vertex%3D%221%22%20parent%3D%222%22%3E%3CmxGeometry%20y%3D%22110%22%20width%3D%22130%22%20height%3D%22110%22%20as%3D%22geometry%22%2F%3E%3C%2FmxCell%3E%3CUserObject%20label%3D%22Option%201%22%20link%3D%22data%3Apage%2Fid%2CSeyLVEOmgzdLoLSbZBI_%22%20id%3D%229%22%3E%3CmxCell%20style%3D%22strokeWidth%3D1%3Bshadow%3D0%3Bdashed%3D0%3Balign%3Dcenter%3Bhtml%3D1%3Bshape%3Dmxgraph.mockup.forms.comboBox%3BstrokeColor%3D%23999999%3BfillColor%3D%23ddeeff%3Balign%3Dleft%3BfillColor2%3D%23aaddff%3BmainText%3D%3BfontColor%3D%23666666%3BfontSize%3D17%3BspacingLeft%3D3%3B%22%20vertex%3D%221%22%20parent%3D%222%22%3E%3CmxGeometry%20x%3D%22190%22%20y%3D%22210%22%20width%3D%22150%22%20height%3D%2230%22%20as%3D%22geometry%22%2F%3E%3C%2FmxCell%3E%3C%2FUserObject%3E%3CmxCell%20id%3D%2210%22%20value%3D%22Option%201%22%20style%3D%22strokeWidth%3D1%3Bshadow%3D0%3Bdashed%3D0%3Balign%3Dcenter%3Bhtml%3D1%3Bshape%3Dmxgraph.mockup.forms.comboBox%3BstrokeColor%3D%23999999%3BfillColor%3D%23ddeeff%3Balign%3Dleft%3BfillColor2%3D%23aaddff%3BmainText%3D%3BfontColor%3D%23666666%3BfontSize%3D17%3BspacingLeft%3D3%3B%22%20vertex%3D%221%22%20parent%3D%222%22%3E%3CmxGeometry%20x%3D%22190%22%20y%3D%22260%22%20width%3D%22470%22%20height%3D%2230%22%20as%3D%22geometry%22%2F%3E%3C%2FmxCell%3E%3CmxCell%20id%3D%2211%22%20value%3D%22%26lt%3Btable%20cellpadding%3D%26quot%3B0%26quot%3B%20cellspacing%3D%26quot%3B0%26quot%3B%20style%3D%26quot%3Bwidth%3A100%25%3Bheight%3A100%25%3B%26quot%3B%26gt%3B%26lt%3Btr%26gt%3B%26lt%3Btd%20style%3D%26quot%3Bwidth%3A85%25%26quot%3B%26gt%3B100%26lt%3B%2Ftd%26gt%3B%26lt%3Btd%20style%3D%26quot%3Bwidth%3A15%25%26quot%3B%26gt%3B%26lt%3B%2Ftd%26gt%3B%26lt%3B%2Ftr%26gt%3B%26lt%3B%2Ftable%26gt%3B%22%20style%3D%22strokeWidth%3D1%3Bshadow%3D0%3Bdashed%3D0%3Balign%3Dcenter%3Bhtml%3D1%3Bshape%3Dmxgraph.mockup.forms.spinner%3BstrokeColor%3D%23999999%3BspinLayout%3Dright%3BspinStyle%3Dnormal%3BadjStyle%3Dtriangle%3BfillColor%3D%23aaddff%3BfontSize%3D17%3BfontColor%3D%23666666%3BmainText%3D%3Bhtml%3D1%3Boverflow%3Dfill%3B%22%20vertex%3D%221%22%20parent%3D%222%22%3E%3CmxGeometry%20x%3D%22190%22%20y%3D%22310%22%20width%3D%22120%22%20height%3D%2230%22%20as%3D%22geometry%22%2F%3E%3C%2FmxCell%3E%3CUserObject%20label%3D%22Cr%C3%A9dito%22%20placeholders%3D%221%22%20name%3D%22Variable%22%20id%3D%2212%22%3E%3CmxCell%20style%3D%22text%3Bhtml%3D1%3BstrokeColor%3Dnone%3BfillColor%3Dnone%3Balign%3Dleft%3BverticalAlign%3Dmiddle%3BwhiteSpace%3Dwrap%3Boverflow%3Dhidden%3B%22%20vertex%3D%221%22%20parent%3D%222%22%3E%3CmxGeometry%20x%3D%22190%22%20y%3D%22190%22%20width%3D%2280%22%20height%3D%2220%22%20as%3D%22geometry%22%2F%3E%3C%2FmxCell%3E%3C%2FUserObject%3E%3CmxCell%20id%3D%2213%22%20value%3D%22Option%201%22%20style%3D%22strokeWidth%3D1%3Bshadow%3D0%3Bdashed%3D0%3Balign%3Dcenter%3Bhtml%3D1%3Bshape%3Dmxgraph.mockup.forms.comboBox%3BstrokeColor%3D%23999999%3BfillColor%3D%23ddeeff%3Balign%3Dleft%3BfillColor2%3D%23aaddff%3BmainText%3D%3BfontColor%3D%23666666%3BfontSize%3D17%3BspacingLeft%3D3%3B%22%20vertex%3D%221%22%20parent%3D%222%22%3E%3CmxGeometry%20x%3D%22350%22%20y%3D%22210%22%20width%3D%22150%22%20height%3D%2230%22%20as%3D%22geometry%22%2F%3E%3C%2FmxCell%3E%3CUserObject%20label%3D%22Finca%22%20placeholders%3D%221%22%20name%3D%22Variable%22%20id%3D%2214%22%3E%3CmxCell%20style%3D%22text%3Bhtml%3D1%3BstrokeColor%3Dnone%3BfillColor%3Dnone%3Balign%3Dleft%3BverticalAlign%3Dmiddle%3BwhiteSpace%3Dwrap%3Boverflow%3Dhidden%3B%22%20vertex%3D%221%22%20parent%3D%222%22%3E%3CmxGeometry%20x%3D%22350%22%20y%3D%22190%22%20width%3D%2280%22%20height%3D%2220%22%20as%3D%22geometry%22%2F%3E%3C%2FmxCell%3E%3C%2FUserObject%3E%3CmxCell%20id%3D%2215%22%20value%3D%22Option%201%22%20style%3D%22strokeWidth%3D1%3Bshadow%3D0%3Bdashed%3D0%3Balign%3Dcenter%3Bhtml%3D1%3Bshape%3Dmxgraph.mockup.forms.comboBox%3BstrokeColor%3D%23999999%3BfillColor%3D%23ddeeff%3Balign%3Dleft%3BfillColor2%3D%23aaddff%3BmainText%3D%3BfontColor%3D%23666666%3BfontSize%3D17%3BspacingLeft%3D3%3B%22%20vertex%3D%221%22%20parent%3D%222%22%3E%3CmxGeometry%20x%3D%22510%22%20y%3D%22210%22%20width%3D%22150%22%20height%3D%2230%22%20as%3D%22geometry%22%2F%3E%3C%2FmxCell%3E%3CUserObject%20label%3D%22Lote%22%20placeholders%3D%221%22%20name%3D%22Variable%22%20id%3D%2216%22%3E%3CmxCell%20style%3D%22text%3Bhtml%3D1%3BstrokeColor%3Dnone%3BfillColor%3Dnone%3Balign%3Dleft%3BverticalAlign%3Dmiddle%3BwhiteSpace%3Dwrap%3Boverflow%3Dhidden%3B%22%20vertex%3D%221%22%20parent%3D%222%22%3E%3CmxGeometry%20x%3D%22510%22%20y%3D%22190%22%20width%3D%2280%22%20height%3D%2220%22%20as%3D%22geometry%22%2F%3E%3C%2FmxCell%3E%3C%2FUserObject%3E%3CUserObject%20label%3D%22Producto%22%20placeholders%3D%221%22%20name%3D%22Variable%22%20id%3D%2217%22%3E%3CmxCell%20style%3D%22text%3Bhtml%3D1%3BstrokeColor%3Dnone%3BfillColor%3Dnone%3Balign%3Dleft%3BverticalAlign%3Dmiddle%3BwhiteSpace%3Dwrap%3Boverflow%3Dhidden%3B%22%20vertex%3D%221%22%20parent%3D%222%22%3E%3CmxGeometry%20x%3D%22190%22%20y%3D%22240%22%20width%3D%2280%22%20height%3D%2220%22%20as%3D%22geometry%22%2F%3E%3C%2FmxCell%3E%3C%2FUserObject%3E%3CUserObject%20label%3D%22Cantidad%22%20placeholders%3D%221%22%20name%3D%22Variable%22%20id%3D%2218%22%3E%3CmxCell%20style%3D%22text%3Bhtml%3D1%3BstrokeColor%3Dnone%3BfillColor%3Dnone%3Balign%3Dleft%3BverticalAlign%3Dmiddle%3BwhiteSpace%3Dwrap%3Boverflow%3Dhidden%3B%22%20vertex%3D%221%22%20parent%3D%222%22%3E%3CmxGeometry%20x%3D%22190%22%20y%3D%22290%22%20width%3D%2280%22%20height%3D%2220%22%20as%3D%22geometry%22%2F%3E%3C%2FmxCell%3E%3C%2FUserObject%3E%3CmxCell%20id%3D%2219%22%20value%3D%22%22%20style%3D%22swimlane%3BfontStyle%3D0%3BchildLayout%3DstackLayout%3Bhorizontal%3D1%3BstartSize%3D26%3BfillColor%3Dnone%3BhorizontalStack%3D0%3BresizeParent%3D1%3BresizeParentMax%3D0%3BresizeLast%3D0%3Bcollapsible%3D1%3BmarginBottom%3D0%3Balign%3Dcenter%3B%22%20vertex%3D%221%22%20parent%3D%222%22%3E%3CmxGeometry%20x%3D%22680%22%20y%3D%22360%22%20width%3D%2253.33%22%20height%3D%2250%22%20as%3D%22geometry%22%2F%3E%3C%2FmxCell%3E%3CmxCell%20id%3D%2220%22%20value%3D%22%22%20style%3D%22shape%3Dimage%3Bhtml%3D1%3BverticalAlign%3Dtop%3BverticalLabelPosition%3Dbottom%3BlabelBackgroundColor%3D%23ffffff%3BimageAspect%3D0%3Baspect%3Dfixed%3Bimage%3Dhttps%3A%2F%2Fcdn4.iconfinder.com%2Fdata%2Ficons%2Ficocentre-free-icons%2F114%2Ff-cross_256-128.png%3Balign%3Dcenter%3B%22%20vertex%3D%221%22%20parent%3D%2219%22%3E%3CmxGeometry%20y%3D%2226%22%20width%3D%2253.33%22%20height%3D%2224%22%20as%3D%22geometry%22%2F%3E%3C%2FmxCell%3E%3CmxCell%20id%3D%2221%22%20value%3D%22Cantidad%22%20style%3D%22swimlane%3BfontStyle%3D0%3BchildLayout%3DstackLayout%3Bhorizontal%3D1%3BstartSize%3D26%3BfillColor%3Dnone%3BhorizontalStack%3D0%3BresizeParent%3D1%3BresizeParentMax%3D0%3BresizeLast%3D0%3Bcollapsible%3D1%3BmarginBottom%3D0%3Balign%3Dcenter%3B%22%20vertex%3D%221%22%20parent%3D%222%22%3E%3CmxGeometry%20x%3D%22480%22%20y%3D%22360%22%20width%3D%2280%22%20height%3D%2252%22%20as%3D%22geometry%22%2F%3E%3C%2FmxCell%3E%3CmxCell%20id%3D%2222%22%20value%3D%2210000%22%20style%3D%22text%3BstrokeColor%3Dnone%3BfillColor%3Dnone%3Balign%3Dleft%3BverticalAlign%3Dtop%3BspacingLeft%3D4%3BspacingRight%3D4%3Boverflow%3Dhidden%3Brotatable%3D0%3Bpoints%3D%5B%5B0%2C0.5%5D%2C%5B1%2C0.5%5D%5D%3BportConstraint%3Deastwest%3B%22%20vertex%3D%221%22%20parent%3D%2221%22%3E%3CmxGeometry%20y%3D%2226%22%20width%3D%2280%22%20height%3D%2226%22%20as%3D%22geometry%22%2F%3E%3C%2FmxCell%3E%3CmxCell%20id%3D%2223%22%20value%3D%22Producto%22%20style%3D%22swimlane%3BfontStyle%3D0%3BchildLayout%3DstackLayout%3Bhorizontal%3D1%3BstartSize%3D26%3BfillColor%3Dnone%3BhorizontalStack%3D0%3BresizeParent%3D1%3BresizeParentMax%3D0%3BresizeLast%3D0%3Bcollapsible%3D1%3BmarginBottom%3D0%3Balign%3Dcenter%3B%22%20vertex%3D%221%22%20parent%3D%222%22%3E%3CmxGeometry%20x%3D%22240%22%20y%3D%22360%22%20width%3D%22240%22%20height%3D%2252%22%20as%3D%22geometry%22%2F%3E%3C%2FmxCell%3E%3CmxCell%20id%3D%2224%22%20value%3D%22Glyfosan%20LTS%22%20style%3D%22text%3BstrokeColor%3Dnone%3BfillColor%3Dnone%3Balign%3Dleft%3BverticalAlign%3Dtop%3BspacingLeft%3D4%3BspacingRight%3D4%3Boverflow%3Dhidden%3Brotatable%3D0%3Bpoints%3D%5B%5B0%2C0.5%5D%2C%5B1%2C0.5%5D%5D%3BportConstraint%3Deastwest%3B%22%20vertex%3D%221%22%20parent%3D%2223%22%3E%3CmxGeometry%20y%3D%2226%22%20width%3D%22240%22%20height%3D%2226%22%20as%3D%22geometry%22%2F%3E%3C%2FmxCell%3E%3CmxCell%20id%3D%2225%22%20value%3D%22Cr%C3%A9dito%22%20style%3D%22swimlane%3BfontStyle%3D0%3BchildLayout%3DstackLayout%3Bhorizontal%3D1%3BstartSize%3D26%3BfillColor%3Dnone%3BhorizontalStack%3D0%3BresizeParent%3D1%3BresizeParentMax%3D0%3BresizeLast%3D0%3Bcollapsible%3D1%3BmarginBottom%3D0%3Balign%3Dcenter%3B%22%20vertex%3D%221%22%20parent%3D%222%22%3E%3CmxGeometry%20x%3D%22170%22%20y%3D%22360%22%20width%3D%2270%22%20height%3D%2252%22%20as%3D%22geometry%22%2F%3E%3C%2FmxCell%3E%3CmxCell%20id%3D%2226%22%20value%3D%2200001265%22%20style%3D%22text%3BstrokeColor%3Dnone%3BfillColor%3Dnone%3Balign%3Dleft%3BverticalAlign%3Dtop%3BspacingLeft%3D4%3BspacingRight%3D4%3Boverflow%3Dhidden%3Brotatable%3D0%3Bpoints%3D%5B%5B0%2C0.5%5D%2C%5B1%2C0.5%5D%5D%3BportConstraint%3Deastwest%3B%22%20vertex%3D%221%22%20parent%3D%2225%22%3E%3CmxGeometry%20y%3D%2226%22%20width%3D%2270%22%20height%3D%2226%22%20as%3D%22geometry%22%2F%3E%3C%2FmxCell%3E%3CmxCell%20id%3D%2227%22%20value%3D%22Agregar%22%20style%3D%22rounded%3D1%3BfillColor%3D%230057D8%3Balign%3Dcenter%3BstrokeColor%3Dnone%3Bhtml%3D1%3BfontColor%3D%23ffffff%3BfontSize%3D12%22%20vertex%3D%221%22%20parent%3D%222%22%3E%3CmxGeometry%20x%3D%22574%22%20y%3D%22308.5%22%20width%3D%2286%22%20height%3D%2233%22%20as%3D%22geometry%22%2F%3E%3C%2FmxCell%3E%3CUserObject%20label%3D%22Enviar%20pedido%22%20link%3D%22data%3Apage%2Fid%2C7zwMk-7BACqUsPq9tSAO%22%20id%3D%2228%22%3E%3CmxCell%20style%3D%22rounded%3D1%3BfillColor%3D%230057D8%3Balign%3Dcenter%3BstrokeColor%3Dnone%3Bhtml%3D1%3BfontColor%3D%23ffffff%3BfontSize%3D12%22%20vertex%3D%221%22%20parent%3D%222%22%3E%3CmxGeometry%20x%3D%22394%22%20y%3D%22430%22%20width%3D%2286%22%20height%3D%2233%22%20as%3D%22geometry%22%2F%3E%3C%2FmxCell%3E%3C%2FUserObject%3E%3CmxCell%20id%3D%2229%22%20value%3D%22%26lt%3Bh1%26gt%3BSolicitud%20de%20insumos%26lt%3B%2Fh1%26gt%3B%22%20style%3D%22text%3Bhtml%3D1%3BstrokeColor%3Dnone%3BfillColor%3Dnone%3Bspacing%3D5%3BspacingTop%3D-20%3BwhiteSpace%3Dwrap%3Boverflow%3Dhidden%3Brounded%3D0%3Balign%3Dcenter%3B%22%20vertex%3D%221%22%20parent%3D%221%22%3E%3CmxGeometry%20x%3D%22330%22%20y%3D%22150%22%20width%3D%22290%22%20height%3D%2240%22%20as%3D%22geometry%22%2F%3E%3C%2FmxCell%3E%3CmxCell%20id%3D%2230%22%20value%3D%22Finca%22%20style%3D%22swimlane%3BfontStyle%3D0%3BchildLayout%3DstackLayout%3Bhorizontal%3D1%3BstartSize%3D26%3BfillColor%3Dnone%3BhorizontalStack%3D0%3BresizeParent%3D1%3BresizeParentMax%3D0%3BresizeLast%3D0%3Bcollapsible%3D1%3BmarginBottom%3D0%3Balign%3Dcenter%3B%22%20vertex%3D%221%22%20parent%3D%221%22%3E%3CmxGeometry%20x%3D%22600%22%20y%3D%22380%22%20width%3D%2260%22%20height%3D%2252%22%20as%3D%22geometry%22%2F%3E%3C%2FmxCell%3E%3CmxCell%20id%3D%2231%22%20value%3D%22014%22%20style%3D%22text%3BstrokeColor%3Dnone%3BfillColor%3Dnone%3Balign%3Dleft%3BverticalAlign%3Dtop%3BspacingLeft%3D4%3BspacingRight%3D4%3Boverflow%3Dhidden%3Brotatable%3D0%3Bpoints%3D%5B%5B0%2C0.5%5D%2C%5B1%2C0.5%5D%5D%3BportConstraint%3Deastwest%3B%22%20vertex%3D%221%22%20parent%3D%2230%22%3E%3CmxGeometry%20y%3D%2226%22%20width%3D%2260%22%20height%3D%2226%22%20as%3D%22geometry%22%2F%3E%3C%2FmxCell%3E%3CmxCell%20id%3D%2232%22%20value%3D%22Lote%22%20style%3D%22swimlane%3BfontStyle%3D0%3BchildLayout%3DstackLayout%3Bhorizontal%3D1%3BstartSize%3D26%3BfillColor%3Dnone%3BhorizontalStack%3D0%3BresizeParent%3D1%3BresizeParentMax%3D0%3BresizeLast%3D0%3Bcollapsible%3D1%3BmarginBottom%3D0%3Balign%3Dcenter%3B%22%20vertex%3D%221%22%20parent%3D%221%22%3E%3CmxGeometry%20x%3D%22660%22%20y%3D%22380%22%20width%3D%2260%22%20height%3D%2252%22%20as%3D%22geometry%22%2F%3E%3C%2FmxCell%3E%3CmxCell%20id%3D%2233%22%20value%3D%221%22%20style%3D%22text%3BstrokeColor%3Dnone%3BfillColor%3Dnone%3Balign%3Dleft%3BverticalAlign%3Dtop%3BspacingLeft%3D4%3BspacingRight%3D4%3Boverflow%3Dhidden%3Brotatable%3D0%3Bpoints%3D%5B%5B0%2C0.5%5D%2C%5B1%2C0.5%5D%5D%3BportConstraint%3Deastwest%3B%22%20vertex%3D%221%22%20parent%3D%2232%22%3E%3CmxGeometry%20y%3D%2226%22%20width%3D%2260%22%20height%3D%2226%22%20as%3D%22geometry%22%2F%3E%3C%2FmxCell%3E%3CmxCell%20id%3D%2234%22%20value%3D%22El%20apartado%20de%20producto%20no%20corresponder%C3%A1%20a%20una%20presentaci%C3%B3n%20comercial%2C%20sino%20a%20una%20generalizaci%C3%B3n%20(sea%20por%20nombre%2C%20ingrediente%20activo%20o%20formula).%22%20style%3D%22shape%3Dnote%3BstrokeWidth%3D2%3BfontSize%3D14%3Bsize%3D20%3BwhiteSpace%3Dwrap%3Bhtml%3D1%3BfillColor%3D%23fff2cc%3BstrokeColor%3D%23d6b656%3BfontColor%3D%23666600%3Balign%3Dcenter%3B%22%20vertex%3D%221%22%20parent%3D%221%22%3E%3CmxGeometry%20x%3D%22614%22%20y%3D%2270%22%20width%3D%22270%22%20height%3D%22100%22%20as%3D%22geometry%22%2F%3E%3C%2FmxCell%3E%3CmxCell%20id%3D%2235%22%20value%3D%22%22%20style%3D%22endArrow%3Dclassic%3Bhtml%3D1%3BfontColor%3D%23000000%3BexitX%3D0.5%3BexitY%3D1%3BexitDx%3D0%3BexitDy%3D0%3BexitPerimeter%3D0%3B%22%20edge%3D%221%22%20source%3D%2234%22%20parent%3D%221%22%3E%3CmxGeometry%20width%3D%2250%22%20height%3D%2250%22%20relative%3D%221%22%20as%3D%22geometry%22%3E%3CmxPoint%20x%3D%22750%22%20y%3D%22140%22%20as%3D%22sourcePoint%22%2F%3E%3CmxPoint%20x%3D%22703%22%20y%3D%22291%22%20as%3D%22targetPoint%22%2F%3E%3C%2FmxGeometry%3E%3C%2FmxCell%3E%3C%2Froot%3E%3C%2FmxGraphModel%3E&lt;/span&gt;" style="text;html=1;strokeColor=none;fillColor=none;align=center;verticalAlign=middle;whiteSpace=wrap;rounded=0;" vertex="1" parent="2dOocxHEbkE4mMgfvIn6-0">
          <mxGeometry x="200" y="270" width="210" height="20" as="geometry" />
        </mxCell>
        <mxCell id="2dOocxHEbkE4mMgfvIn6-27" value="&lt;h1&gt;Solicitud de insumos&lt;/h1&gt;" style="text;html=1;strokeColor=none;fillColor=none;spacing=5;spacingTop=-20;whiteSpace=wrap;overflow=hidden;rounded=0;align=center;" vertex="1" parent="zMgso4sbhJCzVIcZ0P-h-1">
          <mxGeometry x="330" y="150" width="290" height="40" as="geometry" />
        </mxCell>
        <mxCell id="2dOocxHEbkE4mMgfvIn6-28" value="Finca" style="swimlane;fontStyle=0;childLayout=stackLayout;horizontal=1;startSize=26;fillColor=none;horizontalStack=0;resizeParent=1;resizeParentMax=0;resizeLast=0;collapsible=1;marginBottom=0;align=center;" vertex="1" parent="zMgso4sbhJCzVIcZ0P-h-1">
          <mxGeometry x="600" y="380" width="60" height="52" as="geometry" />
        </mxCell>
        <mxCell id="2dOocxHEbkE4mMgfvIn6-29" value="014" style="text;strokeColor=none;fillColor=none;align=left;verticalAlign=top;spacingLeft=4;spacingRight=4;overflow=hidden;rotatable=0;points=[[0,0.5],[1,0.5]];portConstraint=eastwest;" vertex="1" parent="2dOocxHEbkE4mMgfvIn6-28">
          <mxGeometry y="26" width="60" height="26" as="geometry" />
        </mxCell>
        <mxCell id="2dOocxHEbkE4mMgfvIn6-30" value="Lote" style="swimlane;fontStyle=0;childLayout=stackLayout;horizontal=1;startSize=26;fillColor=none;horizontalStack=0;resizeParent=1;resizeParentMax=0;resizeLast=0;collapsible=1;marginBottom=0;align=center;" vertex="1" parent="zMgso4sbhJCzVIcZ0P-h-1">
          <mxGeometry x="660" y="380" width="60" height="52" as="geometry" />
        </mxCell>
        <mxCell id="2dOocxHEbkE4mMgfvIn6-31" value="1" style="text;strokeColor=none;fillColor=none;align=left;verticalAlign=top;spacingLeft=4;spacingRight=4;overflow=hidden;rotatable=0;points=[[0,0.5],[1,0.5]];portConstraint=eastwest;" vertex="1" parent="2dOocxHEbkE4mMgfvIn6-30">
          <mxGeometry y="26" width="60" height="26" as="geometry" />
        </mxCell>
        <mxCell id="2dOocxHEbkE4mMgfvIn6-39" value="Notas" parent="zMgso4sbhJCzVIcZ0P-h-0" />
        <mxCell id="2dOocxHEbkE4mMgfvIn6-40" value="El criterio que se escriba sera el parÃ¡metro de bÃºsqueda abierta (nombre, solicitud, dni). Y el resultado estarÃ¡ condicionado por las rutas del tÃ©cnico en cuestiÃ³n" style="shape=note;strokeWidth=2;fontSize=14;size=20;whiteSpace=wrap;html=1;fillColor=#fff2cc;strokeColor=#d6b656;fontColor=#666600;align=center;" vertex="1" parent="2dOocxHEbkE4mMgfvIn6-39">
          <mxGeometry x="30" y="50" width="300" height="108" as="geometry" />
        </mxCell>
        <mxCell id="2dOocxHEbkE4mMgfvIn6-41" value="" style="endArrow=classic;html=1;fontColor=#000000;exitX=0.5;exitY=1;exitDx=0;exitDy=0;exitPerimeter=0;entryX=-0.013;entryY=0.5;entryDx=0;entryDy=0;entryPerimeter=0;" edge="1" parent="2dOocxHEbkE4mMgfvIn6-39" source="2dOocxHEbkE4mMgfvIn6-40">
          <mxGeometry width="50" height="50" relative="1" as="geometry">
            <mxPoint x="126" y="108" as="sourcePoint" />
            <mxPoint x="228.04999999999995" y="245" as="targetPoint" />
          </mxGeometry>
        </mxCell>
        <mxCell id="2dOocxHEbkE4mMgfvIn6-42" value="El apartado de producto no corresponderÃ¡ a una presentaciÃ³n comercial, sino a una generalizaciÃ³n (sea por nombre, ingrediente activo o formula)." style="shape=note;strokeWidth=2;fontSize=14;size=20;whiteSpace=wrap;html=1;fillColor=#fff2cc;strokeColor=#d6b656;fontColor=#666600;align=center;" vertex="1" parent="2dOocxHEbkE4mMgfvIn6-39">
          <mxGeometry x="614" y="70" width="270" height="100" as="geometry" />
        </mxCell>
        <mxCell id="2dOocxHEbkE4mMgfvIn6-43" value="" style="endArrow=classic;html=1;fontColor=#000000;exitX=0.5;exitY=1;exitDx=0;exitDy=0;exitPerimeter=0;" edge="1" parent="2dOocxHEbkE4mMgfvIn6-39" source="2dOocxHEbkE4mMgfvIn6-42">
          <mxGeometry width="50" height="50" relative="1" as="geometry">
            <mxPoint x="750" y="140" as="sourcePoint" />
            <mxPoint x="703" y="291" as="targetPoint" />
          </mxGeometry>
        </mxCell>
      </root>
    </mxGraphModel>
  </diagram>
  <diagram id="garubnWpSRNnTbaeML0r" name="Sup - Page-1">
    <mxGraphModel dx="828" dy="492" grid="1" gridSize="10" guides="1" tooltips="1" connect="1" arrows="1" fold="1" page="1" pageScale="1" pageWidth="827" pageHeight="1169" math="0" shadow="0">
      <root>
        <mxCell id="R7eq6c7RX9BafvpeX78H-0" />
        <mxCell id="R7eq6c7RX9BafvpeX78H-1" parent="R7eq6c7RX9BafvpeX78H-0" />
        <mxCell id="R7eq6c7RX9BafvpeX78H-2" value="SQLFIGO" style="strokeWidth=1;shadow=0;dashed=0;align=center;html=1;shape=mxgraph.mockup.containers.window;align=left;verticalAlign=top;spacingLeft=8;strokeColor2=#008cff;strokeColor3=#c4c4c4;fontColor=#666666;mainText=;fontSize=17;labelBackgroundColor=none;" parent="R7eq6c7RX9BafvpeX78H-1" vertex="1">
          <mxGeometry x="110" y="60" width="610" height="380" as="geometry" />
        </mxCell>
        <mxCell id="R7eq6c7RX9BafvpeX78H-3" value="" style="verticalLabelPosition=bottom;shadow=0;dashed=0;align=center;html=1;verticalAlign=top;strokeWidth=1;shape=mxgraph.mockup.graphics.simpleIcon;strokeColor=#999999;fontColor=#80FF00;" parent="R7eq6c7RX9BafvpeX78H-1" vertex="1">
          <mxGeometry x="140" y="110" width="100" height="50" as="geometry" />
        </mxCell>
        <mxCell id="R7eq6c7RX9BafvpeX78H-4" value="" style="verticalLabelPosition=bottom;shadow=0;dashed=0;align=center;html=1;verticalAlign=top;strokeWidth=1;shape=mxgraph.mockup.graphics.simpleIcon;strokeColor=#999999;fontColor=#80FF00;" parent="R7eq6c7RX9BafvpeX78H-1" vertex="1">
          <mxGeometry x="340" y="110" width="100" height="50" as="geometry" />
        </mxCell>
        <mxCell id="R7eq6c7RX9BafvpeX78H-5" value="&lt;table border=&quot;1&quot; width=&quot;100%&quot; style=&quot;width: 100% ; height: 100% ; border-collapse: collapse&quot;&gt;&lt;tbody&gt;&lt;tr&gt;&lt;td align=&quot;center&quot;&gt;&amp;nbsp;&lt;/td&gt;&lt;td align=&quot;center&quot;&gt;&amp;nbsp;&lt;/td&gt;&lt;td align=&quot;center&quot;&gt;&amp;nbsp;&lt;/td&gt;&lt;/tr&gt;&lt;tr&gt;&lt;td align=&quot;center&quot;&gt;&amp;nbsp;&amp;nbsp;&lt;/td&gt;&lt;td align=&quot;center&quot;&gt;&amp;nbsp;&amp;nbsp;&lt;/td&gt;&lt;td align=&quot;center&quot;&gt;&lt;br&gt;&lt;/td&gt;&lt;/tr&gt;&lt;tr&gt;&lt;td align=&quot;center&quot;&gt;&lt;/td&gt;&lt;td align=&quot;center&quot;&gt;&lt;br&gt;&lt;/td&gt;&lt;td align=&quot;center&quot;&gt;&amp;nbsp;&lt;/td&gt;&lt;/tr&gt;&lt;/tbody&gt;&lt;/table&gt;" style="text;html=1;strokeColor=none;fillColor=none;overflow=fill;fontColor=#80FF00;align=center;" parent="R7eq6c7RX9BafvpeX78H-1" vertex="1">
          <mxGeometry x="550" y="110" width="90" height="60" as="geometry" />
        </mxCell>
        <mxCell id="R7eq6c7RX9BafvpeX78H-7" value="&lt;b&gt;&lt;font style=&quot;font-size: 16px&quot; color=&quot;#000000&quot;&gt;AprobaciÃ³n de solicitudes&lt;/font&gt;&lt;/b&gt;" style="text;html=1;strokeColor=none;fillColor=none;align=center;verticalAlign=middle;whiteSpace=wrap;rounded=0;fontColor=#80FF00;" parent="R7eq6c7RX9BafvpeX78H-1" vertex="1">
          <mxGeometry x="270" y="170" width="250" height="20" as="geometry" />
        </mxCell>
        <mxCell id="R7eq6c7RX9BafvpeX78H-8" value="Sol. Insumo" style="swimlane;fontStyle=0;childLayout=stackLayout;horizontal=1;startSize=26;horizontalStack=0;resizeParent=1;resizeParentMax=0;resizeLast=0;collapsible=1;marginBottom=0;align=center;fontSize=14;" parent="R7eq6c7RX9BafvpeX78H-1" vertex="1">
          <mxGeometry x="131" y="335" width="80" height="78" as="geometry" />
        </mxCell>
        <mxCell id="fNfkpXqPACDF3pxuw8M--3" value="SOEI0001" style="text;strokeColor=none;fillColor=none;spacingLeft=4;spacingRight=4;overflow=hidden;rotatable=0;points=[[0,0.5],[1,0.5]];portConstraint=eastwest;fontSize=12;" parent="R7eq6c7RX9BafvpeX78H-8" vertex="1">
          <mxGeometry y="26" width="80" height="26" as="geometry" />
        </mxCell>
        <mxCell id="R7eq6c7RX9BafvpeX78H-9" value="SOEI0003" style="text;strokeColor=none;fillColor=none;spacingLeft=4;spacingRight=4;overflow=hidden;rotatable=0;points=[[0,0.5],[1,0.5]];portConstraint=eastwest;fontSize=12;" parent="R7eq6c7RX9BafvpeX78H-8" vertex="1">
          <mxGeometry y="52" width="80" height="26" as="geometry" />
        </mxCell>
        <mxCell id="R7eq6c7RX9BafvpeX78H-12" value="Sol. Apoyo" style="swimlane;fontStyle=0;childLayout=stackLayout;horizontal=1;startSize=26;horizontalStack=0;resizeParent=1;resizeParentMax=0;resizeLast=0;collapsible=1;marginBottom=0;align=center;fontSize=14;" parent="R7eq6c7RX9BafvpeX78H-1" vertex="1">
          <mxGeometry x="211" y="335" width="70" height="78" as="geometry" />
        </mxCell>
        <mxCell id="R7eq6c7RX9BafvpeX78H-13" value="00001265" style="text;strokeColor=none;fillColor=none;spacingLeft=4;spacingRight=4;overflow=hidden;rotatable=0;points=[[0,0.5],[1,0.5]];portConstraint=eastwest;fontSize=12;" parent="R7eq6c7RX9BafvpeX78H-12" vertex="1">
          <mxGeometry y="26" width="70" height="26" as="geometry" />
        </mxCell>
        <mxCell id="fNfkpXqPACDF3pxuw8M--2" value="00001365" style="text;strokeColor=none;fillColor=none;spacingLeft=4;spacingRight=4;overflow=hidden;rotatable=0;points=[[0,0.5],[1,0.5]];portConstraint=eastwest;fontSize=12;" parent="R7eq6c7RX9BafvpeX78H-12" vertex="1">
          <mxGeometry y="52" width="70" height="26" as="geometry" />
        </mxCell>
        <mxCell id="cL50vPJnZ7iQlfklZIFY-4" value="Finca" style="swimlane;fontStyle=0;childLayout=stackLayout;horizontal=1;startSize=26;horizontalStack=0;resizeParent=1;resizeParentMax=0;resizeLast=0;collapsible=1;marginBottom=0;align=center;fontSize=14;" parent="R7eq6c7RX9BafvpeX78H-1" vertex="1">
          <mxGeometry x="281" y="335" width="50" height="78" as="geometry" />
        </mxCell>
        <mxCell id="cL50vPJnZ7iQlfklZIFY-5" value="014" style="text;strokeColor=none;fillColor=none;spacingLeft=4;spacingRight=4;overflow=hidden;rotatable=0;points=[[0,0.5],[1,0.5]];portConstraint=eastwest;fontSize=12;" parent="cL50vPJnZ7iQlfklZIFY-4" vertex="1">
          <mxGeometry y="26" width="50" height="26" as="geometry" />
        </mxCell>
        <mxCell id="fNfkpXqPACDF3pxuw8M--1" value="013" style="text;strokeColor=none;fillColor=none;spacingLeft=4;spacingRight=4;overflow=hidden;rotatable=0;points=[[0,0.5],[1,0.5]];portConstraint=eastwest;fontSize=12;" parent="cL50vPJnZ7iQlfklZIFY-4" vertex="1">
          <mxGeometry y="52" width="50" height="26" as="geometry" />
        </mxCell>
        <mxCell id="cL50vPJnZ7iQlfklZIFY-0" value="Lote" style="swimlane;fontStyle=0;childLayout=stackLayout;horizontal=1;startSize=26;horizontalStack=0;resizeParent=1;resizeParentMax=0;resizeLast=0;collapsible=1;marginBottom=0;align=center;fontSize=14;" parent="R7eq6c7RX9BafvpeX78H-1" vertex="1">
          <mxGeometry x="331" y="335" width="30" height="78" as="geometry" />
        </mxCell>
        <mxCell id="cL50vPJnZ7iQlfklZIFY-1" value="1" style="text;strokeColor=none;fillColor=none;spacingLeft=4;spacingRight=4;overflow=hidden;rotatable=0;points=[[0,0.5],[1,0.5]];portConstraint=eastwest;fontSize=12;" parent="cL50vPJnZ7iQlfklZIFY-0" vertex="1">
          <mxGeometry y="26" width="30" height="26" as="geometry" />
        </mxCell>
        <mxCell id="cL50vPJnZ7iQlfklZIFY-2" value="2" style="text;strokeColor=none;fillColor=none;spacingLeft=4;spacingRight=4;overflow=hidden;rotatable=0;points=[[0,0.5],[1,0.5]];portConstraint=eastwest;fontSize=12;" parent="cL50vPJnZ7iQlfklZIFY-0" vertex="1">
          <mxGeometry y="52" width="30" height="26" as="geometry" />
        </mxCell>
        <mxCell id="fNfkpXqPACDF3pxuw8M--16" value="&lt;b&gt;&lt;font style=&quot;font-size: 16px&quot; color=&quot;#000000&quot;&gt;Solicitudes de insumos&lt;/font&gt;&lt;/b&gt;" style="text;html=1;strokeColor=none;fillColor=none;align=center;verticalAlign=middle;whiteSpace=wrap;rounded=0;fontColor=#80FF00;" parent="R7eq6c7RX9BafvpeX78H-1" vertex="1">
          <mxGeometry x="121" y="310" width="250" height="20" as="geometry" />
        </mxCell>
        <mxCell id="fNfkpXqPACDF3pxuw8M--4" value="Producto" style="swimlane;fontStyle=0;childLayout=stackLayout;horizontal=1;startSize=26;horizontalStack=0;resizeParent=1;resizeParentMax=0;resizeLast=0;collapsible=1;marginBottom=0;align=center;fontSize=14;" parent="R7eq6c7RX9BafvpeX78H-1" vertex="1">
          <mxGeometry x="361" y="335" width="150" height="78" as="geometry" />
        </mxCell>
        <mxCell id="fNfkpXqPACDF3pxuw8M--5" value="GLYFOSAN LTS" style="text;strokeColor=none;fillColor=none;spacingLeft=4;spacingRight=4;overflow=hidden;rotatable=0;points=[[0,0.5],[1,0.5]];portConstraint=eastwest;fontSize=12;" parent="fNfkpXqPACDF3pxuw8M--4" vertex="1">
          <mxGeometry y="26" width="150" height="26" as="geometry" />
        </mxCell>
        <mxCell id="fNfkpXqPACDF3pxuw8M--6" value="GARRA LTS" style="text;strokeColor=none;fillColor=none;spacingLeft=4;spacingRight=4;overflow=hidden;rotatable=0;points=[[0,0.5],[1,0.5]];portConstraint=eastwest;fontSize=12;" parent="fNfkpXqPACDF3pxuw8M--4" vertex="1">
          <mxGeometry y="52" width="150" height="26" as="geometry" />
        </mxCell>
        <mxCell id="fNfkpXqPACDF3pxuw8M--7" value="Cant. Sol" style="swimlane;fontStyle=0;childLayout=stackLayout;horizontal=1;startSize=26;horizontalStack=0;resizeParent=1;resizeParentMax=0;resizeLast=0;collapsible=1;marginBottom=0;align=center;fontSize=14;" parent="R7eq6c7RX9BafvpeX78H-1" vertex="1">
          <mxGeometry x="511" y="335" width="65" height="78" as="geometry" />
        </mxCell>
        <mxCell id="fNfkpXqPACDF3pxuw8M--8" value="10000" style="text;strokeColor=none;fillColor=none;spacingLeft=4;spacingRight=4;overflow=hidden;rotatable=0;points=[[0,0.5],[1,0.5]];portConstraint=eastwest;fontSize=12;" parent="fNfkpXqPACDF3pxuw8M--7" vertex="1">
          <mxGeometry y="26" width="65" height="26" as="geometry" />
        </mxCell>
        <mxCell id="fNfkpXqPACDF3pxuw8M--9" value="15000" style="text;strokeColor=none;fillColor=none;spacingLeft=4;spacingRight=4;overflow=hidden;rotatable=0;points=[[0,0.5],[1,0.5]];portConstraint=eastwest;fontSize=12;" parent="fNfkpXqPACDF3pxuw8M--7" vertex="1">
          <mxGeometry y="52" width="65" height="26" as="geometry" />
        </mxCell>
        <mxCell id="fNfkpXqPACDF3pxuw8M--10" value="Cant. Apr" style="swimlane;fontStyle=0;childLayout=stackLayout;horizontal=1;startSize=26;horizontalStack=0;resizeParent=1;resizeParentMax=0;resizeLast=0;collapsible=1;marginBottom=0;align=center;fontSize=14;" parent="R7eq6c7RX9BafvpeX78H-1" vertex="1">
          <mxGeometry x="576" y="335" width="60" height="78" as="geometry" />
        </mxCell>
        <mxCell id="fNfkpXqPACDF3pxuw8M--11" value="5000" style="text;strokeColor=none;fillColor=none;spacingLeft=4;spacingRight=4;overflow=hidden;rotatable=0;points=[[0,0.5],[1,0.5]];portConstraint=eastwest;fontSize=12;" parent="fNfkpXqPACDF3pxuw8M--10" vertex="1">
          <mxGeometry y="26" width="60" height="26" as="geometry" />
        </mxCell>
        <mxCell id="fNfkpXqPACDF3pxuw8M--12" value="10000" style="text;strokeColor=none;fillColor=none;spacingLeft=4;spacingRight=4;overflow=hidden;rotatable=0;points=[[0,0.5],[1,0.5]];portConstraint=eastwest;fontSize=12;" parent="fNfkpXqPACDF3pxuw8M--10" vertex="1">
          <mxGeometry y="52" width="60" height="26" as="geometry" />
        </mxCell>
        <mxCell id="OI2-MrHW9RFHr7mxw6ZL-0" value="Cant. Asig" style="swimlane;fontStyle=0;childLayout=stackLayout;horizontal=1;startSize=26;horizontalStack=0;resizeParent=1;resizeParentMax=0;resizeLast=0;collapsible=1;marginBottom=0;align=center;fontSize=14;" parent="R7eq6c7RX9BafvpeX78H-1" vertex="1">
          <mxGeometry x="636" y="335" width="60" height="78" as="geometry" />
        </mxCell>
        <mxCell id="OI2-MrHW9RFHr7mxw6ZL-1" value="Â " style="text;strokeColor=none;fillColor=none;spacingLeft=4;spacingRight=4;overflow=hidden;rotatable=0;points=[[0,0.5],[1,0.5]];portConstraint=eastwest;fontSize=12;" parent="OI2-MrHW9RFHr7mxw6ZL-0" vertex="1">
          <mxGeometry y="26" width="60" height="26" as="geometry" />
        </mxCell>
        <mxCell id="OI2-MrHW9RFHr7mxw6ZL-2" value="Â " style="text;strokeColor=none;fillColor=none;spacingLeft=4;spacingRight=4;overflow=hidden;rotatable=0;points=[[0,0.5],[1,0.5]];portConstraint=eastwest;fontSize=12;" parent="OI2-MrHW9RFHr7mxw6ZL-0" vertex="1">
          <mxGeometry y="52" width="60" height="26" as="geometry" />
        </mxCell>
        <mxCell id="OI2-MrHW9RFHr7mxw6ZL-9" value="&lt;b&gt;&lt;font style=&quot;font-size: 16px&quot; color=&quot;#000000&quot;&gt;DistribuciÃ³n de producto&lt;/font&gt;&lt;/b&gt;" style="text;html=1;strokeColor=none;fillColor=none;align=center;verticalAlign=middle;whiteSpace=wrap;rounded=0;fontColor=#80FF00;" parent="R7eq6c7RX9BafvpeX78H-1" vertex="1">
          <mxGeometry x="123" y="200" width="250" height="20" as="geometry" />
        </mxCell>
        <mxCell id="OI2-MrHW9RFHr7mxw6ZL-3" value="Producto" style="swimlane;fontStyle=0;childLayout=stackLayout;horizontal=1;startSize=26;horizontalStack=0;resizeParent=1;resizeParentMax=0;resizeLast=0;collapsible=1;marginBottom=0;align=center;fontSize=14;" parent="R7eq6c7RX9BafvpeX78H-1" vertex="1">
          <mxGeometry x="133" y="225" width="207" height="52" as="geometry" />
        </mxCell>
        <UserObject label="GARRA TIP 58Â " link="data:page/id,HjstkvXey1lv5Y4CraNw" id="OI2-MrHW9RFHr7mxw6ZL-4">
          <mxCell style="text;strokeColor=none;fillColor=none;spacingLeft=4;spacingRight=4;overflow=hidden;rotatable=0;points=[[0,0.5],[1,0.5]];portConstraint=eastwest;fontSize=12;" parent="OI2-MrHW9RFHr7mxw6ZL-3" vertex="1">
            <mxGeometry y="26" width="207" height="26" as="geometry" />
          </mxCell>
        </UserObject>
        <mxCell id="OI2-MrHW9RFHr7mxw6ZL-6" value="Cantidad" style="swimlane;fontStyle=0;childLayout=stackLayout;horizontal=1;startSize=26;horizontalStack=0;resizeParent=1;resizeParentMax=0;resizeLast=0;collapsible=1;marginBottom=0;align=center;fontSize=14;" parent="R7eq6c7RX9BafvpeX78H-1" vertex="1">
          <mxGeometry x="340" y="225" width="70" height="52" as="geometry" />
        </mxCell>
        <mxCell id="OI2-MrHW9RFHr7mxw6ZL-7" value="100.000" style="text;strokeColor=none;fillColor=none;spacingLeft=4;spacingRight=4;overflow=hidden;rotatable=0;points=[[0,0.5],[1,0.5]];portConstraint=eastwest;fontSize=12;" parent="OI2-MrHW9RFHr7mxw6ZL-6" vertex="1">
          <mxGeometry y="26" width="70" height="26" as="geometry" />
        </mxCell>
        <UserObject label="Asignar" link="data:page/id,8M-6_hCxolt1bFWpFSVC" id="OI2-MrHW9RFHr7mxw6ZL-10">
          <mxCell style="rounded=1;fillColor=#0057D8;align=center;strokeColor=none;html=1;fontColor=#ffffff;fontSize=12" parent="R7eq6c7RX9BafvpeX78H-1" vertex="1">
            <mxGeometry x="590" y="234.5" width="86" height="33" as="geometry" />
          </mxCell>
        </UserObject>
        <mxCell id="zDfBfZCsoL4JK18T4Al0-1" value="Porc. Dis." style="swimlane;fontStyle=0;childLayout=stackLayout;horizontal=1;startSize=26;horizontalStack=0;resizeParent=1;resizeParentMax=0;resizeLast=0;collapsible=1;marginBottom=0;align=center;fontSize=14;" parent="R7eq6c7RX9BafvpeX78H-1" vertex="1">
          <mxGeometry x="410" y="225" width="70" height="52" as="geometry" />
        </mxCell>
        <mxCell id="zDfBfZCsoL4JK18T4Al0-2" value="50" style="text;strokeColor=none;fillColor=none;spacingLeft=4;spacingRight=4;overflow=hidden;rotatable=0;points=[[0,0.5],[1,0.5]];portConstraint=eastwest;fontSize=12;" parent="zDfBfZCsoL4JK18T4Al0-1" vertex="1">
          <mxGeometry y="26" width="70" height="26" as="geometry" />
        </mxCell>
        <mxCell id="B_kkOnmVwsC6I8b_JKLL-0" value="Notas" parent="R7eq6c7RX9BafvpeX78H-0" />
        <mxCell id="B_kkOnmVwsC6I8b_JKLL-1" value="El criterio de asignaciÃ³n corresponderÃ­a a una relaciÃ³n entre las hectÃ¡reas y la cantidad aprobada por el tÃ©cnico." style="shape=note;strokeWidth=2;fontSize=14;size=20;whiteSpace=wrap;html=1;fillColor=#fff2cc;strokeColor=#d6b656;fontColor=#666600;align=center;" vertex="1" parent="B_kkOnmVwsC6I8b_JKLL-0">
          <mxGeometry x="728" y="160" width="166" height="100" as="geometry" />
        </mxCell>
        <mxCell id="B_kkOnmVwsC6I8b_JKLL-2" value="" style="endArrow=classic;html=1;fontColor=#000000;exitX=0;exitY=0.5;exitDx=0;exitDy=0;exitPerimeter=0;entryX=1;entryY=0.5;entryDx=0;entryDy=0;" edge="1" parent="B_kkOnmVwsC6I8b_JKLL-0" source="B_kkOnmVwsC6I8b_JKLL-1">
          <mxGeometry width="50" height="50" relative="1" as="geometry">
            <mxPoint x="750" y="140" as="sourcePoint" />
            <mxPoint x="676" y="251" as="targetPoint" />
          </mxGeometry>
        </mxCell>
        <mxCell id="B_kkOnmVwsC6I8b_JKLL-3" value="Porcentaje de distribuciÃ³n. Porcentaje de las Ha aprobadas a cubrir en la distribuciÃ³n por solicitud" style="shape=note;strokeWidth=2;fontSize=14;size=20;whiteSpace=wrap;html=1;fillColor=#fff2cc;strokeColor=#d6b656;fontColor=#666600;align=center;" vertex="1" parent="B_kkOnmVwsC6I8b_JKLL-0">
          <mxGeometry x="728" y="50" width="172" height="100" as="geometry" />
        </mxCell>
        <mxCell id="B_kkOnmVwsC6I8b_JKLL-4" value="" style="endArrow=classic;html=1;fontColor=#000000;exitX=0;exitY=0.5;exitDx=0;exitDy=0;exitPerimeter=0;entryX=1;entryY=0.5;entryDx=0;entryDy=0;" edge="1" parent="B_kkOnmVwsC6I8b_JKLL-0" source="B_kkOnmVwsC6I8b_JKLL-3">
          <mxGeometry width="50" height="50" relative="1" as="geometry">
            <mxPoint x="812" y="337.5" as="sourcePoint" />
            <mxPoint x="480" y="264" as="targetPoint" />
          </mxGeometry>
        </mxCell>
      </root>
    </mxGraphModel>
  </diagram>
  <diagram id="HjstkvXey1lv5Y4CraNw" name="Sup - Page-2">
    <mxGraphModel dx="828" dy="492" grid="1" gridSize="10" guides="1" tooltips="1" connect="1" arrows="1" fold="1" page="1" pageScale="1" pageWidth="827" pageHeight="1169" math="0" shadow="0">
      <root>
        <mxCell id="FrOtxhtD2BIyUAsvoRDs-0" />
        <mxCell id="FrOtxhtD2BIyUAsvoRDs-1" parent="FrOtxhtD2BIyUAsvoRDs-0" />
        <mxCell id="3lXIiG9UWaOj1GkZ1HCe-0" value="SQLFIGO" style="strokeWidth=1;shadow=0;dashed=0;align=center;html=1;shape=mxgraph.mockup.containers.window;align=left;verticalAlign=top;spacingLeft=8;strokeColor2=#008cff;strokeColor3=#c4c4c4;fontColor=#666666;mainText=;fontSize=17;labelBackgroundColor=none;" parent="FrOtxhtD2BIyUAsvoRDs-1" vertex="1">
          <mxGeometry x="110" y="60" width="610" height="380" as="geometry" />
        </mxCell>
        <mxCell id="3lXIiG9UWaOj1GkZ1HCe-1" value="" style="verticalLabelPosition=bottom;shadow=0;dashed=0;align=center;html=1;verticalAlign=top;strokeWidth=1;shape=mxgraph.mockup.graphics.simpleIcon;strokeColor=#999999;fontColor=#80FF00;" parent="FrOtxhtD2BIyUAsvoRDs-1" vertex="1">
          <mxGeometry x="140" y="110" width="100" height="50" as="geometry" />
        </mxCell>
        <mxCell id="3lXIiG9UWaOj1GkZ1HCe-2" value="" style="verticalLabelPosition=bottom;shadow=0;dashed=0;align=center;html=1;verticalAlign=top;strokeWidth=1;shape=mxgraph.mockup.graphics.simpleIcon;strokeColor=#999999;fontColor=#80FF00;" parent="FrOtxhtD2BIyUAsvoRDs-1" vertex="1">
          <mxGeometry x="340" y="110" width="100" height="50" as="geometry" />
        </mxCell>
        <mxCell id="3lXIiG9UWaOj1GkZ1HCe-3" value="&lt;table border=&quot;1&quot; width=&quot;100%&quot; style=&quot;width: 100% ; height: 100% ; border-collapse: collapse&quot;&gt;&lt;tbody&gt;&lt;tr&gt;&lt;td align=&quot;center&quot;&gt;&amp;nbsp;&lt;/td&gt;&lt;td align=&quot;center&quot;&gt;&amp;nbsp;&lt;/td&gt;&lt;td align=&quot;center&quot;&gt;&amp;nbsp;&lt;/td&gt;&lt;/tr&gt;&lt;tr&gt;&lt;td align=&quot;center&quot;&gt;&amp;nbsp;&amp;nbsp;&lt;/td&gt;&lt;td align=&quot;center&quot;&gt;&amp;nbsp;&amp;nbsp;&lt;/td&gt;&lt;td align=&quot;center&quot;&gt;&lt;br&gt;&lt;/td&gt;&lt;/tr&gt;&lt;tr&gt;&lt;td align=&quot;center&quot;&gt;&lt;/td&gt;&lt;td align=&quot;center&quot;&gt;&lt;br&gt;&lt;/td&gt;&lt;td align=&quot;center&quot;&gt;&amp;nbsp;&lt;/td&gt;&lt;/tr&gt;&lt;/tbody&gt;&lt;/table&gt;" style="text;html=1;strokeColor=none;fillColor=none;overflow=fill;fontColor=#80FF00;align=center;" parent="FrOtxhtD2BIyUAsvoRDs-1" vertex="1">
          <mxGeometry x="550" y="110" width="90" height="60" as="geometry" />
        </mxCell>
        <mxCell id="3lXIiG9UWaOj1GkZ1HCe-4" value="&lt;b&gt;&lt;font style=&quot;font-size: 16px&quot; color=&quot;#000000&quot;&gt;AprobaciÃ³n de solicitudes&lt;/font&gt;&lt;/b&gt;" style="text;html=1;strokeColor=none;fillColor=none;align=center;verticalAlign=middle;whiteSpace=wrap;rounded=0;fontColor=#80FF00;" parent="FrOtxhtD2BIyUAsvoRDs-1" vertex="1">
          <mxGeometry x="270" y="170" width="250" height="20" as="geometry" />
        </mxCell>
        <mxCell id="3lXIiG9UWaOj1GkZ1HCe-5" value="Sol. Insumo" style="swimlane;fontStyle=0;childLayout=stackLayout;horizontal=1;startSize=26;horizontalStack=0;resizeParent=1;resizeParentMax=0;resizeLast=0;collapsible=1;marginBottom=0;align=center;fontSize=14;" parent="FrOtxhtD2BIyUAsvoRDs-1" vertex="1">
          <mxGeometry x="131" y="335" width="80" height="78" as="geometry" />
        </mxCell>
        <mxCell id="3lXIiG9UWaOj1GkZ1HCe-6" value="SOEI0001" style="text;strokeColor=none;fillColor=none;spacingLeft=4;spacingRight=4;overflow=hidden;rotatable=0;points=[[0,0.5],[1,0.5]];portConstraint=eastwest;fontSize=12;" parent="3lXIiG9UWaOj1GkZ1HCe-5" vertex="1">
          <mxGeometry y="26" width="80" height="26" as="geometry" />
        </mxCell>
        <mxCell id="3lXIiG9UWaOj1GkZ1HCe-7" value="SOEI0003" style="text;strokeColor=none;fillColor=none;spacingLeft=4;spacingRight=4;overflow=hidden;rotatable=0;points=[[0,0.5],[1,0.5]];portConstraint=eastwest;fontSize=12;" parent="3lXIiG9UWaOj1GkZ1HCe-5" vertex="1">
          <mxGeometry y="52" width="80" height="26" as="geometry" />
        </mxCell>
        <mxCell id="3lXIiG9UWaOj1GkZ1HCe-8" value="Sol. Apoyo" style="swimlane;fontStyle=0;childLayout=stackLayout;horizontal=1;startSize=26;horizontalStack=0;resizeParent=1;resizeParentMax=0;resizeLast=0;collapsible=1;marginBottom=0;align=center;fontSize=14;" parent="FrOtxhtD2BIyUAsvoRDs-1" vertex="1">
          <mxGeometry x="211" y="335" width="70" height="78" as="geometry" />
        </mxCell>
        <mxCell id="3lXIiG9UWaOj1GkZ1HCe-9" value="00001265" style="text;strokeColor=none;fillColor=none;spacingLeft=4;spacingRight=4;overflow=hidden;rotatable=0;points=[[0,0.5],[1,0.5]];portConstraint=eastwest;fontSize=12;" parent="3lXIiG9UWaOj1GkZ1HCe-8" vertex="1">
          <mxGeometry y="26" width="70" height="26" as="geometry" />
        </mxCell>
        <mxCell id="3lXIiG9UWaOj1GkZ1HCe-10" value="00001365" style="text;strokeColor=none;fillColor=none;spacingLeft=4;spacingRight=4;overflow=hidden;rotatable=0;points=[[0,0.5],[1,0.5]];portConstraint=eastwest;fontSize=12;" parent="3lXIiG9UWaOj1GkZ1HCe-8" vertex="1">
          <mxGeometry y="52" width="70" height="26" as="geometry" />
        </mxCell>
        <mxCell id="3lXIiG9UWaOj1GkZ1HCe-11" value="Finca" style="swimlane;fontStyle=0;childLayout=stackLayout;horizontal=1;startSize=26;horizontalStack=0;resizeParent=1;resizeParentMax=0;resizeLast=0;collapsible=1;marginBottom=0;align=center;fontSize=14;" parent="FrOtxhtD2BIyUAsvoRDs-1" vertex="1">
          <mxGeometry x="281" y="335" width="50" height="78" as="geometry" />
        </mxCell>
        <mxCell id="3lXIiG9UWaOj1GkZ1HCe-12" value="014" style="text;strokeColor=none;fillColor=none;spacingLeft=4;spacingRight=4;overflow=hidden;rotatable=0;points=[[0,0.5],[1,0.5]];portConstraint=eastwest;fontSize=12;" parent="3lXIiG9UWaOj1GkZ1HCe-11" vertex="1">
          <mxGeometry y="26" width="50" height="26" as="geometry" />
        </mxCell>
        <mxCell id="3lXIiG9UWaOj1GkZ1HCe-13" value="013" style="text;strokeColor=none;fillColor=none;spacingLeft=4;spacingRight=4;overflow=hidden;rotatable=0;points=[[0,0.5],[1,0.5]];portConstraint=eastwest;fontSize=12;" parent="3lXIiG9UWaOj1GkZ1HCe-11" vertex="1">
          <mxGeometry y="52" width="50" height="26" as="geometry" />
        </mxCell>
        <mxCell id="3lXIiG9UWaOj1GkZ1HCe-14" value="Lote" style="swimlane;fontStyle=0;childLayout=stackLayout;horizontal=1;startSize=26;horizontalStack=0;resizeParent=1;resizeParentMax=0;resizeLast=0;collapsible=1;marginBottom=0;align=center;fontSize=14;" parent="FrOtxhtD2BIyUAsvoRDs-1" vertex="1">
          <mxGeometry x="331" y="335" width="30" height="78" as="geometry" />
        </mxCell>
        <mxCell id="3lXIiG9UWaOj1GkZ1HCe-15" value="1" style="text;strokeColor=none;fillColor=none;spacingLeft=4;spacingRight=4;overflow=hidden;rotatable=0;points=[[0,0.5],[1,0.5]];portConstraint=eastwest;fontSize=12;" parent="3lXIiG9UWaOj1GkZ1HCe-14" vertex="1">
          <mxGeometry y="26" width="30" height="26" as="geometry" />
        </mxCell>
        <mxCell id="3lXIiG9UWaOj1GkZ1HCe-16" value="2" style="text;strokeColor=none;fillColor=none;spacingLeft=4;spacingRight=4;overflow=hidden;rotatable=0;points=[[0,0.5],[1,0.5]];portConstraint=eastwest;fontSize=12;" parent="3lXIiG9UWaOj1GkZ1HCe-14" vertex="1">
          <mxGeometry y="52" width="30" height="26" as="geometry" />
        </mxCell>
        <mxCell id="3lXIiG9UWaOj1GkZ1HCe-17" value="&lt;b&gt;&lt;font style=&quot;font-size: 16px&quot; color=&quot;#000000&quot;&gt;Solicitudes de insumos&lt;/font&gt;&lt;/b&gt;" style="text;html=1;strokeColor=none;fillColor=none;align=center;verticalAlign=middle;whiteSpace=wrap;rounded=0;fontColor=#80FF00;" parent="FrOtxhtD2BIyUAsvoRDs-1" vertex="1">
          <mxGeometry x="121" y="310" width="250" height="20" as="geometry" />
        </mxCell>
        <mxCell id="3lXIiG9UWaOj1GkZ1HCe-18" value="Producto" style="swimlane;fontStyle=0;childLayout=stackLayout;horizontal=1;startSize=26;horizontalStack=0;resizeParent=1;resizeParentMax=0;resizeLast=0;collapsible=1;marginBottom=0;align=center;fontSize=14;" parent="FrOtxhtD2BIyUAsvoRDs-1" vertex="1">
          <mxGeometry x="361" y="335" width="150" height="78" as="geometry" />
        </mxCell>
        <mxCell id="3lXIiG9UWaOj1GkZ1HCe-19" value="GLYFOSAN LTS" style="text;strokeColor=none;fillColor=none;spacingLeft=4;spacingRight=4;overflow=hidden;rotatable=0;points=[[0,0.5],[1,0.5]];portConstraint=eastwest;fontSize=12;" parent="3lXIiG9UWaOj1GkZ1HCe-18" vertex="1">
          <mxGeometry y="26" width="150" height="26" as="geometry" />
        </mxCell>
        <mxCell id="3lXIiG9UWaOj1GkZ1HCe-20" value="GARRA LTS" style="text;strokeColor=none;fillColor=none;spacingLeft=4;spacingRight=4;overflow=hidden;rotatable=0;points=[[0,0.5],[1,0.5]];portConstraint=eastwest;fontSize=12;" parent="3lXIiG9UWaOj1GkZ1HCe-18" vertex="1">
          <mxGeometry y="52" width="150" height="26" as="geometry" />
        </mxCell>
        <mxCell id="3lXIiG9UWaOj1GkZ1HCe-21" value="Cant. Sol" style="swimlane;fontStyle=0;childLayout=stackLayout;horizontal=1;startSize=26;horizontalStack=0;resizeParent=1;resizeParentMax=0;resizeLast=0;collapsible=1;marginBottom=0;align=center;fontSize=14;" parent="FrOtxhtD2BIyUAsvoRDs-1" vertex="1">
          <mxGeometry x="511" y="335" width="65" height="78" as="geometry" />
        </mxCell>
        <mxCell id="3lXIiG9UWaOj1GkZ1HCe-22" value="10000" style="text;strokeColor=none;fillColor=none;spacingLeft=4;spacingRight=4;overflow=hidden;rotatable=0;points=[[0,0.5],[1,0.5]];portConstraint=eastwest;fontSize=12;" parent="3lXIiG9UWaOj1GkZ1HCe-21" vertex="1">
          <mxGeometry y="26" width="65" height="26" as="geometry" />
        </mxCell>
        <mxCell id="3lXIiG9UWaOj1GkZ1HCe-23" value="15000" style="text;strokeColor=none;fillColor=none;spacingLeft=4;spacingRight=4;overflow=hidden;rotatable=0;points=[[0,0.5],[1,0.5]];portConstraint=eastwest;fontSize=12;" parent="3lXIiG9UWaOj1GkZ1HCe-21" vertex="1">
          <mxGeometry y="52" width="65" height="26" as="geometry" />
        </mxCell>
        <mxCell id="3lXIiG9UWaOj1GkZ1HCe-24" value="Cant. Apr" style="swimlane;fontStyle=0;childLayout=stackLayout;horizontal=1;startSize=26;horizontalStack=0;resizeParent=1;resizeParentMax=0;resizeLast=0;collapsible=1;marginBottom=0;align=center;fontSize=14;" parent="FrOtxhtD2BIyUAsvoRDs-1" vertex="1">
          <mxGeometry x="576" y="335" width="60" height="78" as="geometry" />
        </mxCell>
        <mxCell id="3lXIiG9UWaOj1GkZ1HCe-25" value="5000" style="text;strokeColor=none;fillColor=none;spacingLeft=4;spacingRight=4;overflow=hidden;rotatable=0;points=[[0,0.5],[1,0.5]];portConstraint=eastwest;fontSize=12;" parent="3lXIiG9UWaOj1GkZ1HCe-24" vertex="1">
          <mxGeometry y="26" width="60" height="26" as="geometry" />
        </mxCell>
        <mxCell id="3lXIiG9UWaOj1GkZ1HCe-26" value="10000" style="text;strokeColor=none;fillColor=none;spacingLeft=4;spacingRight=4;overflow=hidden;rotatable=0;points=[[0,0.5],[1,0.5]];portConstraint=eastwest;fontSize=12;" parent="3lXIiG9UWaOj1GkZ1HCe-24" vertex="1">
          <mxGeometry y="52" width="60" height="26" as="geometry" />
        </mxCell>
        <mxCell id="3lXIiG9UWaOj1GkZ1HCe-27" value="Cant. Asig" style="swimlane;fontStyle=0;childLayout=stackLayout;horizontal=1;startSize=26;horizontalStack=0;resizeParent=1;resizeParentMax=0;resizeLast=0;collapsible=1;marginBottom=0;align=center;fontSize=14;" parent="FrOtxhtD2BIyUAsvoRDs-1" vertex="1">
          <mxGeometry x="636" y="335" width="60" height="78" as="geometry" />
        </mxCell>
        <mxCell id="3lXIiG9UWaOj1GkZ1HCe-28" value="5000" style="text;strokeColor=none;fillColor=none;spacingLeft=4;spacingRight=4;overflow=hidden;rotatable=0;points=[[0,0.5],[1,0.5]];portConstraint=eastwest;fontSize=12;" parent="3lXIiG9UWaOj1GkZ1HCe-27" vertex="1">
          <mxGeometry y="26" width="60" height="26" as="geometry" />
        </mxCell>
        <mxCell id="3lXIiG9UWaOj1GkZ1HCe-29" value="10000" style="text;strokeColor=none;fillColor=none;spacingLeft=4;spacingRight=4;overflow=hidden;rotatable=0;points=[[0,0.5],[1,0.5]];portConstraint=eastwest;fontSize=12;" parent="3lXIiG9UWaOj1GkZ1HCe-27" vertex="1">
          <mxGeometry y="52" width="60" height="26" as="geometry" />
        </mxCell>
        <mxCell id="3lXIiG9UWaOj1GkZ1HCe-30" value="&lt;b&gt;&lt;font style=&quot;font-size: 16px&quot; color=&quot;#000000&quot;&gt;DistribuciÃ³n de producto&lt;/font&gt;&lt;/b&gt;" style="text;html=1;strokeColor=none;fillColor=none;align=center;verticalAlign=middle;whiteSpace=wrap;rounded=0;fontColor=#80FF00;" parent="FrOtxhtD2BIyUAsvoRDs-1" vertex="1">
          <mxGeometry x="123" y="200" width="250" height="20" as="geometry" />
        </mxCell>
        <mxCell id="3lXIiG9UWaOj1GkZ1HCe-31" value="Producto" style="swimlane;fontStyle=0;childLayout=stackLayout;horizontal=1;startSize=26;horizontalStack=0;resizeParent=1;resizeParentMax=0;resizeLast=0;collapsible=1;marginBottom=0;align=center;fontSize=14;" parent="FrOtxhtD2BIyUAsvoRDs-1" vertex="1">
          <mxGeometry x="133" y="225" width="207" height="52" as="geometry" />
        </mxCell>
        <mxCell id="3lXIiG9UWaOj1GkZ1HCe-32" value="GARRA TIP 58Â " style="text;strokeColor=none;fillColor=none;spacingLeft=4;spacingRight=4;overflow=hidden;rotatable=0;points=[[0,0.5],[1,0.5]];portConstraint=eastwest;fontSize=12;" parent="3lXIiG9UWaOj1GkZ1HCe-31" vertex="1">
          <mxGeometry y="26" width="207" height="26" as="geometry" />
        </mxCell>
        <mxCell id="3lXIiG9UWaOj1GkZ1HCe-33" value="Cantidad" style="swimlane;fontStyle=0;childLayout=stackLayout;horizontal=1;startSize=26;horizontalStack=0;resizeParent=1;resizeParentMax=0;resizeLast=0;collapsible=1;marginBottom=0;align=center;fontSize=14;" parent="FrOtxhtD2BIyUAsvoRDs-1" vertex="1">
          <mxGeometry x="340" y="225" width="70" height="52" as="geometry" />
        </mxCell>
        <mxCell id="3lXIiG9UWaOj1GkZ1HCe-34" value="100.000" style="text;strokeColor=none;fillColor=none;spacingLeft=4;spacingRight=4;overflow=hidden;rotatable=0;points=[[0,0.5],[1,0.5]];portConstraint=eastwest;fontSize=12;" parent="3lXIiG9UWaOj1GkZ1HCe-33" vertex="1">
          <mxGeometry y="26" width="70" height="26" as="geometry" />
        </mxCell>
        <mxCell id="3lXIiG9UWaOj1GkZ1HCe-35" value="Asignar" style="rounded=1;fillColor=#0057D8;align=center;strokeColor=none;html=1;fontColor=#ffffff;fontSize=12" parent="FrOtxhtD2BIyUAsvoRDs-1" vertex="1">
          <mxGeometry x="590" y="234.5" width="86" height="33" as="geometry" />
        </mxCell>
        <mxCell id="yJb8TbbkkTYUx2K9Yi6h-0" value="El criterio de asignaciÃ³n corresponderÃ­a a una relaciÃ³n entre las hectÃ¡reas y la cantidad aprobada por el tÃ©cnico." style="shape=note;strokeWidth=2;fontSize=14;size=20;whiteSpace=wrap;html=1;fillColor=#fff2cc;strokeColor=#d6b656;fontColor=#666600;align=center;" parent="FrOtxhtD2BIyUAsvoRDs-1" vertex="1">
          <mxGeometry x="728" y="160" width="166" height="100" as="geometry" />
        </mxCell>
        <mxCell id="yJb8TbbkkTYUx2K9Yi6h-1" value="" style="endArrow=classic;html=1;fontColor=#000000;exitX=0;exitY=0.5;exitDx=0;exitDy=0;exitPerimeter=0;entryX=1;entryY=0.5;entryDx=0;entryDy=0;" parent="FrOtxhtD2BIyUAsvoRDs-1" source="yJb8TbbkkTYUx2K9Yi6h-0" edge="1">
          <mxGeometry width="50" height="50" relative="1" as="geometry">
            <mxPoint x="750" y="140" as="sourcePoint" />
            <mxPoint x="676" y="251" as="targetPoint" />
          </mxGeometry>
        </mxCell>
        <mxCell id="yJb8TbbkkTYUx2K9Yi6h-2" value="Porc. Dis." style="swimlane;fontStyle=0;childLayout=stackLayout;horizontal=1;startSize=26;horizontalStack=0;resizeParent=1;resizeParentMax=0;resizeLast=0;collapsible=1;marginBottom=0;align=center;fontSize=14;" parent="FrOtxhtD2BIyUAsvoRDs-1" vertex="1">
          <mxGeometry x="410" y="225" width="70" height="52" as="geometry" />
        </mxCell>
        <mxCell id="yJb8TbbkkTYUx2K9Yi6h-3" value="50" style="text;strokeColor=none;fillColor=none;spacingLeft=4;spacingRight=4;overflow=hidden;rotatable=0;points=[[0,0.5],[1,0.5]];portConstraint=eastwest;fontSize=12;" parent="yJb8TbbkkTYUx2K9Yi6h-2" vertex="1">
          <mxGeometry y="26" width="70" height="26" as="geometry" />
        </mxCell>
        <mxCell id="yJb8TbbkkTYUx2K9Yi6h-4" value="Porcentaje de distribuciÃ³n. Porcentaje de las Ha aprobadas a cubrir en la distribuciÃ³n por solicitud" style="shape=note;strokeWidth=2;fontSize=14;size=20;whiteSpace=wrap;html=1;fillColor=#fff2cc;strokeColor=#d6b656;fontColor=#666600;align=center;" parent="FrOtxhtD2BIyUAsvoRDs-1" vertex="1">
          <mxGeometry x="728" y="50" width="172" height="100" as="geometry" />
        </mxCell>
        <mxCell id="yJb8TbbkkTYUx2K9Yi6h-5" value="" style="endArrow=classic;html=1;fontColor=#000000;exitX=0;exitY=0.5;exitDx=0;exitDy=0;exitPerimeter=0;entryX=1;entryY=0.5;entryDx=0;entryDy=0;" parent="FrOtxhtD2BIyUAsvoRDs-1" source="yJb8TbbkkTYUx2K9Yi6h-4" target="yJb8TbbkkTYUx2K9Yi6h-3" edge="1">
          <mxGeometry width="50" height="50" relative="1" as="geometry">
            <mxPoint x="812" y="337.5" as="sourcePoint" />
            <mxPoint x="738" y="448.5" as="targetPoint" />
          </mxGeometry>
        </mxCell>
        <mxCell id="3lXIiG9UWaOj1GkZ1HCe-37" value="" style="rounded=0;whiteSpace=wrap;html=1;fillColor=#3D3D3D;strokeColor=#666666;fontColor=#333333;opacity=60;" parent="FrOtxhtD2BIyUAsvoRDs-1" vertex="1">
          <mxGeometry x="110" y="60" width="610" height="380" as="geometry" />
        </mxCell>
        <mxCell id="3lXIiG9UWaOj1GkZ1HCe-38" value="SQLFIGO" style="strokeWidth=1;shadow=0;dashed=0;align=center;html=1;shape=mxgraph.mockup.containers.window;align=left;verticalAlign=top;spacingLeft=8;strokeColor2=#008cff;strokeColor3=#c4c4c4;fontColor=#666666;mainText=;fontSize=17;labelBackgroundColor=none;" parent="FrOtxhtD2BIyUAsvoRDs-1" vertex="1">
          <mxGeometry x="250" y="150" width="330" height="200" as="geometry" />
        </mxCell>
        <mxCell id="3lXIiG9UWaOj1GkZ1HCe-47" value="&lt;span style=&quot;font-size: 13px&quot;&gt;%GAR%&lt;/span&gt;" style="strokeWidth=1;html=1;shadow=0;dashed=0;shape=mxgraph.ios.iTextInput;buttonText=;fontSize=8;whiteSpace=wrap;align=left;opacity=60;" parent="FrOtxhtD2BIyUAsvoRDs-1" vertex="1">
          <mxGeometry x="275" y="190" width="280" height="25" as="geometry" />
        </mxCell>
        <mxCell id="3lXIiG9UWaOj1GkZ1HCe-39" value="Nombre" style="swimlane;fontStyle=0;childLayout=stackLayout;horizontal=1;startSize=26;fillColor=none;horizontalStack=0;resizeParent=1;resizeParentMax=0;resizeLast=0;collapsible=1;marginBottom=0;opacity=60;" parent="FrOtxhtD2BIyUAsvoRDs-1" vertex="1">
          <mxGeometry x="415" y="231" width="140" height="104" as="geometry" />
        </mxCell>
        <UserObject label="GARRA LTS" link="data:page/id,garubnWpSRNnTbaeML0r" id="3lXIiG9UWaOj1GkZ1HCe-40">
          <mxCell style="text;strokeColor=none;fillColor=none;align=left;verticalAlign=top;spacingLeft=4;spacingRight=4;overflow=hidden;rotatable=0;points=[[0,0.5],[1,0.5]];portConstraint=eastwest;" parent="3lXIiG9UWaOj1GkZ1HCe-39" vertex="1">
            <mxGeometry y="26" width="140" height="26" as="geometry" />
          </mxCell>
        </UserObject>
        <UserObject label="GARRA TIP 58" link="data:page/id,garubnWpSRNnTbaeML0r" id="3lXIiG9UWaOj1GkZ1HCe-41">
          <mxCell style="text;strokeColor=none;fillColor=none;align=left;verticalAlign=top;spacingLeft=4;spacingRight=4;overflow=hidden;rotatable=0;points=[[0,0.5],[1,0.5]];portConstraint=eastwest;" parent="3lXIiG9UWaOj1GkZ1HCe-39" vertex="1">
            <mxGeometry y="52" width="140" height="26" as="geometry" />
          </mxCell>
        </UserObject>
        <UserObject label="GAROTRO..." link="data:page/id,garubnWpSRNnTbaeML0r" id="3lXIiG9UWaOj1GkZ1HCe-42">
          <mxCell style="text;strokeColor=none;fillColor=none;align=left;verticalAlign=top;spacingLeft=4;spacingRight=4;overflow=hidden;rotatable=0;points=[[0,0.5],[1,0.5]];portConstraint=eastwest;" parent="3lXIiG9UWaOj1GkZ1HCe-39" vertex="1">
            <mxGeometry y="78" width="140" height="26" as="geometry" />
          </mxCell>
        </UserObject>
        <mxCell id="3lXIiG9UWaOj1GkZ1HCe-43" value="CÃ³digo" style="swimlane;fontStyle=0;childLayout=stackLayout;horizontal=1;startSize=26;fillColor=none;horizontalStack=0;resizeParent=1;resizeParentMax=0;resizeLast=0;collapsible=1;marginBottom=0;opacity=60;" parent="FrOtxhtD2BIyUAsvoRDs-1" vertex="1">
          <mxGeometry x="275" y="231" width="140" height="104" as="geometry" />
        </mxCell>
        <UserObject label="01-01-06-0000001" link="data:page/id,garubnWpSRNnTbaeML0r" id="3lXIiG9UWaOj1GkZ1HCe-44">
          <mxCell style="text;strokeColor=none;fillColor=none;align=left;verticalAlign=top;spacingLeft=4;spacingRight=4;overflow=hidden;rotatable=0;points=[[0,0.5],[1,0.5]];portConstraint=eastwest;" parent="3lXIiG9UWaOj1GkZ1HCe-43" vertex="1">
            <mxGeometry y="26" width="140" height="26" as="geometry" />
          </mxCell>
        </UserObject>
        <UserObject label="01-01-06-0000002" link="data:page/id,garubnWpSRNnTbaeML0r" id="3lXIiG9UWaOj1GkZ1HCe-45">
          <mxCell style="text;strokeColor=none;fillColor=none;align=left;verticalAlign=top;spacingLeft=4;spacingRight=4;overflow=hidden;rotatable=0;points=[[0,0.5],[1,0.5]];portConstraint=eastwest;" parent="3lXIiG9UWaOj1GkZ1HCe-43" vertex="1">
            <mxGeometry y="52" width="140" height="26" as="geometry" />
          </mxCell>
        </UserObject>
        <UserObject label="01-01-06-0000003" link="data:page/id,garubnWpSRNnTbaeML0r" id="3lXIiG9UWaOj1GkZ1HCe-46">
          <mxCell style="text;strokeColor=none;fillColor=none;align=left;verticalAlign=top;spacingLeft=4;spacingRight=4;overflow=hidden;rotatable=0;points=[[0,0.5],[1,0.5]];portConstraint=eastwest;" parent="3lXIiG9UWaOj1GkZ1HCe-43" vertex="1">
            <mxGeometry y="78" width="140" height="26" as="geometry" />
          </mxCell>
        </UserObject>
      </root>
    </mxGraphModel>
  </diagram>
  <diagram id="8M-6_hCxolt1bFWpFSVC" name="Sup - Page-3">
    <mxGraphModel dx="828" dy="492" grid="1" gridSize="10" guides="1" tooltips="1" connect="1" arrows="1" fold="1" page="1" pageScale="1" pageWidth="827" pageHeight="1169" math="0" shadow="0">
      <root>
        <mxCell id="rH5CH919fxMjNGGeitcy-0" />
        <mxCell id="rH5CH919fxMjNGGeitcy-1" parent="rH5CH919fxMjNGGeitcy-0" />
        <mxCell id="jMRZVWawEb6rvSisNbMm-0" value="SQLFIGO" style="strokeWidth=1;shadow=0;dashed=0;align=center;html=1;shape=mxgraph.mockup.containers.window;align=left;verticalAlign=top;spacingLeft=8;strokeColor2=#008cff;strokeColor3=#c4c4c4;fontColor=#666666;mainText=;fontSize=17;labelBackgroundColor=none;" parent="rH5CH919fxMjNGGeitcy-1" vertex="1">
          <mxGeometry x="110" y="60" width="610" height="380" as="geometry" />
        </mxCell>
        <mxCell id="jMRZVWawEb6rvSisNbMm-1" value="" style="verticalLabelPosition=bottom;shadow=0;dashed=0;align=center;html=1;verticalAlign=top;strokeWidth=1;shape=mxgraph.mockup.graphics.simpleIcon;strokeColor=#999999;fontColor=#80FF00;" parent="rH5CH919fxMjNGGeitcy-1" vertex="1">
          <mxGeometry x="140" y="110" width="100" height="50" as="geometry" />
        </mxCell>
        <mxCell id="jMRZVWawEb6rvSisNbMm-2" value="" style="verticalLabelPosition=bottom;shadow=0;dashed=0;align=center;html=1;verticalAlign=top;strokeWidth=1;shape=mxgraph.mockup.graphics.simpleIcon;strokeColor=#999999;fontColor=#80FF00;" parent="rH5CH919fxMjNGGeitcy-1" vertex="1">
          <mxGeometry x="340" y="110" width="100" height="50" as="geometry" />
        </mxCell>
        <mxCell id="jMRZVWawEb6rvSisNbMm-3" value="&lt;table border=&quot;1&quot; width=&quot;100%&quot; style=&quot;width: 100% ; height: 100% ; border-collapse: collapse&quot;&gt;&lt;tbody&gt;&lt;tr&gt;&lt;td align=&quot;center&quot;&gt;&amp;nbsp;&lt;/td&gt;&lt;td align=&quot;center&quot;&gt;&amp;nbsp;&lt;/td&gt;&lt;td align=&quot;center&quot;&gt;&amp;nbsp;&lt;/td&gt;&lt;/tr&gt;&lt;tr&gt;&lt;td align=&quot;center&quot;&gt;&amp;nbsp;&amp;nbsp;&lt;/td&gt;&lt;td align=&quot;center&quot;&gt;&amp;nbsp;&amp;nbsp;&lt;/td&gt;&lt;td align=&quot;center&quot;&gt;&lt;br&gt;&lt;/td&gt;&lt;/tr&gt;&lt;tr&gt;&lt;td align=&quot;center&quot;&gt;&lt;/td&gt;&lt;td align=&quot;center&quot;&gt;&lt;br&gt;&lt;/td&gt;&lt;td align=&quot;center&quot;&gt;&amp;nbsp;&lt;/td&gt;&lt;/tr&gt;&lt;/tbody&gt;&lt;/table&gt;" style="text;html=1;strokeColor=none;fillColor=none;overflow=fill;fontColor=#80FF00;align=center;" parent="rH5CH919fxMjNGGeitcy-1" vertex="1">
          <mxGeometry x="550" y="110" width="90" height="60" as="geometry" />
        </mxCell>
        <mxCell id="jMRZVWawEb6rvSisNbMm-4" value="&lt;b&gt;&lt;font style=&quot;font-size: 16px&quot; color=&quot;#000000&quot;&gt;AprobaciÃ³n de solicitudes&lt;/font&gt;&lt;/b&gt;" style="text;html=1;strokeColor=none;fillColor=none;align=center;verticalAlign=middle;whiteSpace=wrap;rounded=0;fontColor=#80FF00;" parent="rH5CH919fxMjNGGeitcy-1" vertex="1">
          <mxGeometry x="270" y="170" width="250" height="20" as="geometry" />
        </mxCell>
        <mxCell id="jMRZVWawEb6rvSisNbMm-5" value="Sol. Insumo" style="swimlane;fontStyle=0;childLayout=stackLayout;horizontal=1;startSize=26;horizontalStack=0;resizeParent=1;resizeParentMax=0;resizeLast=0;collapsible=1;marginBottom=0;align=center;fontSize=14;" parent="rH5CH919fxMjNGGeitcy-1" vertex="1">
          <mxGeometry x="131" y="335" width="80" height="78" as="geometry" />
        </mxCell>
        <mxCell id="jMRZVWawEb6rvSisNbMm-6" value="SOEI0001" style="text;strokeColor=none;fillColor=none;spacingLeft=4;spacingRight=4;overflow=hidden;rotatable=0;points=[[0,0.5],[1,0.5]];portConstraint=eastwest;fontSize=12;" parent="jMRZVWawEb6rvSisNbMm-5" vertex="1">
          <mxGeometry y="26" width="80" height="26" as="geometry" />
        </mxCell>
        <mxCell id="jMRZVWawEb6rvSisNbMm-7" value="SOEI0003" style="text;strokeColor=none;fillColor=none;spacingLeft=4;spacingRight=4;overflow=hidden;rotatable=0;points=[[0,0.5],[1,0.5]];portConstraint=eastwest;fontSize=12;" parent="jMRZVWawEb6rvSisNbMm-5" vertex="1">
          <mxGeometry y="52" width="80" height="26" as="geometry" />
        </mxCell>
        <mxCell id="jMRZVWawEb6rvSisNbMm-8" value="Sol. Apoyo" style="swimlane;fontStyle=0;childLayout=stackLayout;horizontal=1;startSize=26;horizontalStack=0;resizeParent=1;resizeParentMax=0;resizeLast=0;collapsible=1;marginBottom=0;align=center;fontSize=14;" parent="rH5CH919fxMjNGGeitcy-1" vertex="1">
          <mxGeometry x="211" y="335" width="70" height="78" as="geometry" />
        </mxCell>
        <mxCell id="jMRZVWawEb6rvSisNbMm-9" value="00001265" style="text;strokeColor=none;fillColor=none;spacingLeft=4;spacingRight=4;overflow=hidden;rotatable=0;points=[[0,0.5],[1,0.5]];portConstraint=eastwest;fontSize=12;" parent="jMRZVWawEb6rvSisNbMm-8" vertex="1">
          <mxGeometry y="26" width="70" height="26" as="geometry" />
        </mxCell>
        <mxCell id="jMRZVWawEb6rvSisNbMm-10" value="00001365" style="text;strokeColor=none;fillColor=none;spacingLeft=4;spacingRight=4;overflow=hidden;rotatable=0;points=[[0,0.5],[1,0.5]];portConstraint=eastwest;fontSize=12;" parent="jMRZVWawEb6rvSisNbMm-8" vertex="1">
          <mxGeometry y="52" width="70" height="26" as="geometry" />
        </mxCell>
        <mxCell id="jMRZVWawEb6rvSisNbMm-11" value="Finca" style="swimlane;fontStyle=0;childLayout=stackLayout;horizontal=1;startSize=26;horizontalStack=0;resizeParent=1;resizeParentMax=0;resizeLast=0;collapsible=1;marginBottom=0;align=center;fontSize=14;" parent="rH5CH919fxMjNGGeitcy-1" vertex="1">
          <mxGeometry x="281" y="335" width="50" height="78" as="geometry" />
        </mxCell>
        <mxCell id="jMRZVWawEb6rvSisNbMm-12" value="014" style="text;strokeColor=none;fillColor=none;spacingLeft=4;spacingRight=4;overflow=hidden;rotatable=0;points=[[0,0.5],[1,0.5]];portConstraint=eastwest;fontSize=12;" parent="jMRZVWawEb6rvSisNbMm-11" vertex="1">
          <mxGeometry y="26" width="50" height="26" as="geometry" />
        </mxCell>
        <mxCell id="jMRZVWawEb6rvSisNbMm-13" value="013" style="text;strokeColor=none;fillColor=none;spacingLeft=4;spacingRight=4;overflow=hidden;rotatable=0;points=[[0,0.5],[1,0.5]];portConstraint=eastwest;fontSize=12;" parent="jMRZVWawEb6rvSisNbMm-11" vertex="1">
          <mxGeometry y="52" width="50" height="26" as="geometry" />
        </mxCell>
        <mxCell id="jMRZVWawEb6rvSisNbMm-14" value="Lote" style="swimlane;fontStyle=0;childLayout=stackLayout;horizontal=1;startSize=26;horizontalStack=0;resizeParent=1;resizeParentMax=0;resizeLast=0;collapsible=1;marginBottom=0;align=center;fontSize=14;" parent="rH5CH919fxMjNGGeitcy-1" vertex="1">
          <mxGeometry x="331" y="335" width="30" height="78" as="geometry" />
        </mxCell>
        <mxCell id="jMRZVWawEb6rvSisNbMm-15" value="1" style="text;strokeColor=none;fillColor=none;spacingLeft=4;spacingRight=4;overflow=hidden;rotatable=0;points=[[0,0.5],[1,0.5]];portConstraint=eastwest;fontSize=12;" parent="jMRZVWawEb6rvSisNbMm-14" vertex="1">
          <mxGeometry y="26" width="30" height="26" as="geometry" />
        </mxCell>
        <mxCell id="jMRZVWawEb6rvSisNbMm-16" value="2" style="text;strokeColor=none;fillColor=none;spacingLeft=4;spacingRight=4;overflow=hidden;rotatable=0;points=[[0,0.5],[1,0.5]];portConstraint=eastwest;fontSize=12;" parent="jMRZVWawEb6rvSisNbMm-14" vertex="1">
          <mxGeometry y="52" width="30" height="26" as="geometry" />
        </mxCell>
        <mxCell id="jMRZVWawEb6rvSisNbMm-17" value="&lt;b&gt;&lt;font style=&quot;font-size: 16px&quot; color=&quot;#000000&quot;&gt;Solicitudes de insumos&lt;/font&gt;&lt;/b&gt;" style="text;html=1;strokeColor=none;fillColor=none;align=center;verticalAlign=middle;whiteSpace=wrap;rounded=0;fontColor=#80FF00;" parent="rH5CH919fxMjNGGeitcy-1" vertex="1">
          <mxGeometry x="121" y="310" width="250" height="20" as="geometry" />
        </mxCell>
        <mxCell id="jMRZVWawEb6rvSisNbMm-18" value="Producto" style="swimlane;fontStyle=0;childLayout=stackLayout;horizontal=1;startSize=26;horizontalStack=0;resizeParent=1;resizeParentMax=0;resizeLast=0;collapsible=1;marginBottom=0;align=center;fontSize=14;" parent="rH5CH919fxMjNGGeitcy-1" vertex="1">
          <mxGeometry x="361" y="335" width="150" height="78" as="geometry" />
        </mxCell>
        <mxCell id="jMRZVWawEb6rvSisNbMm-19" value="GLYFOSAN LTS" style="text;strokeColor=none;fillColor=none;spacingLeft=4;spacingRight=4;overflow=hidden;rotatable=0;points=[[0,0.5],[1,0.5]];portConstraint=eastwest;fontSize=12;" parent="jMRZVWawEb6rvSisNbMm-18" vertex="1">
          <mxGeometry y="26" width="150" height="26" as="geometry" />
        </mxCell>
        <mxCell id="jMRZVWawEb6rvSisNbMm-20" value="GARRA LTS" style="text;strokeColor=none;fillColor=none;spacingLeft=4;spacingRight=4;overflow=hidden;rotatable=0;points=[[0,0.5],[1,0.5]];portConstraint=eastwest;fontSize=12;" parent="jMRZVWawEb6rvSisNbMm-18" vertex="1">
          <mxGeometry y="52" width="150" height="26" as="geometry" />
        </mxCell>
        <mxCell id="jMRZVWawEb6rvSisNbMm-21" value="Cant. Sol" style="swimlane;fontStyle=0;childLayout=stackLayout;horizontal=1;startSize=26;horizontalStack=0;resizeParent=1;resizeParentMax=0;resizeLast=0;collapsible=1;marginBottom=0;align=center;fontSize=14;" parent="rH5CH919fxMjNGGeitcy-1" vertex="1">
          <mxGeometry x="511" y="335" width="65" height="78" as="geometry" />
        </mxCell>
        <mxCell id="jMRZVWawEb6rvSisNbMm-22" value="10000" style="text;strokeColor=none;fillColor=none;spacingLeft=4;spacingRight=4;overflow=hidden;rotatable=0;points=[[0,0.5],[1,0.5]];portConstraint=eastwest;fontSize=12;" parent="jMRZVWawEb6rvSisNbMm-21" vertex="1">
          <mxGeometry y="26" width="65" height="26" as="geometry" />
        </mxCell>
        <mxCell id="jMRZVWawEb6rvSisNbMm-23" value="15000" style="text;strokeColor=none;fillColor=none;spacingLeft=4;spacingRight=4;overflow=hidden;rotatable=0;points=[[0,0.5],[1,0.5]];portConstraint=eastwest;fontSize=12;" parent="jMRZVWawEb6rvSisNbMm-21" vertex="1">
          <mxGeometry y="52" width="65" height="26" as="geometry" />
        </mxCell>
        <mxCell id="jMRZVWawEb6rvSisNbMm-24" value="Cant. Apr" style="swimlane;fontStyle=0;childLayout=stackLayout;horizontal=1;startSize=26;horizontalStack=0;resizeParent=1;resizeParentMax=0;resizeLast=0;collapsible=1;marginBottom=0;align=center;fontSize=14;" parent="rH5CH919fxMjNGGeitcy-1" vertex="1">
          <mxGeometry x="576" y="335" width="60" height="78" as="geometry" />
        </mxCell>
        <mxCell id="jMRZVWawEb6rvSisNbMm-25" value="5000" style="text;strokeColor=none;fillColor=none;spacingLeft=4;spacingRight=4;overflow=hidden;rotatable=0;points=[[0,0.5],[1,0.5]];portConstraint=eastwest;fontSize=12;" parent="jMRZVWawEb6rvSisNbMm-24" vertex="1">
          <mxGeometry y="26" width="60" height="26" as="geometry" />
        </mxCell>
        <mxCell id="jMRZVWawEb6rvSisNbMm-26" value="10000" style="text;strokeColor=none;fillColor=none;spacingLeft=4;spacingRight=4;overflow=hidden;rotatable=0;points=[[0,0.5],[1,0.5]];portConstraint=eastwest;fontSize=12;" parent="jMRZVWawEb6rvSisNbMm-24" vertex="1">
          <mxGeometry y="52" width="60" height="26" as="geometry" />
        </mxCell>
        <mxCell id="jMRZVWawEb6rvSisNbMm-27" value="Cant. Asig" style="swimlane;fontStyle=0;childLayout=stackLayout;horizontal=1;startSize=26;horizontalStack=0;resizeParent=1;resizeParentMax=0;resizeLast=0;collapsible=1;marginBottom=0;align=center;fontSize=14;" parent="rH5CH919fxMjNGGeitcy-1" vertex="1">
          <mxGeometry x="636" y="335" width="60" height="78" as="geometry" />
        </mxCell>
        <mxCell id="jMRZVWawEb6rvSisNbMm-28" value="Â " style="text;strokeColor=none;fillColor=none;spacingLeft=4;spacingRight=4;overflow=hidden;rotatable=0;points=[[0,0.5],[1,0.5]];portConstraint=eastwest;fontSize=12;" parent="jMRZVWawEb6rvSisNbMm-27" vertex="1">
          <mxGeometry y="26" width="60" height="26" as="geometry" />
        </mxCell>
        <mxCell id="jMRZVWawEb6rvSisNbMm-29" value="10000" style="text;strokeColor=none;fillColor=none;spacingLeft=4;spacingRight=4;overflow=hidden;rotatable=0;points=[[0,0.5],[1,0.5]];portConstraint=eastwest;fontSize=12;" parent="jMRZVWawEb6rvSisNbMm-27" vertex="1">
          <mxGeometry y="52" width="60" height="26" as="geometry" />
        </mxCell>
        <mxCell id="jMRZVWawEb6rvSisNbMm-30" value="&lt;b&gt;&lt;font style=&quot;font-size: 16px&quot; color=&quot;#000000&quot;&gt;DistribuciÃ³n de producto&lt;/font&gt;&lt;/b&gt;" style="text;html=1;strokeColor=none;fillColor=none;align=center;verticalAlign=middle;whiteSpace=wrap;rounded=0;fontColor=#80FF00;" parent="rH5CH919fxMjNGGeitcy-1" vertex="1">
          <mxGeometry x="123" y="200" width="250" height="20" as="geometry" />
        </mxCell>
        <mxCell id="jMRZVWawEb6rvSisNbMm-31" value="Producto" style="swimlane;fontStyle=0;childLayout=stackLayout;horizontal=1;startSize=26;horizontalStack=0;resizeParent=1;resizeParentMax=0;resizeLast=0;collapsible=1;marginBottom=0;align=center;fontSize=14;" parent="rH5CH919fxMjNGGeitcy-1" vertex="1">
          <mxGeometry x="133" y="225" width="207" height="52" as="geometry" />
        </mxCell>
        <UserObject label="GARRA TIP 58Â " link="data:page/id,HjstkvXey1lv5Y4CraNw" id="jMRZVWawEb6rvSisNbMm-32">
          <mxCell style="text;strokeColor=none;fillColor=none;spacingLeft=4;spacingRight=4;overflow=hidden;rotatable=0;points=[[0,0.5],[1,0.5]];portConstraint=eastwest;fontSize=12;" parent="jMRZVWawEb6rvSisNbMm-31" vertex="1">
            <mxGeometry y="26" width="207" height="26" as="geometry" />
          </mxCell>
        </UserObject>
        <mxCell id="jMRZVWawEb6rvSisNbMm-33" value="Cantidad" style="swimlane;fontStyle=0;childLayout=stackLayout;horizontal=1;startSize=26;horizontalStack=0;resizeParent=1;resizeParentMax=0;resizeLast=0;collapsible=1;marginBottom=0;align=center;fontSize=14;" parent="rH5CH919fxMjNGGeitcy-1" vertex="1">
          <mxGeometry x="340" y="225" width="70" height="52" as="geometry" />
        </mxCell>
        <mxCell id="jMRZVWawEb6rvSisNbMm-34" value="100.000" style="text;strokeColor=none;fillColor=none;spacingLeft=4;spacingRight=4;overflow=hidden;rotatable=0;points=[[0,0.5],[1,0.5]];portConstraint=eastwest;fontSize=12;" parent="jMRZVWawEb6rvSisNbMm-33" vertex="1">
          <mxGeometry y="26" width="70" height="26" as="geometry" />
        </mxCell>
        <mxCell id="jMRZVWawEb6rvSisNbMm-35" value="Asignar" style="rounded=1;fillColor=#0057D8;align=center;strokeColor=none;html=1;fontColor=#ffffff;fontSize=12" parent="rH5CH919fxMjNGGeitcy-1" vertex="1">
          <mxGeometry x="590" y="234.5" width="86" height="33" as="geometry" />
        </mxCell>
        <mxCell id="QdZCXlC5H2TREiZ1c7TT-2" value="Porc. Dis." style="swimlane;fontStyle=0;childLayout=stackLayout;horizontal=1;startSize=26;horizontalStack=0;resizeParent=1;resizeParentMax=0;resizeLast=0;collapsible=1;marginBottom=0;align=center;fontSize=14;" parent="rH5CH919fxMjNGGeitcy-1" vertex="1">
          <mxGeometry x="410" y="225" width="70" height="52" as="geometry" />
        </mxCell>
        <mxCell id="QdZCXlC5H2TREiZ1c7TT-3" value="50" style="text;strokeColor=none;fillColor=none;spacingLeft=4;spacingRight=4;overflow=hidden;rotatable=0;points=[[0,0.5],[1,0.5]];portConstraint=eastwest;fontSize=12;" parent="QdZCXlC5H2TREiZ1c7TT-2" vertex="1">
          <mxGeometry y="26" width="70" height="26" as="geometry" />
        </mxCell>
        <mxCell id="X4vpJ5I0FR7VM6tPzKQ9-0" value="Notas" parent="rH5CH919fxMjNGGeitcy-0" />
        <mxCell id="X4vpJ5I0FR7VM6tPzKQ9-1" value="El criterio de asignaciÃ³n corresponderÃ­a a una relaciÃ³n entre las hectÃ¡reas y la cantidad aprobada por el tÃ©cnico." style="shape=note;strokeWidth=2;fontSize=14;size=20;whiteSpace=wrap;html=1;fillColor=#fff2cc;strokeColor=#d6b656;fontColor=#666600;align=center;" vertex="1" parent="X4vpJ5I0FR7VM6tPzKQ9-0">
          <mxGeometry x="728" y="160" width="166" height="100" as="geometry" />
        </mxCell>
        <mxCell id="X4vpJ5I0FR7VM6tPzKQ9-2" value="" style="endArrow=classic;html=1;fontColor=#000000;exitX=0;exitY=0.5;exitDx=0;exitDy=0;exitPerimeter=0;entryX=1;entryY=0.5;entryDx=0;entryDy=0;" edge="1" parent="X4vpJ5I0FR7VM6tPzKQ9-0" source="X4vpJ5I0FR7VM6tPzKQ9-1">
          <mxGeometry width="50" height="50" relative="1" as="geometry">
            <mxPoint x="750" y="140" as="sourcePoint" />
            <mxPoint x="676" y="251" as="targetPoint" />
          </mxGeometry>
        </mxCell>
        <mxCell id="X4vpJ5I0FR7VM6tPzKQ9-3" value="Porcentaje de distribuciÃ³n. Porcentaje de las Ha aprobadas a cubrir en la distribuciÃ³n por solicitud" style="shape=note;strokeWidth=2;fontSize=14;size=20;whiteSpace=wrap;html=1;fillColor=#fff2cc;strokeColor=#d6b656;fontColor=#666600;align=center;" vertex="1" parent="X4vpJ5I0FR7VM6tPzKQ9-0">
          <mxGeometry x="728" y="50" width="172" height="100" as="geometry" />
        </mxCell>
        <mxCell id="X4vpJ5I0FR7VM6tPzKQ9-4" value="" style="endArrow=classic;html=1;fontColor=#000000;exitX=0;exitY=0.5;exitDx=0;exitDy=0;exitPerimeter=0;entryX=1;entryY=0.5;entryDx=0;entryDy=0;" edge="1" parent="X4vpJ5I0FR7VM6tPzKQ9-0" source="X4vpJ5I0FR7VM6tPzKQ9-3">
          <mxGeometry width="50" height="50" relative="1" as="geometry">
            <mxPoint x="812" y="337.5" as="sourcePoint" />
            <mxPoint x="480" y="264" as="targetPoint" />
          </mxGeometry>
        </mxCell>
      </root>
    </mxGraphModel>
  </diagram>
  <diagram id="PlwEQQCxS7U-CVrZfPmG" name="Panel - Page-1">
    <mxGraphModel dx="828" dy="492" grid="1" gridSize="10" guides="1" tooltips="1" connect="1" arrows="1" fold="1" page="1" pageScale="1" pageWidth="827" pageHeight="1169" math="0" shadow="0">
      <root>
        <mxCell id="hTVQ8FQsKFPuEO2VUZAR-0" />
        <mxCell id="hTVQ8FQsKFPuEO2VUZAR-1" parent="hTVQ8FQsKFPuEO2VUZAR-0" />
        <mxCell id="x1OI2OPRODuBQctBsT26-0" value="" style="strokeWidth=1;shadow=0;dashed=0;align=center;html=1;shape=mxgraph.mockup.containers.browserWindow;rSize=0;strokeColor=#666666;strokeColor2=#008cff;strokeColor3=#c4c4c4;mainText=,;recursiveResize=0;" parent="hTVQ8FQsKFPuEO2VUZAR-1" vertex="1">
          <mxGeometry x="40" y="20" width="750" height="520" as="geometry" />
        </mxCell>
        <mxCell id="x1OI2OPRODuBQctBsT26-1" value="Siembra" style="strokeWidth=1;shadow=0;dashed=0;align=center;html=1;shape=mxgraph.mockup.containers.anchor;fontSize=17;fontColor=#666666;align=left;" parent="x1OI2OPRODuBQctBsT26-0" vertex="1">
          <mxGeometry x="60" y="12" width="110" height="26" as="geometry" />
        </mxCell>
        <mxCell id="x1OI2OPRODuBQctBsT26-2" value="https://panel.asoportuguesa.org" style="strokeWidth=1;shadow=0;dashed=0;align=center;html=1;shape=mxgraph.mockup.containers.anchor;rSize=0;fontSize=17;fontColor=#666666;align=left;" parent="x1OI2OPRODuBQctBsT26-0" vertex="1">
          <mxGeometry x="130" y="60" width="250" height="26" as="geometry" />
        </mxCell>
        <mxCell id="x1OI2OPRODuBQctBsT26-23" value="Turno de productores" style="swimlane;fontStyle=0;childLayout=stackLayout;horizontal=1;startSize=26;fillColor=none;horizontalStack=0;resizeParent=1;resizeParentMax=0;resizeLast=0;collapsible=1;marginBottom=0;fontColor=#000000;align=center;" parent="x1OI2OPRODuBQctBsT26-0" vertex="1">
          <mxGeometry x="470" y="230" width="270" height="286" as="geometry" />
        </mxCell>
        <mxCell id="x1OI2OPRODuBQctBsT26-24" value="1. GALINDEZ JUAN JOSE" style="text;strokeColor=none;fillColor=none;align=left;verticalAlign=top;spacingLeft=4;spacingRight=4;overflow=hidden;rotatable=0;points=[[0,0.5],[1,0.5]];portConstraint=eastwest;" parent="x1OI2OPRODuBQctBsT26-23" vertex="1">
          <mxGeometry y="26" width="270" height="26" as="geometry" />
        </mxCell>
        <mxCell id="x1OI2OPRODuBQctBsT26-25" value="2. EUSTOQUIO IRMELINDO" style="text;strokeColor=none;fillColor=none;align=left;verticalAlign=top;spacingLeft=4;spacingRight=4;overflow=hidden;rotatable=0;points=[[0,0.5],[1,0.5]];portConstraint=eastwest;" parent="x1OI2OPRODuBQctBsT26-23" vertex="1">
          <mxGeometry y="52" width="270" height="26" as="geometry" />
        </mxCell>
        <mxCell id="x1OI2OPRODuBQctBsT26-26" value="3. OTRO..." style="text;strokeColor=none;fillColor=none;align=left;verticalAlign=top;spacingLeft=4;spacingRight=4;overflow=hidden;rotatable=0;points=[[0,0.5],[1,0.5]];portConstraint=eastwest;" parent="x1OI2OPRODuBQctBsT26-23" vertex="1">
          <mxGeometry y="78" width="270" height="26" as="geometry" />
        </mxCell>
        <mxCell id="x1OI2OPRODuBQctBsT26-28" value="4. OTRO..." style="text;strokeColor=none;fillColor=none;align=left;verticalAlign=top;spacingLeft=4;spacingRight=4;overflow=hidden;rotatable=0;points=[[0,0.5],[1,0.5]];portConstraint=eastwest;" parent="x1OI2OPRODuBQctBsT26-23" vertex="1">
          <mxGeometry y="104" width="270" height="26" as="geometry" />
        </mxCell>
        <mxCell id="x1OI2OPRODuBQctBsT26-29" value="5. OTRO..." style="text;strokeColor=none;fillColor=none;align=left;verticalAlign=top;spacingLeft=4;spacingRight=4;overflow=hidden;rotatable=0;points=[[0,0.5],[1,0.5]];portConstraint=eastwest;" parent="x1OI2OPRODuBQctBsT26-23" vertex="1">
          <mxGeometry y="130" width="270" height="26" as="geometry" />
        </mxCell>
        <mxCell id="x1OI2OPRODuBQctBsT26-30" value="6. OTRO..." style="text;strokeColor=none;fillColor=none;align=left;verticalAlign=top;spacingLeft=4;spacingRight=4;overflow=hidden;rotatable=0;points=[[0,0.5],[1,0.5]];portConstraint=eastwest;" parent="x1OI2OPRODuBQctBsT26-23" vertex="1">
          <mxGeometry y="156" width="270" height="26" as="geometry" />
        </mxCell>
        <mxCell id="x1OI2OPRODuBQctBsT26-31" value="7. OTRO..." style="text;strokeColor=none;fillColor=none;align=left;verticalAlign=top;spacingLeft=4;spacingRight=4;overflow=hidden;rotatable=0;points=[[0,0.5],[1,0.5]];portConstraint=eastwest;" parent="x1OI2OPRODuBQctBsT26-23" vertex="1">
          <mxGeometry y="182" width="270" height="26" as="geometry" />
        </mxCell>
        <mxCell id="x1OI2OPRODuBQctBsT26-32" value="8. OTRO..." style="text;strokeColor=none;fillColor=none;align=left;verticalAlign=top;spacingLeft=4;spacingRight=4;overflow=hidden;rotatable=0;points=[[0,0.5],[1,0.5]];portConstraint=eastwest;" parent="x1OI2OPRODuBQctBsT26-23" vertex="1">
          <mxGeometry y="208" width="270" height="26" as="geometry" />
        </mxCell>
        <mxCell id="x1OI2OPRODuBQctBsT26-33" value="9. OTRO..." style="text;strokeColor=none;fillColor=none;align=left;verticalAlign=top;spacingLeft=4;spacingRight=4;overflow=hidden;rotatable=0;points=[[0,0.5],[1,0.5]];portConstraint=eastwest;" parent="x1OI2OPRODuBQctBsT26-23" vertex="1">
          <mxGeometry y="234" width="270" height="26" as="geometry" />
        </mxCell>
        <mxCell id="x1OI2OPRODuBQctBsT26-34" value="10. OTRO..." style="text;strokeColor=none;fillColor=none;align=left;verticalAlign=top;spacingLeft=4;spacingRight=4;overflow=hidden;rotatable=0;points=[[0,0.5],[1,0.5]];portConstraint=eastwest;" parent="x1OI2OPRODuBQctBsT26-23" vertex="1">
          <mxGeometry y="260" width="270" height="26" as="geometry" />
        </mxCell>
        <mxCell id="x1OI2OPRODuBQctBsT26-9" value="CrÃ©dito" style="swimlane;fontStyle=0;childLayout=stackLayout;horizontal=1;startSize=26;fillColor=none;horizontalStack=0;resizeParent=1;resizeParentMax=0;resizeLast=0;collapsible=1;marginBottom=0;align=center;" parent="x1OI2OPRODuBQctBsT26-0" vertex="1">
          <mxGeometry x="290" y="220" width="120" height="52" as="geometry" />
        </mxCell>
        <mxCell id="x1OI2OPRODuBQctBsT26-10" value="00001265" style="text;strokeColor=none;fillColor=none;align=left;verticalAlign=top;spacingLeft=4;spacingRight=4;overflow=hidden;rotatable=0;points=[[0,0.5],[1,0.5]];portConstraint=eastwest;" parent="x1OI2OPRODuBQctBsT26-9" vertex="1">
          <mxGeometry y="26" width="120" height="26" as="geometry" />
        </mxCell>
        <mxCell id="x1OI2OPRODuBQctBsT26-11" value="Solicitud" style="swimlane;fontStyle=0;childLayout=stackLayout;horizontal=1;startSize=26;fillColor=none;horizontalStack=0;resizeParent=1;resizeParentMax=0;resizeLast=0;collapsible=1;marginBottom=0;align=center;" parent="x1OI2OPRODuBQctBsT26-0" vertex="1">
          <mxGeometry x="220" y="220" width="70" height="52" as="geometry" />
        </mxCell>
        <mxCell id="x1OI2OPRODuBQctBsT26-12" value="SOEI0001" style="text;strokeColor=none;fillColor=none;align=left;verticalAlign=top;spacingLeft=4;spacingRight=4;overflow=hidden;rotatable=0;points=[[0,0.5],[1,0.5]];portConstraint=eastwest;" parent="x1OI2OPRODuBQctBsT26-11" vertex="1">
          <mxGeometry y="26" width="70" height="26" as="geometry" />
        </mxCell>
        <mxCell id="x1OI2OPRODuBQctBsT26-16" value="" style="verticalLabelPosition=bottom;shadow=0;dashed=0;align=center;html=1;verticalAlign=top;strokeWidth=1;shape=mxgraph.mockup.graphics.simpleIcon;strokeColor=#999999;" parent="x1OI2OPRODuBQctBsT26-0" vertex="1">
          <mxGeometry y="162" width="460" height="208" as="geometry" />
        </mxCell>
        <mxCell id="x1OI2OPRODuBQctBsT26-21" value="" style="verticalLabelPosition=bottom;shadow=0;dashed=0;align=center;html=1;verticalAlign=top;strokeWidth=1;shape=mxgraph.mockup.graphics.simpleIcon;strokeColor=#999999;" parent="x1OI2OPRODuBQctBsT26-0" vertex="1">
          <mxGeometry y="370" width="460" height="100" as="geometry" />
        </mxCell>
        <mxCell id="x1OI2OPRODuBQctBsT26-22" value="" style="verticalLabelPosition=bottom;shadow=0;dashed=0;align=center;html=1;verticalAlign=top;strokeWidth=1;shape=mxgraph.mockup.graphics.simpleIcon;strokeColor=#999999;" parent="x1OI2OPRODuBQctBsT26-0" vertex="1">
          <mxGeometry y="110" width="750" height="50" as="geometry" />
        </mxCell>
        <mxCell id="x1OI2OPRODuBQctBsT26-35" value="&lt;font style=&quot;font-size: 18px&quot;&gt;Umberto de Campli &lt;br&gt;&lt;/font&gt;&lt;div style=&quot;text-align: left ; font-size: 18px&quot;&gt;&lt;b&gt;&lt;i&gt;&lt;font style=&quot;font-size: 18px&quot;&gt;Caja 01&lt;/font&gt;&lt;/i&gt;&lt;/b&gt;&lt;/div&gt;" style="rounded=0;whiteSpace=wrap;html=1;fontColor=#000000;align=center;" parent="x1OI2OPRODuBQctBsT26-0" vertex="1">
          <mxGeometry x="470" y="165" width="270" height="60" as="geometry" />
        </mxCell>
        <mxCell id="x1OI2OPRODuBQctBsT26-27" value="" style="verticalLabelPosition=bottom;shadow=0;dashed=0;align=center;html=1;verticalAlign=top;strokeWidth=1;shape=mxgraph.mockup.graphics.simpleIcon;strokeColor=#999999;" parent="hTVQ8FQsKFPuEO2VUZAR-1" vertex="1">
          <mxGeometry x="40" y="490" width="750" height="50" as="geometry" />
        </mxCell>
        <mxCell id="oPZ7IzCEFM4DEHioJACQ-0" value="Notas" parent="hTVQ8FQsKFPuEO2VUZAR-0" />
        <mxCell id="oPZ7IzCEFM4DEHioJACQ-1" value="Muestra los que estÃ¡n en cajas actualmente" style="shape=note;strokeWidth=2;fontSize=14;size=20;whiteSpace=wrap;html=1;fillColor=#fff2cc;strokeColor=#d6b656;fontColor=#666600;align=center;" vertex="1" parent="oPZ7IzCEFM4DEHioJACQ-0">
          <mxGeometry x="110" y="130" width="210" height="70" as="geometry" />
        </mxCell>
        <mxCell id="oPZ7IzCEFM4DEHioJACQ-2" value="Desplaza&amp;nbsp; toda la lista de principio a fin y viceversa" style="shape=note;strokeWidth=2;fontSize=14;size=20;whiteSpace=wrap;html=1;fillColor=#fff2cc;strokeColor=#d6b656;fontColor=#666600;align=center;" vertex="1" parent="oPZ7IzCEFM4DEHioJACQ-0">
          <mxGeometry x="110" y="220" width="210" height="70" as="geometry" />
        </mxCell>
        <mxCell id="oPZ7IzCEFM4DEHioJACQ-3" value="" style="endArrow=classic;html=1;fontColor=#000000;entryX=0;entryY=0.5;entryDx=0;entryDy=0;exitX=0;exitY=0;exitDx=210;exitDy=45;exitPerimeter=0;" edge="1" parent="oPZ7IzCEFM4DEHioJACQ-0" source="oPZ7IzCEFM4DEHioJACQ-1">
          <mxGeometry width="50" height="50" relative="1" as="geometry">
            <mxPoint x="790" y="160" as="sourcePoint" />
            <mxPoint x="510" y="215" as="targetPoint" />
          </mxGeometry>
        </mxCell>
        <mxCell id="oPZ7IzCEFM4DEHioJACQ-4" value="" style="endArrow=classic;html=1;fontColor=#000000;entryX=0;entryY=0.5;entryDx=0;entryDy=0;exitX=0;exitY=0;exitDx=210;exitDy=45;exitPerimeter=0;" edge="1" parent="oPZ7IzCEFM4DEHioJACQ-0" source="oPZ7IzCEFM4DEHioJACQ-2">
          <mxGeometry width="50" height="50" relative="1" as="geometry">
            <mxPoint x="290" y="165" as="sourcePoint" />
            <mxPoint x="510" y="289" as="targetPoint" />
          </mxGeometry>
        </mxCell>
      </root>
    </mxGraphModel>
  </diagram>
</mxfile>
